{"glyphs":{"0":{"ha":732,"x_min":31,"x_max":701,"o":"m 368 672 q 495 645 435 672 q 601 572 556 618 q 674 465 647 526 q 701 335 701 404 q 675 206 701 267 q 603 100 649 146 q 497 28 558 54 q 365 1 436 1 q 235 26 296 1 q 129 96 175 51 q 57 201 83 140 q 31 335 31 263 q 56 465 31 404 q 127 570 82 525 q 234 642 172 615 q 368 672 296 669 m 117 335 q 136 238 117 283 q 190 159 156 193 q 269 106 224 125 q 365 86 314 86 q 463 106 417 86 q 542 159 508 125 q 596 238 576 193 q 615 335 615 283 q 596 432 615 386 q 542 512 576 478 q 463 565 508 546 q 365 585 417 585 q 269 565 314 585 q 190 512 224 546 q 136 432 156 478 q 117 335 117 386 z "},"1":{"ha":300,"x_min":0,"x_max":254,"o":"m 8 506 q 4 538 0 521 q 24 564 8 554 l 179 663 q 230 669 206 681 q 254 631 254 658 l 254 43 q 242 13 254 25 q 211 0 229 0 q 181 13 193 0 q 168 43 168 25 l 168 551 l 68 490 q 35 485 53 481 q 8 506 18 490 z "},"2":{"ha":628,"x_min":32,"x_max":599,"o":"m 49 460 q 71 543 50 504 q 128 611 92 582 q 212 657 164 640 q 314 674 260 674 q 417 656 368 674 q 501 610 465 639 q 558 540 538 581 q 579 454 579 500 q 556 365 579 406 q 492 294 532 324 q 485 290 492 294 q 451 265 479 285 q 367 203 424 246 q 206 86 310 161 l 556 86 q 586 74 574 86 q 599 43 599 61 q 586 13 599 25 q 556 0 574 0 l 75 0 q 44 13 57 0 q 32 43 32 25 q 49 78 32 65 q 177 171 121 131 q 274 241 233 211 q 344 291 315 271 q 392 325 372 311 q 443 363 436 357 q 481 403 467 379 q 494 454 494 426 q 481 506 494 481 q 442 549 467 531 q 384 578 417 567 q 314 589 351 589 q 242 577 275 589 q 185 546 210 565 q 147 502 161 526 q 133 454 133 478 q 121 424 133 436 q 90 413 108 413 q 60 425 72 413 q 49 460 49 438 z "},"3":{"ha":674,"x_min":18,"x_max":643,"o":"m 49 15 q 83 13 65 22 q 106 -14 100 4 q 189 -123 131 -81 q 324 -165 247 -165 q 413 -147 371 -165 q 488 -98 456 -129 q 538 -25 519 -67 q 556 65 556 17 q 538 155 556 113 q 488 229 519 197 q 413 279 456 261 q 324 297 371 297 q 295 294 310 297 q 267 290 281 292 q 242 290 254 288 q 221 300 229 292 q 208 331 208 313 q 219 361 207 349 l 457 589 l 131 589 q 100 601 113 589 q 88 632 88 614 q 100 663 88 650 q 131 675 113 675 l 558 675 q 599 646 589 675 q 582 596 607 617 l 364 382 q 474 347 422 375 q 563 277 525 319 q 622 181 600 235 q 643 65 643 126 q 618 -59 643 -1 q 549 -160 593 -117 q 448 -228 506 -203 q 324 -253 390 -253 q 220 -235 268 -253 q 133 -189 172 -218 q 67 -122 94 -160 q 25 -42 39 -83 q 27 -6 18 -22 q 49 15 36 10 z "},"4":{"ha":606,"x_min":10,"x_max":596,"o":"m 194 642 q 215 668 199 660 q 247 671 231 676 q 273 649 264 665 q 276 617 282 633 l 117 86 l 411 86 l 411 161 q 424 192 411 179 q 454 204 436 204 q 485 192 472 204 q 497 161 497 179 l 497 86 l 553 86 q 583 74 571 86 q 596 43 596 61 q 583 13 596 25 q 553 0 571 0 l 497 0 l 497 -208 q 485 -239 497 -226 q 454 -251 472 -251 q 424 -239 436 -251 q 411 -208 411 -226 l 411 0 l 61 0 q 25 17 40 0 q 17 57 10 33 l 194 642 z "},"5":{"ha":651,"x_min":36,"x_max":629,"o":"m 319 -253 q 220 -238 264 -253 q 143 -200 176 -224 q 86 -147 110 -176 q 47 -89 63 -118 q 42 -51 36 -71 q 64 -22 47 -32 q 99 -17 81 -12 q 133 -46 118 -22 q 206 -127 161 -99 q 319 -156 251 -156 q 401 -139 363 -156 q 469 -94 440 -122 q 515 -27 499 -65 q 532 56 532 11 q 515 137 532 99 q 468 204 497 175 q 400 251 439 233 q 317 268 361 268 l 86 268 q 56 281 68 268 q 43 311 43 293 l 43 631 q 56 661 43 649 q 86 674 68 674 l 494 674 q 528 659 514 674 q 543 625 543 644 q 528 591 543 606 q 494 576 514 576 l 129 576 l 129 365 l 314 365 q 437 341 379 365 q 537 274 494 317 q 604 176 579 232 q 629 56 629 119 q 605 -65 629 -8 q 538 -162 581 -121 q 440 -228 496 -204 q 319 -253 383 -253 z "},"6":{"ha":717,"x_min":25,"x_max":699,"o":"m 25 338 q 36 422 25 381 q 72 511 47 464 l 278 875 q 305 894 288 890 q 338 892 322 899 q 358 865 353 882 q 353 832 363 847 l 256 658 q 361 675 306 675 q 492 649 431 675 q 600 576 554 622 q 672 469 646 531 q 699 338 699 407 q 672 207 699 268 q 600 100 646 146 q 492 28 554 54 q 361 1 431 1 q 231 28 292 1 q 124 100 169 54 q 51 207 78 146 q 25 338 25 268 m 139 453 q 111 338 111 400 q 131 240 111 285 q 184 160 150 194 q 263 107 218 126 q 361 88 308 88 q 458 107 413 88 q 539 160 504 126 q 593 240 574 194 q 613 338 613 285 q 593 435 613 389 q 539 515 574 481 q 458 569 504 550 q 361 589 413 589 q 238 555 294 589 q 139 453 181 521 z "},"7":{"ha":653,"x_min":17,"x_max":647,"o":"m 17 631 q 29 661 17 649 q 60 674 42 674 l 597 674 q 635 650 622 674 q 636 610 647 629 l 174 -231 q 147 -251 164 -246 q 115 -247 131 -256 q 93 -222 99 -239 q 97 -189 88 -204 l 525 588 l 60 588 q 29 600 42 588 q 17 631 17 613 z "},"8":{"ha":675,"x_min":26,"x_max":649,"o":"m 113 311 q 130 223 113 264 q 178 151 147 182 q 249 103 208 121 q 338 86 290 86 q 426 103 385 86 q 497 151 467 121 q 546 223 528 182 q 564 311 564 264 q 546 399 564 358 q 497 471 528 440 q 426 519 467 501 q 338 538 385 538 q 249 519 290 538 q 178 471 208 501 q 130 399 147 440 q 113 311 113 358 m 224 736 q 257 656 224 689 q 338 622 290 622 q 418 656 385 622 q 451 736 451 689 q 418 817 451 783 q 338 850 385 850 q 257 817 290 850 q 224 736 224 783 m 139 736 q 154 814 139 778 q 197 877 169 850 q 260 920 224 904 q 338 936 296 936 q 415 920 379 936 q 478 877 451 904 q 522 814 506 850 q 538 736 538 778 q 520 656 538 693 q 474 590 503 618 q 600 478 551 553 q 649 311 649 404 q 624 190 649 246 q 558 91 600 133 q 458 24 515 49 q 338 0 401 0 q 216 24 272 0 q 117 91 160 49 q 51 190 75 133 q 26 311 26 246 q 74 479 26 404 q 201 592 122 554 q 156 656 172 619 q 139 736 139 693 z "},"9":{"ha":715,"x_min":18,"x_max":692,"o":"m 692 339 q 681 254 692 296 q 644 165 669 213 l 417 -231 q 390 -250 407 -246 q 357 -247 372 -254 q 337 -220 342 -237 q 342 -187 332 -203 l 461 18 q 356 1 411 1 q 224 28 286 1 q 117 100 163 54 q 44 208 71 146 q 18 339 18 269 q 44 469 18 408 q 117 576 71 531 q 224 649 163 622 q 356 675 286 675 q 486 649 425 675 q 593 576 547 622 q 665 469 639 531 q 692 339 692 408 m 578 224 q 606 339 606 276 q 586 436 606 390 q 533 516 567 482 q 453 569 499 550 q 356 589 407 589 q 258 569 303 589 q 178 516 213 550 q 124 436 143 482 q 104 339 104 390 q 124 241 104 286 q 178 161 143 196 q 258 107 213 126 q 356 88 303 88 q 479 122 422 88 q 578 224 536 156 z "},"h":{"ha":729,"x_min":44,"x_max":714,"o":"m 44 854 q 57 885 44 872 q 88 897 69 897 q 118 885 106 897 q 131 854 131 872 l 131 563 q 240 644 176 614 q 379 674 304 674 q 510 647 449 674 q 616 576 571 621 q 688 469 661 531 q 714 339 714 408 l 714 42 q 701 11 714 24 q 671 -1 689 -1 q 640 11 653 -1 q 628 42 628 24 l 628 339 q 608 435 628 390 q 555 515 589 481 q 476 568 521 549 q 379 588 431 588 q 285 569 329 588 q 207 518 240 550 q 153 442 174 486 q 131 349 132 399 l 131 42 q 118 11 131 24 q 88 -1 106 -1 q 57 11 69 -1 q 44 42 44 24 l 44 349 l 44 854 z "},"g":{"ha":729,"x_min":26,"x_max":697,"o":"m 286 -250 q 249 -264 269 -251 q 217 -294 228 -276 q 192 -315 208 -310 q 158 -314 175 -321 q 138 -289 143 -306 q 140 -257 133 -272 q 199 -191 160 -217 q 286 -165 238 -165 l 469 -165 q 525 -154 499 -165 q 571 -124 551 -143 q 601 -78 590 -104 q 613 -22 613 -51 q 602 31 613 6 q 572 76 592 57 q 475 22 528 42 q 361 3 422 3 q 231 28 292 3 q 125 97 171 53 q 53 203 79 142 q 26 336 26 264 q 52 466 26 406 q 123 572 78 526 q 230 644 168 617 q 364 674 292 671 q 491 647 431 674 q 597 574 551 619 q 670 467 643 528 q 697 336 697 406 q 680 230 697 281 q 631 138 663 179 q 679 66 661 107 q 697 -22 697 25 q 679 -110 697 -69 q 631 -183 661 -151 q 558 -232 600 -214 q 469 -250 517 -250 l 286 -250 m 113 336 q 132 240 113 285 q 185 160 151 194 q 265 107 219 126 q 361 88 310 88 q 458 107 413 88 q 538 160 504 126 q 592 240 572 194 q 611 336 611 285 q 592 433 611 388 q 538 513 572 479 q 458 567 504 547 q 361 586 413 586 q 265 567 310 586 q 185 513 219 547 q 132 433 151 479 q 113 336 113 388 z "},"i":{"ha":164,"x_min":25,"x_max":139,"o":"m 39 631 q 51 661 39 649 q 82 674 64 674 q 113 661 100 674 q 125 631 125 649 l 125 43 q 113 13 125 25 q 82 0 100 0 q 51 13 64 0 q 39 43 39 25 l 39 631 m 25 824 q 42 864 25 847 q 82 881 58 881 q 122 864 106 881 q 139 824 139 847 q 122 783 139 800 q 82 767 106 767 q 42 783 58 767 q 25 824 25 800 z "},"j":{"ha":314,"x_min":0,"x_max":285,"o":"m 0 -208 q 13 -178 0 -190 q 43 -165 25 -165 q 117 -146 89 -164 q 160 -104 144 -128 q 180 -58 175 -81 q 185 -25 185 -36 l 185 625 q 197 656 185 643 q 228 668 210 668 q 258 656 246 668 q 271 625 271 643 l 271 -25 q 259 -94 271 -56 q 220 -168 247 -133 q 150 -226 193 -203 q 43 -251 107 -250 q 13 -239 25 -251 q 0 -208 0 -226 m 171 825 q 188 865 171 849 q 228 882 204 882 q 268 865 251 882 q 285 825 285 849 q 268 785 285 801 q 228 768 251 768 q 188 785 204 768 q 171 825 171 801 z "},"k":{"ha":500,"x_min":40,"x_max":489,"o":"m 126 297 l 126 43 q 114 13 126 25 q 83 0 101 0 q 53 13 65 0 q 40 43 40 25 l 40 854 q 53 885 40 872 q 83 897 65 897 q 114 885 101 897 q 126 854 126 872 l 126 382 l 414 672 q 444 685 426 685 q 475 672 463 685 q 488 642 488 660 q 475 611 488 624 l 206 340 l 476 74 q 489 43 489 61 q 476 13 489 25 q 446 0 464 0 q 415 13 428 0 l 126 297 z "},"l":{"ha":314,"x_min":40,"x_max":311,"o":"m 311 43 q 299 13 311 25 q 268 0 286 0 q 161 25 204 1 q 91 83 118 49 q 52 157 64 118 q 40 226 40 196 l 40 856 q 53 886 40 874 q 83 899 65 899 q 114 886 101 899 q 126 856 126 874 l 126 226 q 131 193 126 215 q 151 147 136 171 q 194 106 167 124 q 268 86 222 88 q 299 74 286 86 q 311 43 311 61 z "},"m":{"ha":906,"x_min":42,"x_max":864,"o":"m 410 446 q 366 547 407 507 q 268 588 325 588 q 213 576 239 588 q 169 546 188 565 q 139 501 150 526 q 128 446 128 475 l 128 43 q 115 13 128 25 q 85 0 103 0 q 54 13 67 0 q 42 43 42 25 l 42 446 q 59 535 42 493 q 107 607 76 576 q 179 656 138 638 q 268 674 221 674 q 374 648 326 674 q 451 579 421 622 q 531 648 483 622 q 636 674 578 674 q 725 656 683 674 q 797 607 767 638 q 846 535 828 576 q 864 446 864 493 l 864 43 q 851 13 864 25 q 821 0 839 0 q 790 13 803 0 q 778 43 778 25 l 778 446 q 767 501 778 475 q 736 546 756 526 q 691 576 717 565 q 636 588 665 588 q 581 576 607 588 q 537 546 556 565 q 507 501 518 526 q 496 446 496 475 l 496 43 q 483 13 496 25 q 453 0 471 0 q 422 13 435 0 q 410 43 410 25 l 410 446 z "},"n":{"ha":744,"x_min":38,"x_max":707,"o":"m 38 340 q 64 471 38 410 q 135 577 90 532 q 242 649 181 622 q 372 675 303 675 q 503 649 442 675 q 609 577 564 622 q 681 471 654 532 q 707 340 707 410 l 707 43 q 694 13 707 25 q 664 0 682 0 q 633 13 646 0 q 621 43 621 25 l 621 340 q 601 437 621 392 q 548 516 582 482 q 469 569 514 550 q 372 589 424 589 q 276 569 321 589 q 197 516 231 550 q 143 437 163 482 q 124 340 124 392 l 124 43 q 111 13 124 25 q 81 0 99 0 q 50 13 63 0 q 38 43 38 25 l 38 340 z "},"o":{"ha":732,"x_min":31,"x_max":701,"o":"m 368 672 q 495 645 435 672 q 601 572 556 618 q 674 465 647 526 q 701 335 701 404 q 675 206 701 267 q 603 100 649 146 q 497 28 558 54 q 365 1 436 1 q 235 26 296 1 q 129 96 175 51 q 57 201 83 140 q 31 335 31 263 q 56 465 31 404 q 127 570 82 525 q 234 642 172 615 q 368 672 296 669 m 117 335 q 136 238 117 283 q 190 159 156 193 q 269 106 224 125 q 365 86 314 86 q 463 106 417 86 q 542 159 508 125 q 596 238 576 193 q 615 335 615 283 q 596 432 615 386 q 542 512 576 478 q 463 565 508 546 q 365 585 417 585 q 269 565 314 585 q 190 512 224 546 q 136 432 156 478 q 117 335 117 386 z "},"p":{"ha":721,"x_min":40,"x_max":711,"o":"m 378 0 q 236 40 300 3 q 126 126 172 76 l 126 -208 q 114 -239 126 -226 q 83 -251 101 -251 q 53 -239 65 -251 q 40 -208 40 -226 l 40 338 q 67 471 40 410 q 139 576 93 532 q 245 646 185 621 q 375 671 306 671 q 507 644 446 671 q 613 572 568 618 q 685 466 658 526 q 711 338 711 406 q 684 207 711 268 q 611 100 657 146 q 505 27 565 54 q 378 0 444 0 m 126 338 q 149 238 128 283 q 203 158 169 192 q 281 106 236 125 q 375 88 325 88 q 472 107 426 88 q 552 160 518 126 q 606 240 586 194 q 625 338 625 286 q 606 434 625 389 q 552 513 586 479 q 472 567 518 547 q 375 586 426 586 q 278 567 324 586 q 199 513 233 547 q 146 434 165 479 q 126 338 126 389 z "},"q":{"ha":721,"x_min":10,"x_max":681,"o":"m 343 0 q 216 27 276 0 q 110 100 156 54 q 37 207 64 146 q 10 338 10 268 q 36 466 10 406 q 108 572 63 526 q 214 644 153 618 q 346 671 275 671 q 475 646 414 671 q 582 576 536 621 q 654 471 628 532 q 681 338 681 410 l 681 -208 q 668 -239 681 -226 q 638 -251 656 -251 q 607 -239 619 -251 q 594 -208 594 -226 l 594 126 q 485 40 549 76 q 343 0 421 3 m 594 338 q 575 434 594 389 q 522 513 556 479 q 442 567 488 547 q 346 586 397 586 q 249 567 294 586 q 169 513 203 547 q 115 434 135 479 q 96 338 96 389 q 115 240 96 286 q 169 160 135 194 q 249 107 203 126 q 346 88 294 88 q 440 106 396 88 q 518 158 485 125 q 572 238 551 192 q 594 338 592 283 z "},"r":{"ha":413,"x_min":32,"x_max":410,"o":"m 32 340 q 58 469 32 408 q 128 575 83 529 q 233 647 174 621 q 361 675 293 674 q 397 663 383 675 q 410 632 410 650 q 397 601 410 614 q 361 589 383 589 q 267 567 311 588 q 189 514 222 547 q 137 435 156 481 q 118 340 118 390 l 118 43 q 106 13 118 25 q 75 0 93 0 q 44 13 57 0 q 32 43 32 25 l 32 340 z "},"s":{"ha":604,"x_min":32,"x_max":574,"o":"m 46 43 q 58 74 46 61 q 89 86 71 86 l 389 86 q 458 115 429 86 q 488 185 488 144 q 458 254 488 225 q 389 283 429 283 l 226 283 q 151 299 186 283 q 89 340 115 314 q 47 402 63 367 q 32 478 32 438 q 47 554 32 518 q 89 617 63 590 q 151 658 115 643 q 226 674 186 674 l 510 674 q 540 661 528 674 q 553 631 553 649 q 540 600 553 613 q 510 588 528 588 l 226 588 q 150 554 182 586 q 118 478 118 522 q 150 401 118 433 q 226 369 182 369 l 389 369 q 460 355 426 369 q 519 315 494 340 q 559 256 544 290 q 574 185 574 222 q 559 113 574 147 q 519 54 544 79 q 460 15 494 29 q 389 0 426 0 l 89 0 q 58 13 71 0 q 46 43 46 25 z "},"t":{"ha":628,"x_min":39,"x_max":625,"o":"m 39 856 q 51 886 39 874 q 82 899 64 899 q 113 886 100 899 q 125 856 125 874 l 125 678 l 432 678 q 467 665 454 678 q 481 635 481 653 q 467 604 481 617 q 432 592 454 592 l 125 592 l 125 335 q 144 238 125 283 q 198 159 164 193 q 277 106 232 125 q 374 86 322 86 q 469 105 425 86 q 547 157 514 124 q 576 172 558 169 q 608 163 593 174 q 622 135 619 151 q 615 103 625 118 q 507 27 569 54 q 374 0 444 0 q 243 26 304 0 q 137 98 182 53 q 65 204 92 143 q 39 335 39 265 l 39 856 z "},"u":{"ha":744,"x_min":38,"x_max":707,"o":"m 38 632 q 50 663 38 650 q 81 675 63 675 q 111 663 99 675 q 124 632 124 650 l 124 335 q 143 238 124 283 q 197 159 163 193 q 276 106 231 125 q 372 86 321 86 q 469 106 424 86 q 548 159 514 125 q 601 238 582 193 q 621 335 621 283 l 621 632 q 633 663 621 650 q 664 675 646 675 q 694 663 682 675 q 707 632 707 650 l 707 335 q 681 204 707 265 q 609 98 654 143 q 503 26 564 53 q 372 0 442 0 q 242 26 303 0 q 135 98 181 53 q 64 204 90 143 q 38 335 38 265 l 38 632 z "},"w":{"ha":906,"x_min":42,"x_max":864,"o":"m 410 631 q 422 661 410 649 q 453 674 435 674 q 483 661 471 674 q 496 631 496 649 l 496 228 q 507 173 496 199 q 537 128 518 147 q 581 97 556 108 q 636 86 607 86 q 691 97 665 86 q 736 128 717 108 q 767 173 756 147 q 778 228 778 199 l 778 631 q 790 661 778 649 q 821 674 803 674 q 851 661 839 674 q 864 631 864 649 l 864 228 q 846 139 864 181 q 797 67 828 97 q 725 18 767 36 q 636 0 683 0 q 531 26 578 0 q 451 94 483 51 q 374 26 421 51 q 268 0 326 0 q 179 18 221 0 q 107 67 138 36 q 59 139 76 97 q 42 228 42 181 l 42 631 q 54 661 42 649 q 85 674 67 674 q 115 661 103 674 q 128 631 128 649 l 128 228 q 139 173 128 199 q 169 128 150 147 q 213 97 188 108 q 268 86 239 86 q 366 126 325 86 q 410 228 407 167 l 410 631 z "},"v":{"ha":597,"x_min":18,"x_max":581,"o":"m 25 611 q 25 646 18 628 q 47 671 32 664 q 81 669 64 678 q 103 647 97 661 l 296 156 l 496 647 q 521 669 506 663 q 551 669 536 676 q 574 646 568 663 q 574 614 581 629 q 562 585 572 611 q 525 495 551 560 q 454 319 499 431 q 342 35 410 207 q 326 10 336 19 q 296 0 315 0 q 265 12 276 0 q 249 35 253 24 q 147 304 189 194 q 77 482 104 414 q 38 580 50 550 q 25 611 25 610 z "},"x":{"ha":750,"x_min":42,"x_max":708,"o":"m 696 13 q 665 0 682 0 q 635 14 647 0 l 375 275 l 115 14 q 85 0 103 0 q 54 13 68 0 q 42 42 42 25 q 54 74 42 60 l 314 336 l 56 599 q 42 630 43 613 q 54 660 42 647 q 85 673 68 672 q 115 661 103 674 l 375 397 l 635 661 q 665 673 647 674 q 696 660 682 672 q 708 630 708 647 q 694 599 707 613 l 435 336 l 696 74 q 708 42 708 60 q 696 13 708 25 z "},"y":{"ha":728,"x_min":14,"x_max":683,"o":"m 683 -208 q 671 -239 683 -226 q 640 -251 658 -251 q 610 -239 622 -251 q 597 -208 597 -226 l 597 111 q 488 30 551 60 q 349 0 424 0 q 218 26 279 0 q 112 98 157 53 q 40 204 67 143 q 14 335 14 265 l 14 632 q 26 663 14 650 q 57 675 39 675 q 88 663 75 675 q 100 632 100 650 l 100 335 q 119 238 100 283 q 173 159 139 193 q 252 106 207 125 q 349 86 297 86 q 443 105 399 86 q 521 156 488 124 q 574 231 554 188 q 597 325 594 275 l 597 632 q 610 663 597 650 q 640 675 622 675 q 671 663 658 675 q 683 632 683 650 l 683 325 l 683 -208 z "},"z":{"ha":742,"x_min":35,"x_max":708,"o":"m 47 13 q 35 42 35 25 q 47 74 35 60 l 557 588 l 79 588 q 49 600 61 588 q 36 631 36 613 q 49 661 36 649 q 79 674 61 674 l 663 674 q 693 660 679 674 q 704 630 706 647 q 690 599 703 613 l 181 86 l 665 86 q 696 74 683 86 q 708 43 708 61 q 696 13 708 25 q 665 0 683 0 l 78 0 q 47 13 60 0 z "},"c":{"ha":644,"x_min":26,"x_max":613,"o":"m 536 517 q 457 566 501 547 q 361 585 413 585 q 265 565 310 585 q 185 512 219 546 q 132 432 151 478 q 113 335 113 386 q 132 238 113 283 q 185 159 151 193 q 265 106 219 125 q 361 86 310 86 q 457 105 413 86 q 536 157 501 124 q 567 169 549 169 q 597 157 585 169 q 609 126 610 144 q 593 92 608 107 q 559 63 581 79 q 508 33 538 47 q 441 10 478 19 q 361 1 404 1 q 231 26 292 1 q 125 96 171 51 q 53 201 79 140 q 26 335 26 263 q 52 465 26 404 q 123 570 78 525 q 230 642 168 615 q 364 672 292 669 q 441 662 406 672 q 505 637 476 651 q 556 606 533 622 q 592 576 578 589 q 606 551 600 569 q 597 517 613 532 q 567 504 585 504 q 536 517 549 504 z "},"a":{"ha":739,"x_min":31,"x_max":701,"o":"m 368 672 q 495 645 435 672 q 601 572 556 618 q 674 465 647 526 q 701 335 701 404 l 701 42 q 689 11 701 24 q 658 -1 676 -1 q 628 11 640 -1 q 615 42 615 24 l 615 126 q 505 38 569 75 q 365 1 440 1 q 235 26 296 1 q 129 96 175 51 q 57 201 83 140 q 31 335 31 263 q 56 465 31 404 q 127 570 82 525 q 234 642 172 615 q 368 672 296 669 m 117 335 q 136 238 117 283 q 190 159 156 193 q 269 106 224 125 q 365 86 314 86 q 460 105 415 86 q 538 157 504 124 q 592 235 572 190 q 615 335 613 281 q 596 432 615 386 q 542 512 576 478 q 463 565 508 546 q 365 585 417 585 q 269 565 314 585 q 190 512 224 546 q 136 432 156 478 q 117 335 117 386 z "},"d":{"ha":722,"x_min":11,"x_max":682,"o":"m 344 672 q 486 633 422 669 q 596 546 550 596 l 596 853 q 608 883 596 871 q 639 896 621 896 q 669 883 657 896 q 682 853 682 871 l 682 335 q 656 201 682 263 q 583 96 629 140 q 476 26 538 51 q 347 1 415 1 q 215 28 276 1 q 109 100 154 54 q 38 206 64 146 q 11 335 11 267 q 38 465 11 404 q 111 572 65 526 q 217 645 157 618 q 344 672 278 672 m 596 335 q 573 435 593 389 q 519 514 553 481 q 442 566 486 547 q 347 585 397 585 q 250 565 296 585 q 170 512 204 546 q 117 432 136 478 q 97 335 97 386 q 117 238 97 283 q 170 159 136 193 q 250 106 204 125 q 347 86 296 86 q 444 106 399 86 q 523 159 489 125 q 576 238 557 193 q 596 335 596 283 z "},"!":{"ha":163,"x_min":24,"x_max":138,"o":"m 38 854 q 50 885 38 872 q 81 897 63 897 q 111 885 99 897 q 124 854 124 872 l 124 315 q 111 285 124 297 q 81 272 99 272 q 50 285 63 272 q 38 315 38 297 l 38 854 m 24 57 q 40 97 24 81 q 81 114 57 114 q 121 97 104 114 q 138 57 138 81 q 121 17 138 33 q 81 0 104 0 q 40 17 57 0 q 24 57 24 33 z "},"\"":{"ha":369,"x_min":44,"x_max":325,"o":"m 44 882 q 57 913 44 900 q 88 925 69 925 q 118 913 106 925 q 131 882 131 900 l 131 668 q 118 639 131 653 q 88 625 106 625 q 57 638 69 625 q 44 668 44 650 l 44 882 m 239 882 q 251 913 239 900 q 282 925 264 925 q 313 913 300 925 q 325 882 325 900 l 325 668 q 313 639 325 653 q 282 625 300 625 q 251 638 264 625 q 239 668 239 650 l 239 882 z "},"$":{"ha":621,"x_min":15,"x_max":606,"o":"m 275 0 l 89 0 q 58 13 71 0 q 46 43 46 25 q 58 74 46 61 q 89 86 71 86 l 275 86 l 275 397 q 170 416 218 397 q 88 468 122 435 q 35 546 54 501 q 15 642 15 590 q 35 738 15 693 q 88 815 54 782 q 170 868 122 849 q 275 888 218 888 l 275 996 q 288 1026 275 1014 q 318 1039 300 1039 q 349 1026 336 1039 q 361 996 361 1014 l 361 888 l 546 888 q 576 875 564 888 q 589 844 589 863 q 576 815 589 826 q 546 803 564 803 l 361 803 l 361 485 q 457 466 413 485 q 535 414 501 447 q 587 336 568 381 q 606 242 606 292 q 587 147 606 192 q 535 70 568 103 q 457 19 501 38 q 361 0 413 0 l 361 -110 q 349 -140 361 -128 q 318 -153 336 -153 q 288 -140 300 -153 q 275 -110 275 -128 l 275 0 m 101 643 q 114 581 101 610 q 149 531 126 553 q 204 497 172 510 q 275 485 236 485 l 275 803 q 204 790 236 803 q 149 756 172 778 q 114 705 126 733 q 101 643 101 676 m 519 242 q 507 302 519 274 q 474 351 494 331 q 424 385 453 372 q 361 397 394 397 l 361 86 q 424 99 394 86 q 474 132 453 111 q 507 181 494 153 q 519 242 519 210 z "},"%":{"ha":868,"x_min":24,"x_max":846,"o":"m 529 865 q 549 891 533 882 q 582 896 565 900 q 607 874 599 889 q 611 842 615 858 l 332 29 q 310 4 325 13 q 278 0 294 -4 q 251 22 260 6 q 250 54 243 38 l 529 865 m 24 697 q 40 775 24 739 q 83 838 56 811 q 146 881 110 865 q 224 897 182 897 q 301 881 265 897 q 365 838 338 865 q 408 775 392 811 q 424 697 424 739 q 408 619 424 656 q 365 556 392 583 q 301 513 338 529 q 224 497 265 497 q 146 513 182 497 q 83 556 110 529 q 40 619 56 583 q 24 697 24 656 m 110 697 q 143 617 110 650 q 224 583 176 583 q 304 617 271 583 q 338 697 338 650 q 304 778 338 744 q 224 811 271 811 q 143 778 176 811 q 110 697 110 744 m 446 199 q 462 276 446 240 q 505 340 478 313 q 568 383 532 367 q 646 399 604 399 q 724 383 688 399 q 787 340 760 367 q 830 276 814 313 q 846 199 846 240 q 830 121 846 157 q 787 58 814 85 q 724 15 760 31 q 646 -1 688 -1 q 568 15 604 -1 q 505 58 532 31 q 462 121 478 85 q 446 199 446 157 m 532 199 q 565 118 532 151 q 646 85 599 85 q 726 118 693 85 q 760 199 760 151 q 726 279 760 246 q 646 313 693 313 q 565 279 599 313 q 532 199 532 246 z "},"&":{"ha":749,"x_min":35,"x_max":729,"o":"m 35 256 q 66 374 35 322 q 150 461 97 426 q 149 463 149 461 q 77 546 104 494 q 50 657 50 597 q 69 751 50 707 q 120 827 88 794 q 197 878 153 860 q 290 897 240 897 q 384 878 340 897 q 460 827 428 860 q 512 751 493 794 q 531 657 531 707 q 515 572 531 613 q 472 500 499 532 q 407 447 444 468 q 326 419 369 425 l 532 244 l 650 351 q 681 362 664 363 q 710 347 699 361 q 720 315 721 333 q 706 286 719 297 l 596 186 l 714 75 q 728 46 728 64 q 718 14 729 28 q 689 -1 707 0 q 657 10 671 -1 l 532 128 l 481 81 q 396 22 443 44 q 290 -1 349 -1 q 191 19 238 -1 q 110 74 144 39 q 55 156 75 108 q 35 256 35 203 m 138 657 q 149 598 138 625 q 181 550 160 571 q 229 517 201 529 q 290 504 257 506 q 350 516 322 504 q 399 549 378 528 q 431 597 419 569 q 443 657 443 625 q 431 717 443 689 q 399 765 419 744 q 350 798 378 786 q 290 810 322 810 q 231 798 258 810 q 182 765 203 786 q 149 717 161 744 q 138 657 138 689 m 218 401 q 147 343 174 381 q 119 256 119 306 q 133 189 119 219 q 169 135 146 158 q 224 98 193 111 q 290 85 254 85 q 374 111 333 85 q 468 186 415 138 l 218 401 z "},"'":{"ha":175,"x_min":43,"x_max":129,"o":"m 43 885 q 56 915 43 903 q 86 928 68 928 q 117 915 104 928 q 129 885 129 903 l 129 671 q 117 640 129 653 q 86 628 104 628 q 56 640 68 628 q 43 671 43 653 l 43 885 z "},"(":{"ha":472,"x_min":32,"x_max":458,"o":"m 415 808 q 292 788 347 808 q 199 734 238 768 q 139 654 160 700 q 118 557 118 608 l 118 86 q 139 -11 118 35 q 199 -91 160 -57 q 292 -145 238 -125 q 415 -165 347 -165 q 447 -177 435 -165 q 458 -208 458 -189 q 447 -240 458 -228 q 415 -253 435 -253 q 257 -226 328 -253 q 136 -154 186 -200 q 59 -47 86 -108 q 32 86 32 15 l 32 557 q 59 690 32 628 q 136 797 86 751 q 257 869 186 843 q 415 896 328 896 q 447 883 435 896 q 458 851 458 871 q 447 820 458 832 q 415 808 435 808 z "},")":{"ha":472,"x_min":14,"x_max":440,"o":"m 57 811 q 26 823 38 811 q 14 854 14 835 q 26 886 14 874 q 57 899 38 899 q 215 872 144 899 q 336 800 286 846 q 413 692 386 754 q 440 560 440 631 l 440 86 q 413 -47 440 15 q 336 -154 386 -108 q 215 -226 286 -200 q 57 -253 144 -253 q 26 -240 38 -253 q 14 -208 14 -228 q 26 -177 14 -189 q 57 -165 38 -165 q 180 -145 125 -165 q 274 -91 235 -125 q 333 -11 313 -57 q 354 86 354 35 l 354 560 q 333 657 354 611 q 274 737 313 703 q 180 791 235 771 q 57 811 125 811 z "},"*":{"ha":372,"x_min":19,"x_max":353,"o":"m 143 847 l 143 917 q 156 947 143 935 q 185 960 168 960 q 215 947 203 960 q 228 917 228 935 l 228 846 l 289 882 q 310 889 300 889 q 331 883 321 889 q 346 868 340 878 q 351 846 351 858 q 331 810 351 819 l 271 774 l 332 739 q 347 724 342 733 q 353 703 353 714 q 347 683 353 693 q 332 667 342 672 q 311 661 322 661 q 290 667 300 661 l 228 701 l 228 631 q 215 601 228 614 q 185 589 203 589 q 156 601 168 589 q 143 631 143 614 l 143 700 l 83 665 q 64 660 72 660 q 25 682 39 660 q 19 703 19 692 q 40 739 19 728 l 101 774 l 40 808 q 26 824 31 814 q 21 844 21 833 q 26 867 21 857 q 63 888 38 888 q 83 882 74 888 l 143 847 z "},"[":{"ha":322,"x_min":44,"x_max":315,"o":"m 44 854 q 57 885 44 872 q 88 897 69 897 l 272 897 q 303 885 290 897 q 315 854 315 872 q 303 824 315 836 q 272 811 290 811 l 131 811 l 131 -165 l 272 -165 q 303 -178 290 -165 q 315 -208 315 -190 q 303 -239 315 -226 q 272 -251 290 -251 l 88 -251 q 57 -239 69 -251 q 44 -208 44 -226 l 44 854 z "},"]":{"ha":324,"x_min":7,"x_max":278,"o":"m 278 -208 q 265 -239 278 -226 q 235 -251 253 -251 l 50 -251 q 19 -239 32 -251 q 7 -208 7 -226 q 19 -178 7 -190 q 50 -165 32 -165 l 192 -165 l 192 813 l 50 813 q 19 825 32 813 q 7 856 7 838 q 19 886 7 874 q 50 899 32 899 l 235 899 q 265 886 253 899 q 278 856 278 874 l 278 -208 z "},"+":{"ha":526,"x_min":6,"x_max":521,"o":"m 263 172 q 232 185 244 172 q 219 215 219 197 l 219 388 l 49 388 q 18 400 31 388 q 6 431 6 413 q 18 461 6 449 q 49 474 31 474 l 219 474 l 219 646 q 232 676 219 664 q 263 689 244 689 q 293 676 281 689 q 306 646 306 664 l 306 474 l 478 474 q 508 461 496 474 q 521 431 521 449 q 508 400 521 413 q 478 388 496 388 l 306 388 l 306 215 q 293 185 306 197 q 263 172 281 172 z "},",":{"ha":175,"x_min":43,"x_max":129,"o":"m 43 54 q 56 85 43 72 q 86 97 68 97 q 117 85 104 97 q 129 54 129 72 l 129 -160 q 117 -189 129 -175 q 86 -203 104 -203 q 56 -190 68 -203 q 43 -160 43 -178 l 43 54 z "},"-":{"ha":599,"x_min":43,"x_max":557,"o":"m 43 432 q 56 463 43 450 q 86 475 68 475 l 514 475 q 544 463 532 475 q 557 432 557 450 q 544 401 557 414 q 514 389 532 389 l 86 389 q 56 401 68 389 q 43 432 43 414 z "},".":{"ha":178,"x_min":32,"x_max":146,"o":"m 32 57 q 49 97 32 81 q 89 114 65 114 q 129 97 113 114 q 146 57 146 81 q 129 17 146 33 q 89 0 113 0 q 49 17 65 0 q 32 57 32 33 z "},"/":{"ha":374,"x_min":6,"x_max":368,"o":"m 281 867 q 302 892 286 883 q 335 894 318 900 q 360 872 351 888 q 363 840 368 857 l 94 29 q 72 4 88 13 q 40 1 57 -4 q 14 23 22 7 q 13 56 6 39 l 281 867 z "},"{":{"ha":556,"x_min":11,"x_max":536,"o":"m 11 350 q 24 381 11 368 q 54 393 36 393 l 132 393 l 132 564 q 156 695 132 635 q 224 801 179 756 q 336 872 269 846 q 490 897 403 897 q 522 885 510 897 q 533 853 533 872 q 522 822 533 833 q 490 810 510 810 q 371 791 422 810 q 285 739 319 772 q 235 660 251 706 q 218 564 218 615 l 218 79 q 235 -17 218 28 q 288 -94 253 -61 q 374 -145 322 -126 q 493 -164 425 -164 q 524 -176 513 -164 q 536 -207 536 -187 q 524 -239 536 -226 q 493 -251 513 -251 q 338 -226 406 -251 q 225 -157 271 -201 q 156 -52 179 -112 q 132 79 132 8 l 132 307 l 54 307 q 24 319 36 307 q 11 350 11 332 z "},"\\":{"ha":368,"x_min":6,"x_max":363,"o":"m 356 56 q 354 23 363 39 q 328 1 346 7 q 296 4 311 -4 q 274 29 281 13 l 11 840 q 14 872 6 857 q 39 894 22 888 q 72 892 56 900 q 93 867 88 883 l 356 56 z "},"|":{"ha":181,"x_min":44,"x_max":131,"o":"m 44 885 q 57 915 44 903 q 88 928 69 928 q 118 915 106 928 q 131 885 131 903 l 131 -178 q 118 -208 131 -196 q 88 -221 106 -221 q 57 -208 69 -221 q 44 -178 44 -196 l 44 885 z "},"}":{"ha":556,"x_min":19,"x_max":544,"o":"m 544 350 q 532 319 544 332 q 501 307 519 307 l 424 307 l 424 79 q 400 -52 424 8 q 331 -157 376 -112 q 217 -226 285 -201 q 63 -251 150 -251 q 31 -239 43 -251 q 19 -207 19 -226 q 31 -176 19 -187 q 63 -164 43 -164 q 182 -145 131 -164 q 268 -94 233 -126 q 320 -17 303 -61 q 338 79 338 28 l 338 564 q 321 660 338 615 q 270 739 304 706 q 185 791 236 772 q 65 810 133 810 q 34 822 46 810 q 22 853 22 833 q 34 885 22 872 q 65 897 46 897 q 219 872 153 897 q 331 801 286 846 q 400 695 376 756 q 424 564 424 635 l 424 393 l 501 393 q 532 381 519 393 q 544 350 544 368 z "},":":{"ha":183,"x_min":35,"x_max":149,"o":"m 35 57 q 51 97 35 81 q 92 114 68 114 q 132 97 115 114 q 149 57 149 81 q 132 17 149 33 q 92 0 115 0 q 51 17 68 0 q 35 57 35 33 m 35 603 q 51 643 35 626 q 92 660 68 660 q 132 643 115 660 q 149 603 149 626 q 132 563 149 579 q 92 546 115 546 q 51 563 68 546 q 35 603 35 579 z "},";":{"ha":158,"x_min":22,"x_max":136,"o":"m 22 615 q 39 656 22 639 q 79 672 56 672 q 119 656 103 672 q 136 615 136 639 q 119 575 136 592 q 79 558 103 558 q 39 575 56 558 q 22 615 22 592 m 35 54 q 47 85 35 72 q 78 97 60 97 q 108 85 96 97 q 121 54 121 72 l 121 -160 q 108 -189 121 -175 q 78 -203 96 -203 q 47 -190 60 -203 q 35 -160 35 -178 l 35 54 z "},"“":{"ha":525,"x_min":26,"x_max":499,"o":"m 147 860 q 173 881 156 876 q 206 876 190 886 q 226 851 221 868 q 224 818 231 833 l 110 619 q 84 599 101 604 q 51 603 67 594 q 31 630 36 614 q 35 661 26 646 l 147 860 m 415 860 q 441 881 424 876 q 474 876 458 886 q 494 851 489 868 q 492 818 499 833 l 378 619 q 352 599 369 604 q 319 603 335 594 q 299 630 304 614 q 303 661 294 646 l 415 860 z "},"”":{"ha":525,"x_min":26,"x_max":499,"o":"m 147 860 q 173 881 156 876 q 206 876 190 886 q 226 851 221 868 q 224 818 231 833 l 110 619 q 84 599 101 604 q 51 603 67 594 q 31 630 36 614 q 35 661 26 646 l 147 860 m 415 860 q 441 881 424 876 q 474 876 458 886 q 494 851 489 868 q 492 818 499 833 l 378 619 q 352 599 369 604 q 319 603 335 594 q 299 630 304 614 q 303 661 294 646 l 415 860 z "},"‚":{"ha":226,"x_min":11,"x_max":215,"o":"m 132 21 q 158 42 140 38 q 190 38 175 47 q 210 12 206 29 q 208 -21 215 -6 l 94 -219 q 69 -240 86 -235 q 36 -236 51 -244 q 16 -209 21 -225 q 19 -178 11 -193 l 132 21 z "},"„":{"ha":525,"x_min":26,"x_max":499,"o":"m 147 21 q 173 42 156 38 q 206 38 190 47 q 226 12 221 29 q 224 -21 231 -6 l 110 -219 q 84 -240 101 -235 q 51 -236 67 -244 q 31 -209 36 -225 q 35 -178 26 -193 l 147 21 m 415 21 q 441 42 424 38 q 474 38 458 47 q 494 12 489 29 q 492 -21 499 -6 l 378 -219 q 352 -240 369 -235 q 319 -236 335 -244 q 299 -209 304 -225 q 303 -178 294 -193 l 415 21 z "},"`":{"ha":308,"x_min":11,"x_max":297,"o":"m 275 828 q 293 802 289 818 q 290 769 297 786 q 263 749 279 753 q 231 754 246 746 l 33 869 q 15 897 18 881 q 19 929 11 914 q 45 949 28 944 q 78 943 63 954 l 275 828 z "},"à":{"ha":810,"x_min":31,"x_max":701,"o":"m 368 672 q 495 645 435 672 q 601 572 556 618 q 674 465 647 526 q 701 335 701 404 l 701 42 q 689 11 701 24 q 658 -1 676 -1 q 628 11 640 -1 q 615 42 615 24 l 615 126 q 505 38 569 75 q 365 1 440 1 q 235 26 296 1 q 129 96 175 51 q 57 201 83 140 q 31 335 31 263 q 56 465 31 404 q 127 570 82 525 q 234 642 172 615 q 368 672 296 669 m 117 335 q 136 238 117 283 q 190 159 156 193 q 269 106 224 125 q 365 86 314 86 q 460 105 415 86 q 538 157 504 124 q 592 235 572 190 q 615 335 613 281 q 596 432 615 386 q 542 512 576 478 q 463 565 508 546 q 365 585 417 585 q 269 565 314 585 q 190 512 224 546 q 136 432 156 478 q 117 335 117 386 m 413 836 q 431 810 426 826 q 428 778 435 794 q 400 758 417 761 q 368 763 383 754 l 171 878 q 152 906 156 889 q 157 938 149 922 q 183 958 165 953 q 215 951 200 963 l 413 836 z "},"´":{"ha":308,"x_min":13,"x_max":299,"o":"m 232 943 q 265 949 247 954 q 290 929 282 944 q 295 897 299 914 q 276 869 292 881 l 79 754 q 47 749 64 746 q 19 769 31 753 q 17 802 13 786 q 35 828 21 818 l 232 943 z "},"á":{"ha":810,"x_min":31,"x_max":701,"o":"m 368 672 q 495 645 435 672 q 601 572 556 618 q 674 465 647 526 q 701 335 701 404 l 701 42 q 689 11 701 24 q 658 -1 676 -1 q 628 11 640 -1 q 615 42 615 24 l 615 126 q 505 38 569 75 q 365 1 440 1 q 235 26 296 1 q 129 96 175 51 q 57 201 83 140 q 31 335 31 263 q 56 465 31 404 q 127 570 82 525 q 234 642 172 615 q 368 672 296 669 m 117 335 q 136 238 117 283 q 190 159 156 193 q 269 106 224 125 q 365 86 314 86 q 460 105 415 86 q 538 157 504 124 q 592 235 572 190 q 615 335 613 281 q 596 432 615 386 q 542 512 576 478 q 463 565 508 546 q 365 585 417 585 q 269 565 314 585 q 190 512 224 546 q 136 432 156 478 q 117 335 117 386 m 476 954 q 509 960 492 965 q 535 940 526 956 q 540 908 543 925 q 521 881 536 892 l 324 765 q 292 760 308 757 q 264 781 275 764 q 261 813 257 797 q 279 839 265 829 l 476 954 z "},"?":{"ha":572,"x_min":17,"x_max":561,"o":"m 160 390 q 173 426 160 413 q 208 439 186 439 l 289 439 q 362 453 328 439 q 421 493 396 468 q 460 551 446 518 q 475 624 475 585 q 460 697 475 663 q 421 756 446 731 q 362 795 396 781 q 289 810 328 810 q 218 795 251 810 q 160 756 185 781 q 120 697 135 731 q 104 624 106 663 q 92 592 104 604 q 60 581 79 581 q 28 592 40 581 q 17 624 17 604 q 38 731 17 681 q 97 817 60 781 q 183 876 133 854 q 289 897 232 897 q 394 876 344 897 q 481 817 444 854 q 540 731 518 781 q 561 625 561 681 q 540 519 561 568 q 481 433 518 469 q 394 374 444 396 q 289 353 344 353 l 246 353 l 246 288 q 233 252 246 265 q 203 239 221 239 q 172 252 185 239 q 160 288 160 265 l 160 390 m 146 57 q 163 97 146 81 q 203 114 179 114 q 243 97 226 114 q 260 57 260 81 q 243 17 260 33 q 203 0 226 0 q 163 17 179 0 q 146 57 146 33 z "},"A":{"ha":726,"x_min":40,"x_max":686,"o":"m 600 286 l 126 286 l 126 43 q 114 13 126 25 q 83 0 101 0 q 53 13 65 0 q 40 43 40 25 l 40 574 q 65 699 40 640 q 134 802 90 758 q 237 872 178 846 q 363 897 296 897 q 488 872 429 897 q 591 802 547 846 q 660 699 635 758 q 686 574 686 640 l 686 43 q 674 13 686 25 q 643 0 661 0 q 613 13 625 0 q 600 43 600 25 l 600 286 m 126 372 l 600 372 l 600 574 q 581 665 600 622 q 530 741 563 708 q 454 792 497 774 q 363 811 411 811 q 271 792 314 811 q 196 741 228 774 q 145 665 164 708 q 126 574 126 622 l 126 372 z "},"B":{"ha":681,"x_min":44,"x_max":646,"o":"m 44 853 q 57 883 44 871 q 88 896 69 896 l 403 896 q 494 877 451 896 q 570 826 538 858 q 622 750 603 793 q 640 658 640 707 q 612 543 640 596 q 536 458 583 490 q 615 369 585 425 q 646 249 646 314 q 627 153 646 197 q 575 74 608 108 q 497 21 542 40 q 403 0 453 1 l 88 0 q 57 13 69 0 q 44 43 44 25 l 44 853 m 131 86 l 403 86 q 463 99 435 86 q 513 135 492 113 q 546 187 533 157 q 558 249 558 217 q 518 354 558 307 q 403 414 478 401 l 131 414 l 131 86 m 558 657 q 546 715 558 688 q 512 764 533 743 q 462 797 490 785 q 403 810 433 810 l 131 810 l 131 506 l 407 506 q 465 519 438 507 q 514 551 493 531 q 547 598 535 571 q 558 657 558 625 z "},"=":{"ha":582,"x_min":43,"x_max":539,"o":"m 43 204 q 56 235 43 222 q 86 247 68 247 l 496 247 q 526 235 514 247 q 539 204 539 222 q 526 174 539 186 q 496 161 514 161 l 86 161 q 56 174 68 161 q 43 204 43 186 m 43 488 q 56 518 43 506 q 86 531 68 531 l 496 531 q 526 518 514 531 q 539 488 539 506 q 526 457 539 469 q 496 444 514 444 l 86 444 q 56 457 68 444 q 43 488 43 469 z "},"<":{"ha":475,"x_min":4,"x_max":436,"o":"m 406 204 q 428 181 421 197 q 428 146 436 164 q 403 126 421 131 q 369 129 385 121 l 18 317 l 17 318 q 4 349 4 331 q 17 379 4 367 l 369 568 q 401 573 385 576 q 426 557 418 569 q 432 524 436 542 q 413 499 428 507 l 110 349 l 406 204 z "},">":{"ha":475,"x_min":39,"x_max":471,"o":"m 365 349 l 63 499 q 43 524 47 507 q 49 557 39 542 q 74 573 57 569 q 106 568 90 576 l 458 379 q 471 349 471 367 q 458 318 471 331 l 457 317 l 106 129 q 72 126 90 121 q 47 146 54 131 q 47 181 39 164 q 69 204 54 197 l 365 349 z "},"ˆ":{"ha":543,"x_min":21,"x_max":522,"o":"m 271 1089 l 94 908 q 64 896 82 896 q 33 908 46 896 q 21 939 21 921 q 33 969 21 957 l 240 1182 q 271 1194 253 1194 q 301 1182 289 1194 l 303 1181 l 510 972 q 522 942 522 960 q 510 911 522 924 q 479 899 497 899 q 449 911 461 899 l 271 1089 z "},"˜":{"ha":622,"x_min":32,"x_max":589,"o":"m 47 728 q 32 757 32 739 q 44 788 32 775 q 77 825 58 806 q 117 860 96 844 q 161 887 138 876 q 210 897 185 897 q 267 881 239 897 q 323 844 296 864 q 374 807 350 824 q 417 790 397 790 q 447 799 432 790 q 475 821 463 808 q 497 847 488 833 q 513 869 507 860 q 538 888 522 883 q 567 883 553 892 q 585 858 582 874 q 581 828 589 842 q 553 784 569 806 q 515 746 536 763 q 468 719 493 729 q 417 710 443 710 q 361 726 388 710 q 309 763 335 743 q 259 799 283 782 q 210 815 235 815 q 178 807 193 815 q 149 786 163 799 q 124 760 135 774 q 103 735 113 746 q 77 719 93 721 q 47 728 61 717 z "},"¡":{"ha":225,"x_min":24,"x_max":138,"o":"m 38 -151 q 50 -182 38 -169 q 81 -194 63 -194 q 111 -182 99 -194 q 124 -151 124 -169 l 124 388 q 111 418 124 406 q 81 431 99 431 q 50 418 63 431 q 38 388 38 406 l 38 -151 m 24 646 q 40 606 24 622 q 81 589 57 589 q 121 606 104 589 q 138 646 138 622 q 121 686 138 669 q 81 703 104 703 q 40 686 57 703 q 24 646 24 669 z "},"¿":{"ha":683,"x_min":122,"x_max":667,"o":"m 524 283 q 510 248 524 261 q 475 235 497 235 l 395 235 q 322 220 356 235 q 263 181 288 206 q 223 122 238 156 q 208 50 208 89 q 223 -23 208 11 q 263 -82 238 -57 q 322 -121 288 -107 q 395 -136 356 -136 q 465 -121 432 -136 q 524 -82 499 -107 q 563 -23 549 -57 q 579 50 578 11 q 592 81 579 70 q 624 93 604 93 q 655 81 643 93 q 667 50 667 70 q 645 -57 667 -7 q 587 -144 624 -107 q 501 -202 550 -180 q 395 -223 451 -223 q 289 -202 339 -223 q 202 -144 239 -180 q 144 -57 165 -107 q 122 49 122 -7 q 144 155 122 106 q 202 241 165 204 q 289 299 239 278 q 395 321 339 321 l 438 321 l 438 386 q 450 422 438 408 q 481 435 463 435 q 511 422 499 435 q 524 386 524 408 l 524 283 m 538 617 q 521 576 538 593 q 481 560 504 560 q 440 576 457 560 q 424 617 424 593 q 440 657 424 640 q 481 674 457 674 q 521 657 504 674 q 538 617 538 640 z "},"â":{"ha":810,"x_min":31,"x_max":701,"o":"m 368 675 q 495 648 435 675 q 601 575 556 621 q 674 468 647 529 q 701 338 701 407 l 701 44 q 689 14 701 26 q 658 1 676 1 q 628 14 640 1 q 615 44 615 26 l 615 129 q 505 41 569 78 q 365 4 440 4 q 235 29 296 4 q 129 99 175 54 q 57 204 83 143 q 31 338 31 265 q 56 467 31 407 q 127 573 82 528 q 234 645 172 618 q 368 675 296 672 m 117 338 q 136 241 117 286 q 190 162 156 196 q 269 108 224 128 q 365 89 314 89 q 460 108 415 89 q 538 160 504 126 q 592 238 572 193 q 615 338 613 283 q 596 435 615 389 q 542 515 576 481 q 463 568 508 549 q 365 588 417 588 q 269 568 314 588 q 190 515 224 549 q 136 435 156 481 q 117 338 117 389 m 361 917 l 185 736 q 154 724 172 724 q 124 736 136 724 q 111 767 111 749 q 124 797 111 785 l 331 1010 q 361 1022 343 1022 q 392 1010 379 1022 l 393 1008 l 600 800 q 613 769 613 788 q 600 739 613 751 q 569 726 588 726 q 539 739 551 726 l 361 917 z "},"ã":{"ha":746,"x_min":31,"x_max":701,"o":"m 368 672 q 495 645 435 672 q 601 572 556 618 q 674 465 647 526 q 701 335 701 404 l 701 42 q 689 11 701 24 q 658 -1 676 -1 q 628 11 640 -1 q 615 42 615 24 l 615 126 q 505 38 569 75 q 365 1 440 1 q 235 26 296 1 q 129 96 175 51 q 57 201 83 140 q 31 335 31 263 q 56 465 31 404 q 127 570 82 525 q 234 642 172 615 q 368 672 296 669 m 117 335 q 136 238 117 283 q 190 159 156 193 q 269 106 224 125 q 365 86 314 86 q 460 105 415 86 q 538 157 504 124 q 592 235 572 190 q 615 335 613 281 q 596 432 615 386 q 542 512 576 478 q 463 565 508 546 q 365 585 417 585 q 269 565 314 585 q 190 512 224 546 q 136 432 156 478 q 117 335 117 386 m 110 772 q 94 801 94 783 q 107 832 94 819 q 140 869 121 850 q 179 905 158 889 q 224 931 200 921 q 272 942 247 942 q 330 925 301 942 q 385 888 358 908 q 436 851 413 868 q 479 835 460 835 q 510 844 494 835 q 538 865 525 853 q 560 891 550 878 q 575 914 569 904 q 600 932 585 928 q 629 928 615 936 q 648 902 644 918 q 643 872 651 886 q 615 828 632 850 q 577 790 599 807 q 531 764 556 774 q 479 754 506 754 q 424 771 450 754 q 372 807 397 788 q 322 843 346 826 q 272 860 297 860 q 240 851 256 860 q 211 831 225 843 q 186 804 197 818 q 165 779 175 790 q 140 763 156 765 q 110 772 124 761 z "},"¨":{"ha":511,"x_min":40,"x_max":471,"o":"m 40 931 q 57 971 40 954 q 97 988 74 988 q 138 971 121 988 q 154 931 154 954 q 138 890 154 907 q 97 874 121 874 q 57 890 74 874 q 40 931 40 907 m 357 931 q 374 971 357 954 q 414 988 390 988 q 454 971 438 988 q 471 931 471 954 q 454 890 471 907 q 414 874 438 874 q 374 890 390 874 q 357 931 357 907 z "},"ë":{"ha":746,"x_min":31,"x_max":704,"o":"m 119 294 q 149 212 126 250 q 203 146 171 174 q 278 102 236 118 q 365 86 319 86 q 461 105 417 86 q 540 157 506 124 q 571 169 553 169 q 601 157 589 169 q 614 126 614 144 q 601 96 614 108 q 498 23 556 44 q 365 1 440 1 q 235 26 296 1 q 129 96 175 51 q 57 201 83 140 q 31 335 31 263 q 56 465 31 404 q 127 570 82 525 q 234 642 172 615 q 368 672 296 669 q 494 646 435 672 q 599 575 553 619 q 672 471 644 531 q 701 343 699 411 q 690 307 704 319 q 658 294 675 294 l 119 294 m 365 585 q 278 569 319 585 q 205 526 238 553 q 151 461 172 499 q 121 381 129 424 l 611 381 q 581 461 603 424 q 526 526 558 499 q 452 569 493 553 q 365 585 411 585 m 157 853 q 174 893 157 876 q 214 910 190 910 q 254 893 238 910 q 271 853 271 876 q 254 813 271 829 q 214 796 238 796 q 174 813 190 796 q 157 853 157 829 m 474 853 q 490 893 474 876 q 531 910 507 910 q 571 893 554 910 q 588 853 588 876 q 571 813 588 829 q 531 796 554 796 q 490 813 507 796 q 474 853 474 829 z "},"í":{"ha":360,"x_min":3,"x_max":289,"o":"m 44 622 q 57 653 44 640 q 88 665 69 665 q 118 653 106 665 q 131 622 131 640 l 131 43 q 118 13 131 25 q 88 0 106 0 q 57 13 69 0 q 44 43 44 25 l 44 622 m 222 953 q 255 959 238 964 q 281 939 272 954 q 285 907 289 924 q 267 879 282 890 l 69 764 q 38 759 54 756 q 10 779 21 763 q 7 812 3 796 q 25 838 11 828 l 222 953 z "},"ò":{"ha":810,"x_min":31,"x_max":701,"o":"m 368 672 q 495 645 435 672 q 601 572 556 618 q 674 465 647 526 q 701 335 701 404 q 675 206 701 267 q 603 100 649 146 q 497 28 558 54 q 365 1 436 1 q 235 26 296 1 q 129 96 175 51 q 57 201 83 140 q 31 335 31 263 q 56 465 31 404 q 127 570 82 525 q 234 642 172 615 q 368 672 296 669 m 117 335 q 136 238 117 283 q 190 159 156 193 q 269 106 224 125 q 365 86 314 86 q 463 106 417 86 q 542 159 508 125 q 596 238 576 193 q 615 335 615 283 q 596 432 615 386 q 542 512 576 478 q 463 565 508 546 q 365 585 417 585 q 269 565 314 585 q 190 512 224 546 q 136 432 156 478 q 117 335 117 386 m 369 840 q 388 815 383 831 q 385 782 392 799 q 357 762 374 765 q 325 767 340 758 l 128 882 q 109 910 113 893 q 114 942 106 926 q 140 962 122 957 q 172 956 157 967 l 369 840 z "},"ó":{"ha":810,"x_min":31,"x_max":701,"o":"m 368 672 q 495 645 435 672 q 601 572 556 618 q 674 465 647 526 q 701 335 701 404 q 675 206 701 267 q 603 100 649 146 q 497 28 558 54 q 365 1 436 1 q 235 26 296 1 q 129 96 175 51 q 57 201 83 140 q 31 335 31 263 q 56 465 31 404 q 127 570 82 525 q 234 642 172 615 q 368 672 296 669 m 117 335 q 136 238 117 283 q 190 159 156 193 q 269 106 224 125 q 365 86 314 86 q 463 106 417 86 q 542 159 508 125 q 596 238 576 193 q 615 335 615 283 q 596 432 615 386 q 542 512 576 478 q 463 565 508 546 q 365 585 417 585 q 269 565 314 585 q 190 512 224 546 q 136 432 156 478 q 117 335 117 386 m 496 953 q 528 959 511 964 q 554 939 546 954 q 559 907 563 924 q 540 879 556 890 l 343 764 q 311 759 328 756 q 283 779 294 763 q 281 812 276 796 q 299 838 285 828 l 496 953 z "},"ô":{"ha":810,"x_min":31,"x_max":701,"o":"m 368 672 q 495 645 435 672 q 601 572 556 618 q 674 465 647 526 q 701 335 701 404 q 675 206 701 267 q 603 100 649 146 q 497 28 558 54 q 365 1 436 1 q 235 26 296 1 q 129 96 175 51 q 57 201 83 140 q 31 335 31 263 q 56 465 31 404 q 127 570 82 525 q 234 642 172 615 q 368 672 296 669 m 117 335 q 136 238 117 283 q 190 159 156 193 q 269 106 224 125 q 365 86 314 86 q 463 106 417 86 q 542 159 508 125 q 596 238 576 193 q 615 335 615 283 q 596 432 615 386 q 542 512 576 478 q 463 565 508 546 q 365 585 417 585 q 269 565 314 585 q 190 512 224 546 q 136 432 156 478 q 117 335 117 386 m 354 918 l 178 738 q 147 725 165 725 q 117 738 129 725 q 104 768 104 750 q 117 799 104 786 l 324 1011 q 354 1024 336 1024 q 385 1011 372 1024 l 386 1010 l 593 801 q 606 771 606 789 q 593 740 606 753 q 563 728 581 728 q 532 740 544 728 l 354 918 z "},"õ":{"ha":854,"x_min":31,"x_max":701,"o":"m 368 672 q 495 645 435 672 q 601 572 556 618 q 674 465 647 526 q 701 335 701 404 q 675 206 701 267 q 603 100 649 146 q 497 28 558 54 q 365 1 436 1 q 235 26 296 1 q 129 96 175 51 q 57 201 83 140 q 31 335 31 263 q 56 465 31 404 q 127 570 82 525 q 234 642 172 615 q 368 672 296 669 m 117 335 q 136 238 117 283 q 190 159 156 193 q 269 106 224 125 q 365 86 314 86 q 463 106 417 86 q 542 159 508 125 q 596 238 576 193 q 615 335 615 283 q 596 432 615 386 q 542 512 576 478 q 463 565 508 546 q 365 585 417 585 q 269 565 314 585 q 190 512 224 546 q 136 432 156 478 q 117 335 117 386 m 103 775 q 88 804 88 786 q 100 835 88 822 q 133 872 114 853 q 172 908 151 892 q 217 934 193 924 q 265 944 240 944 q 323 928 294 944 q 378 891 351 911 q 429 854 406 871 q 472 838 453 838 q 503 847 488 838 q 531 868 518 856 q 553 894 543 881 q 568 917 563 907 q 593 935 578 931 q 622 931 608 939 q 641 905 638 921 q 636 875 644 889 q 608 831 625 853 q 570 793 592 810 q 524 767 549 776 q 472 757 499 757 q 417 774 443 757 q 365 810 390 790 q 315 846 339 829 q 265 863 290 863 q 233 854 249 863 q 204 833 218 846 q 179 807 190 821 q 158 782 168 793 q 133 766 149 768 q 103 775 117 764 z "},"ö":{"ha":810,"x_min":31,"x_max":701,"o":"m 368 672 q 495 645 435 672 q 601 572 556 618 q 674 465 647 526 q 701 335 701 404 q 675 206 701 267 q 603 100 649 146 q 497 28 558 54 q 365 1 436 1 q 235 26 296 1 q 129 96 175 51 q 57 201 83 140 q 31 335 31 263 q 56 465 31 404 q 127 570 82 525 q 234 642 172 615 q 368 672 296 669 m 117 335 q 136 238 117 283 q 190 159 156 193 q 269 106 224 125 q 365 86 314 86 q 463 106 417 86 q 542 159 508 125 q 596 238 576 193 q 615 335 615 283 q 596 432 615 386 q 542 512 576 478 q 463 565 508 546 q 365 585 417 585 q 269 565 314 585 q 190 512 224 546 q 136 432 156 478 q 117 335 117 386 m 149 853 q 165 893 149 876 q 206 910 182 910 q 246 893 229 910 q 263 853 263 876 q 246 813 263 829 q 206 796 229 796 q 165 813 182 796 q 149 853 149 829 m 465 853 q 482 893 465 876 q 522 910 499 910 q 563 893 546 910 q 579 853 579 876 q 563 813 579 829 q 522 796 546 796 q 482 813 499 796 q 465 853 465 829 z "},"ù":{"ha":808,"x_min":38,"x_max":707,"o":"m 38 632 q 50 663 38 650 q 81 675 63 675 q 111 663 99 675 q 124 632 124 650 l 124 335 q 143 238 124 283 q 197 159 163 193 q 276 106 231 125 q 372 86 321 86 q 469 106 424 86 q 548 159 514 125 q 601 238 582 193 q 621 335 621 283 l 621 632 q 633 663 621 650 q 664 675 646 675 q 694 663 682 675 q 707 632 707 650 l 707 335 q 681 204 707 265 q 609 98 654 143 q 503 26 564 53 q 372 0 442 0 q 242 26 303 0 q 135 98 181 53 q 64 204 90 143 q 38 335 38 265 l 38 632 m 389 839 q 407 813 403 829 q 404 781 411 797 q 376 760 393 764 q 344 765 360 757 l 147 881 q 128 908 132 892 q 133 940 125 925 q 159 960 142 956 q 192 954 176 965 l 389 839 z "},"ú":{"ha":808,"x_min":38,"x_max":707,"o":"m 38 632 q 50 663 38 650 q 81 675 63 675 q 111 663 99 675 q 124 632 124 650 l 124 335 q 143 238 124 283 q 197 159 163 193 q 276 106 231 125 q 372 86 321 86 q 469 106 424 86 q 548 159 514 125 q 601 238 582 193 q 621 335 621 283 l 621 632 q 633 663 621 650 q 664 675 646 675 q 694 663 682 675 q 707 632 707 650 l 707 335 q 681 204 707 265 q 609 98 654 143 q 503 26 564 53 q 372 0 442 0 q 242 26 303 0 q 135 98 181 53 q 64 204 90 143 q 38 335 38 265 l 38 632 m 492 953 q 524 959 507 964 q 550 939 542 954 q 555 907 558 924 q 536 879 551 890 l 339 764 q 307 759 324 756 q 279 779 290 763 q 276 812 272 796 q 294 838 281 828 l 492 953 z "},"û":{"ha":808,"x_min":38,"x_max":707,"o":"m 38 632 q 50 663 38 650 q 81 675 63 675 q 111 663 99 675 q 124 632 124 650 l 124 335 q 143 238 124 283 q 197 159 163 193 q 276 106 231 125 q 372 86 321 86 q 469 106 424 86 q 548 159 514 125 q 601 238 582 193 q 621 335 621 283 l 621 632 q 633 663 621 650 q 664 675 646 675 q 694 663 682 675 q 707 632 707 650 l 707 335 q 681 204 707 265 q 609 98 654 143 q 503 26 564 53 q 372 0 442 0 q 242 26 303 0 q 135 98 181 53 q 64 204 90 143 q 38 335 38 265 l 38 632 m 369 915 l 193 735 q 163 722 181 722 q 132 735 144 722 q 119 765 119 747 q 132 796 119 783 l 339 1008 q 369 1021 351 1021 q 400 1008 388 1021 l 401 1007 l 608 799 q 621 768 621 786 q 608 738 621 750 q 578 725 596 725 q 547 738 560 725 l 369 915 z "},"ü":{"ha":808,"x_min":38,"x_max":707,"o":"m 38 632 q 50 663 38 650 q 81 675 63 675 q 111 663 99 675 q 124 632 124 650 l 124 335 q 143 238 124 283 q 197 159 163 193 q 276 106 231 125 q 372 86 321 86 q 469 106 424 86 q 548 159 514 125 q 601 238 582 193 q 621 335 621 283 l 621 632 q 633 663 621 650 q 664 675 646 675 q 694 663 682 675 q 707 632 707 650 l 707 335 q 681 204 707 265 q 609 98 654 143 q 503 26 564 53 q 372 0 442 0 q 242 26 303 0 q 135 98 181 53 q 64 204 90 143 q 38 335 38 265 l 38 632 m 153 853 q 169 893 153 876 q 210 910 186 910 q 250 893 233 910 q 267 853 267 876 q 250 813 267 829 q 210 796 233 796 q 169 813 186 796 q 153 853 153 829 m 469 853 q 486 893 469 876 q 526 910 503 910 q 567 893 550 910 q 583 853 583 876 q 567 813 583 829 q 526 796 550 796 q 486 813 503 796 q 469 853 469 829 z "},"ý":{"ha":808,"x_min":14,"x_max":683,"o":"m 683 -208 q 671 -239 683 -226 q 640 -251 658 -251 q 610 -239 622 -251 q 597 -208 597 -226 l 597 111 q 488 30 551 60 q 349 0 424 0 q 218 26 279 0 q 112 98 157 53 q 40 204 67 143 q 14 335 14 265 l 14 632 q 26 663 14 650 q 57 675 39 675 q 88 663 75 675 q 100 632 100 650 l 100 335 q 119 238 100 283 q 173 159 139 193 q 252 106 207 125 q 349 86 297 86 q 443 105 399 86 q 521 156 488 124 q 574 231 554 188 q 597 325 594 275 l 597 632 q 610 663 597 650 q 640 675 622 675 q 671 663 658 675 q 683 632 683 650 l 683 325 l 683 -208 m 458 954 q 491 960 474 965 q 517 940 508 956 q 522 908 525 925 q 503 881 518 892 l 306 765 q 274 760 290 757 q 246 781 257 764 q 243 813 239 797 q 261 839 247 829 l 458 954 z "},"ÿ":{"ha":808,"x_min":14,"x_max":683,"o":"m 683 -208 q 671 -239 683 -226 q 640 -251 658 -251 q 610 -239 622 -251 q 597 -208 597 -226 l 597 111 q 488 30 551 60 q 349 0 424 0 q 218 26 279 0 q 112 98 157 53 q 40 204 67 143 q 14 335 14 265 l 14 632 q 26 663 14 650 q 57 675 39 675 q 88 663 75 675 q 100 632 100 650 l 100 335 q 119 238 100 283 q 173 159 139 193 q 252 106 207 125 q 349 86 297 86 q 443 105 399 86 q 521 156 488 124 q 574 231 554 188 q 597 325 594 275 l 597 632 q 610 663 597 650 q 640 675 622 675 q 671 663 658 675 q 683 632 683 650 l 683 325 l 683 -208 m 131 850 q 147 890 131 874 q 188 907 164 907 q 228 890 211 907 q 244 850 244 874 q 228 810 244 826 q 188 793 211 793 q 147 810 164 793 q 131 850 131 826 m 447 850 q 464 890 447 874 q 504 907 481 907 q 544 890 528 907 q 561 850 561 874 q 544 810 561 826 q 504 793 528 793 q 464 810 481 793 q 447 850 447 826 z "},"C":{"ha":674,"x_min":35,"x_max":646,"o":"m 121 322 q 140 231 121 274 q 190 156 158 188 q 265 105 222 124 q 357 86 308 86 q 478 119 424 86 q 563 204 532 151 q 590 224 572 219 q 622 219 607 228 q 642 192 638 210 q 636 157 646 174 q 520 43 594 86 q 357 0 446 0 q 231 25 290 0 q 128 94 172 50 q 60 197 85 138 q 35 322 35 256 l 35 574 q 60 699 35 640 q 128 802 85 758 q 231 872 172 846 q 357 897 290 897 q 520 853 446 897 q 636 736 594 808 q 641 703 644 721 q 622 675 638 685 q 590 671 607 667 q 561 692 572 675 q 476 778 531 744 q 357 811 422 811 q 265 792 308 811 q 190 741 222 774 q 140 665 158 708 q 121 574 121 622 l 121 322 z "},"D":{"ha":717,"x_min":44,"x_max":679,"o":"m 88 0 q 57 13 69 0 q 44 43 44 25 l 44 853 q 57 883 44 871 q 88 896 69 896 l 379 897 q 502 876 447 897 q 597 815 557 854 q 658 722 636 776 q 679 600 679 667 l 679 297 q 658 176 679 231 q 597 82 636 121 q 503 22 558 43 q 381 0 449 0 l 88 0 m 131 86 l 381 86 q 537 142 481 86 q 593 297 593 199 l 593 600 q 538 755 593 699 q 379 811 482 811 l 131 811 l 131 86 z "},"E":{"ha":633,"x_min":44,"x_max":622,"o":"m 44 853 q 57 883 44 871 q 88 896 69 896 l 579 896 q 610 883 597 896 q 622 853 622 871 q 610 822 622 835 q 579 810 597 810 l 131 810 l 131 500 l 453 500 q 483 488 471 500 q 496 457 496 475 q 483 426 496 439 q 453 414 471 414 l 131 414 l 131 86 l 579 86 q 610 74 597 86 q 622 43 622 61 q 610 13 622 25 q 579 0 597 0 l 88 0 q 57 13 69 0 q 44 43 44 25 l 44 853 z "},"F":{"ha":619,"x_min":44,"x_max":619,"o":"m 44 854 q 57 885 44 872 q 88 897 69 897 l 576 897 q 607 885 594 897 q 619 854 619 872 q 607 824 619 836 q 576 811 594 811 l 131 811 l 131 449 l 436 449 q 467 436 454 449 q 479 406 479 424 q 467 375 479 388 q 436 363 454 363 l 131 363 l 131 43 q 118 13 131 25 q 88 0 106 0 q 57 13 69 0 q 44 43 44 25 l 44 854 z "},"H":{"ha":733,"x_min":44,"x_max":689,"o":"m 44 854 q 57 885 44 872 q 88 897 69 897 q 118 885 106 897 q 131 854 131 872 l 131 454 l 603 454 l 603 854 q 615 885 603 872 q 646 897 628 897 q 676 885 664 897 q 689 854 689 872 l 689 43 q 676 13 689 25 q 646 0 664 0 q 615 13 628 0 q 603 43 603 25 l 603 368 l 131 368 l 131 43 q 118 13 131 25 q 88 0 106 0 q 57 13 69 0 q 44 43 44 25 l 44 854 z "},"I":{"ha":181,"x_min":44,"x_max":131,"o":"m 44 854 q 57 885 44 872 q 88 897 69 897 q 118 885 106 897 q 131 854 131 872 l 131 43 q 118 13 131 25 q 88 0 106 0 q 57 13 69 0 q 44 43 44 25 l 44 854 z "},"J":{"ha":383,"x_min":1,"x_max":346,"o":"m 1 -189 q 14 -158 1 -171 q 44 -146 26 -146 q 130 -128 90 -144 q 198 -82 169 -111 q 243 -15 226 -53 q 260 68 260 24 l 260 632 q 272 663 260 650 q 303 675 285 675 q 333 663 321 675 q 346 632 346 650 l 346 68 q 322 -49 346 6 q 258 -143 299 -103 q 163 -207 218 -183 q 44 -232 108 -231 q 14 -219 26 -232 q 1 -189 1 -207 z "},"K":{"ha":664,"x_min":44,"x_max":626,"o":"m 44 854 q 57 885 44 872 q 88 897 69 897 q 118 885 106 897 q 131 854 131 872 l 131 546 l 553 883 q 583 896 565 896 q 614 883 601 896 q 626 853 626 871 q 614 822 626 835 l 192 485 l 614 72 q 626 42 626 60 q 614 11 626 24 q 583 -1 601 -1 q 553 11 565 -1 l 131 421 l 131 43 q 118 13 131 25 q 88 0 106 0 q 57 13 69 0 q 44 43 44 25 l 44 854 z "},"L":{"ha":622,"x_min":44,"x_max":622,"o":"m 44 854 q 57 885 44 872 q 88 897 69 897 q 118 885 106 897 q 131 854 131 872 l 131 86 l 579 86 q 610 74 597 86 q 622 43 622 61 q 610 13 622 25 q 579 0 597 0 l 88 0 q 57 13 69 0 q 44 43 44 25 l 44 854 z "},"M":{"ha":1026,"x_min":43,"x_max":983,"o":"m 514 0 q 483 13 496 0 q 471 43 471 25 l 471 640 q 458 708 471 676 q 421 763 444 739 q 366 799 397 786 q 300 813 335 813 q 233 799 264 813 q 179 763 203 786 q 142 708 156 739 q 129 640 129 676 l 129 43 q 117 13 129 25 q 86 0 104 0 q 56 13 68 0 q 43 43 43 25 l 43 640 q 63 740 43 693 q 118 822 83 788 q 200 877 153 857 q 300 897 247 897 q 423 866 367 897 q 514 782 479 835 q 606 865 550 833 q 728 896 661 896 q 827 876 781 896 q 908 821 874 856 q 963 740 943 786 q 983 640 983 693 l 983 43 q 971 13 983 25 q 940 0 958 0 q 910 13 922 0 q 897 43 897 25 l 897 640 q 842 767 890 721 q 728 813 793 813 q 663 799 693 813 q 609 763 632 786 q 572 709 586 740 q 557 640 558 678 l 557 43 q 544 13 557 25 q 514 0 532 0 z "},"N":{"ha":726,"x_min":40,"x_max":686,"o":"m 600 574 q 581 665 600 622 q 530 741 563 708 q 454 792 497 774 q 363 811 411 811 q 271 792 314 811 q 196 741 228 774 q 145 665 164 708 q 126 574 126 622 l 126 43 q 114 13 126 25 q 83 0 101 0 q 53 13 65 0 q 40 43 40 25 l 40 574 q 65 699 40 640 q 134 802 90 758 q 237 872 178 846 q 363 897 296 897 q 488 872 429 897 q 591 802 547 846 q 660 699 635 758 q 686 574 686 640 l 686 43 q 674 13 686 25 q 643 0 661 0 q 613 13 625 0 q 600 43 600 25 l 600 574 z "},"R":{"ha":675,"x_min":44,"x_max":649,"o":"m 546 14 q 517 -3 538 0 q 482 4 497 -7 l 131 250 l 131 35 q 118 4 131 17 q 88 -8 106 -8 q 57 4 69 -8 q 44 35 44 17 l 44 853 q 57 883 44 871 q 88 896 69 896 l 324 896 q 451 870 392 896 q 553 801 510 844 q 623 698 597 757 q 649 572 649 639 q 623 447 649 506 q 553 344 597 388 q 451 275 510 300 q 324 250 392 250 l 282 250 l 533 74 q 552 47 549 64 q 546 14 556 29 m 131 810 l 131 336 l 324 336 q 417 355 374 336 q 492 406 460 374 q 544 481 525 438 q 563 572 563 524 q 544 664 563 621 q 492 740 525 707 q 417 791 460 772 q 324 810 374 810 l 131 810 z "},"S":{"ha":640,"x_min":25,"x_max":615,"o":"m 56 43 q 68 74 56 61 q 99 86 81 86 l 371 86 q 433 99 404 86 q 483 132 463 111 q 517 181 504 153 q 529 242 529 210 q 517 302 529 274 q 483 351 504 331 q 433 385 463 372 q 371 397 404 397 l 269 397 q 174 417 218 397 q 96 472 129 438 q 44 551 63 506 q 25 649 25 597 q 44 744 25 700 q 96 822 63 789 q 174 875 129 856 q 269 894 218 894 l 556 894 q 586 882 574 894 q 599 851 599 869 q 586 822 599 833 q 556 810 574 810 l 269 810 q 208 797 236 810 q 158 763 179 785 q 124 712 136 740 q 111 650 111 683 q 124 587 111 617 q 158 534 136 557 q 208 498 179 511 q 269 485 236 485 l 371 485 q 467 466 422 485 q 544 414 511 447 q 597 336 578 381 q 615 242 615 292 q 597 147 615 192 q 544 70 578 103 q 467 19 511 38 q 371 0 422 0 l 99 0 q 68 13 81 0 q 56 43 56 25 z "},"T":{"ha":678,"x_min":10,"x_max":668,"o":"m 10 854 q 22 885 10 872 q 53 897 35 897 l 625 897 q 656 885 643 897 q 668 854 668 872 q 656 824 668 836 q 625 811 643 811 l 382 811 l 382 43 q 369 13 382 25 q 339 0 357 0 q 308 13 321 0 q 296 43 296 25 l 296 811 l 53 811 q 22 824 35 811 q 10 854 10 836 z "},"U":{"ha":725,"x_min":40,"x_max":685,"o":"m 363 0 q 235 26 293 0 q 134 95 176 51 q 67 198 92 139 q 40 324 42 257 l 40 858 q 53 885 40 874 q 85 896 67 896 q 115 885 103 896 q 128 857 128 875 l 128 324 q 147 232 128 275 q 198 157 165 189 q 273 106 231 125 q 361 86 315 86 q 456 105 413 86 q 532 156 500 124 q 582 231 564 188 q 600 322 600 274 l 600 858 q 613 885 600 874 q 643 896 625 896 q 674 884 663 897 q 685 856 685 871 l 685 324 q 658 199 685 257 q 588 96 632 140 q 485 26 543 51 q 363 0 426 0 z "},"V":{"ha":790,"x_min":17,"x_max":774,"o":"m 438 32 q 421 10 432 19 q 396 0 410 0 q 371 10 382 0 q 356 32 360 21 l 24 839 q 24 872 17 856 q 47 894 31 888 q 80 894 64 901 q 103 871 96 886 l 396 161 l 688 871 q 710 894 694 886 q 743 894 726 901 q 767 872 760 888 q 767 839 774 856 l 438 32 z "},"W":{"ha":1026,"x_min":43,"x_max":983,"o":"m 514 897 q 544 885 532 897 q 557 854 557 872 l 557 257 q 572 188 558 219 q 609 134 586 157 q 663 98 632 111 q 728 85 693 85 q 842 131 793 85 q 897 257 890 176 l 897 854 q 910 885 897 872 q 940 897 922 897 q 971 885 958 897 q 983 854 983 872 l 983 257 q 963 158 983 204 q 908 76 943 111 q 827 22 874 42 q 728 1 781 1 q 606 33 661 1 q 514 115 550 64 q 423 31 479 63 q 300 0 367 0 q 200 20 247 0 q 118 75 153 40 q 63 157 83 110 q 43 257 43 204 l 43 854 q 56 885 43 872 q 86 897 68 897 q 117 885 104 897 q 129 854 129 872 l 129 257 q 142 190 129 221 q 179 135 156 158 q 233 98 203 111 q 300 85 264 85 q 366 98 335 85 q 421 135 397 111 q 458 190 444 158 q 471 257 471 221 l 471 854 q 483 885 471 872 q 514 897 496 897 z "},"X":{"ha":722,"x_min":39,"x_max":685,"o":"m 122 874 q 253 678 193 769 q 361 517 313 588 q 469 677 413 589 q 601 874 525 765 q 631 895 614 892 q 664 889 649 899 q 681 858 679 876 q 671 825 683 840 q 528 614 592 711 q 413 442 465 517 q 521 285 476 349 q 594 179 565 221 q 640 115 624 138 q 663 82 656 93 q 672 69 671 71 q 674 67 674 67 q 681 34 685 51 q 663 7 678 17 q 631 -1 647 -4 q 604 18 614 3 q 598 26 604 18 q 568 69 592 35 q 496 174 544 104 q 361 367 447 243 q 260 222 301 281 q 192 124 219 163 q 151 64 165 85 q 129 33 136 43 q 121 20 122 22 q 119 18 119 18 q 93 -1 110 3 q 61 7 76 -4 q 42 34 46 17 q 50 67 39 51 q 56 76 50 67 q 88 122 63 85 q 165 233 113 158 q 310 442 217 308 q 196 611 257 518 q 51 825 135 704 q 42 859 42 843 q 60 889 43 875 q 92 895 75 899 q 122 874 110 892 z "},"Y":{"ha":682,"x_min":21,"x_max":661,"o":"m 21 853 q 33 883 21 871 q 64 896 46 896 q 94 883 82 896 q 107 853 107 871 l 107 669 q 126 578 107 621 q 176 505 144 536 q 251 456 208 474 q 342 438 293 438 q 433 456 390 438 q 507 505 475 474 q 557 578 539 536 q 575 669 575 621 l 575 854 q 588 885 575 872 q 618 897 600 897 q 649 885 636 897 q 661 854 661 872 l 661 669 q 640 554 661 608 q 582 458 619 500 q 494 388 544 415 q 385 353 443 361 l 385 43 q 372 13 385 25 q 342 0 360 0 q 311 13 324 0 q 299 43 299 25 l 299 351 q 188 387 239 360 q 100 456 138 414 q 42 553 63 499 q 21 669 21 608 l 21 853 z "},"Z":{"ha":696,"x_min":25,"x_max":671,"o":"m 25 853 q 38 883 25 871 q 68 896 50 896 l 628 896 q 658 883 646 896 q 671 853 671 871 q 665 832 671 842 q 660 824 658 822 l 144 86 l 628 86 q 658 74 646 86 q 671 43 671 61 q 658 13 671 25 q 628 0 646 0 l 68 0 q 38 13 50 0 q 25 43 25 25 q 33 69 25 54 l 547 810 l 68 810 q 38 822 50 810 q 25 853 25 835 z "},"À":{"ha":785,"x_min":40,"x_max":686,"o":"m 600 286 l 126 286 l 126 43 q 114 13 126 25 q 83 0 101 0 q 53 13 65 0 q 40 43 40 25 l 40 574 q 65 699 40 640 q 134 802 90 758 q 237 872 178 846 q 363 897 296 897 q 488 872 429 897 q 591 802 547 846 q 660 699 635 758 q 686 574 686 640 l 686 43 q 674 13 686 25 q 643 0 661 0 q 613 13 625 0 q 600 43 600 25 l 600 286 m 126 372 l 600 372 l 600 574 q 581 665 600 622 q 530 741 563 708 q 454 792 497 774 q 363 811 411 811 q 271 792 314 811 q 196 741 228 774 q 145 665 164 708 q 126 574 126 622 l 126 372 m 396 1067 q 414 1041 410 1057 q 411 1008 418 1025 q 383 988 400 992 q 351 993 367 985 l 154 1108 q 135 1136 139 1119 q 140 1168 132 1153 q 166 1188 149 1183 q 199 1182 183 1193 l 396 1067 z "},"Á":{"ha":785,"x_min":40,"x_max":686,"o":"m 600 286 l 126 286 l 126 43 q 114 13 126 25 q 83 0 101 0 q 53 13 65 0 q 40 43 40 25 l 40 574 q 65 699 40 640 q 134 802 90 758 q 237 872 178 846 q 363 897 296 897 q 488 872 429 897 q 591 802 547 846 q 660 699 635 758 q 686 574 686 640 l 686 43 q 674 13 686 25 q 643 0 661 0 q 613 13 625 0 q 600 43 600 25 l 600 286 m 126 372 l 600 372 l 600 574 q 581 665 600 622 q 530 741 563 708 q 454 792 497 774 q 363 811 411 811 q 271 792 314 811 q 196 741 228 774 q 145 665 164 708 q 126 574 126 622 l 126 372 m 468 1182 q 501 1188 483 1193 q 526 1168 518 1183 q 531 1136 535 1153 q 513 1108 528 1119 l 315 993 q 283 988 300 985 q 256 1008 267 992 q 253 1041 249 1025 q 271 1067 257 1057 l 468 1182 z "},"Â":{"ha":785,"x_min":40,"x_max":686,"o":"m 600 286 l 126 286 l 126 43 q 114 13 126 25 q 83 0 101 0 q 53 13 65 0 q 40 43 40 25 l 40 574 q 65 699 40 640 q 134 802 90 758 q 237 872 178 846 q 363 897 296 897 q 488 872 429 897 q 591 802 547 846 q 660 699 635 758 q 686 574 686 640 l 686 43 q 674 13 686 25 q 643 0 661 0 q 613 13 625 0 q 600 43 600 25 l 600 286 m 126 372 l 600 372 l 600 574 q 581 665 600 622 q 530 741 563 708 q 454 792 497 774 q 363 811 411 811 q 271 792 314 811 q 196 741 228 774 q 145 665 164 708 q 126 574 126 622 l 126 372 m 353 1142 l 176 961 q 146 949 164 949 q 115 961 128 949 q 103 992 103 974 q 115 1022 103 1010 l 322 1235 q 353 1247 335 1247 q 383 1235 371 1247 l 385 1233 l 592 1025 q 604 994 604 1013 q 592 964 604 976 q 561 951 579 951 q 531 964 543 951 l 353 1142 z "},"Ã":{"ha":829,"x_min":40,"x_max":686,"o":"m 600 286 l 126 286 l 126 43 q 114 13 126 25 q 83 0 101 0 q 53 13 65 0 q 40 43 40 25 l 40 574 q 65 699 40 640 q 134 802 90 758 q 237 872 178 846 q 363 897 296 897 q 488 872 429 897 q 591 802 547 846 q 660 699 635 758 q 686 574 686 640 l 686 43 q 674 13 686 25 q 643 0 661 0 q 613 13 625 0 q 600 43 600 25 l 600 286 m 126 372 l 600 372 l 600 574 q 581 665 600 622 q 530 741 563 708 q 454 792 497 774 q 363 811 411 811 q 271 792 314 811 q 196 741 228 774 q 145 665 164 708 q 126 574 126 622 l 126 372 m 90 999 q 75 1028 75 1010 q 88 1058 75 1046 q 120 1096 101 1076 q 160 1131 139 1115 q 204 1158 181 1147 q 253 1168 228 1168 q 310 1151 282 1168 q 366 1115 339 1135 q 417 1078 393 1094 q 460 1061 440 1061 q 490 1070 475 1061 q 518 1092 506 1079 q 540 1117 531 1104 q 556 1140 550 1131 q 581 1158 565 1154 q 610 1154 596 1163 q 628 1128 625 1144 q 624 1099 632 1113 q 596 1055 613 1076 q 558 1017 579 1033 q 511 990 536 1000 q 460 981 486 981 q 404 997 431 981 q 352 1033 378 1014 q 302 1069 326 1053 q 253 1086 278 1086 q 221 1078 236 1086 q 192 1057 206 1069 q 167 1031 178 1044 q 146 1006 156 1017 q 120 990 136 992 q 90 999 104 988 z "},"Ä":{"ha":785,"x_min":40,"x_max":686,"o":"m 600 286 l 126 286 l 126 43 q 114 13 126 25 q 83 0 101 0 q 53 13 65 0 q 40 43 40 25 l 40 574 q 65 699 40 640 q 134 802 90 758 q 237 872 178 846 q 363 897 296 897 q 488 872 429 897 q 591 802 547 846 q 660 699 635 758 q 686 574 686 640 l 686 43 q 674 13 686 25 q 643 0 661 0 q 613 13 625 0 q 600 43 600 25 l 600 286 m 126 372 l 600 372 l 600 574 q 581 665 600 622 q 530 741 563 708 q 454 792 497 774 q 363 811 411 811 q 271 792 314 811 q 196 741 228 774 q 145 665 164 708 q 126 574 126 622 l 126 372 m 149 1076 q 165 1117 149 1100 q 206 1133 182 1133 q 246 1117 229 1133 q 263 1076 263 1100 q 246 1036 263 1053 q 206 1019 229 1019 q 165 1036 182 1019 q 149 1076 149 1053 m 465 1076 q 482 1117 465 1100 q 522 1133 499 1133 q 563 1117 546 1133 q 579 1076 579 1100 q 563 1036 579 1053 q 522 1019 546 1019 q 482 1036 499 1019 q 465 1076 465 1053 z "},"È":{"ha":717,"x_min":44,"x_max":622,"o":"m 44 853 q 57 883 44 871 q 88 896 69 896 l 579 896 q 610 883 597 896 q 622 853 622 871 q 610 822 622 835 q 579 810 597 810 l 131 810 l 131 500 l 453 500 q 483 488 471 500 q 496 457 496 475 q 483 426 496 439 q 453 414 471 414 l 131 414 l 131 86 l 579 86 q 610 74 597 86 q 622 43 622 61 q 610 13 622 25 q 579 0 597 0 l 88 0 q 57 13 69 0 q 44 43 44 25 l 44 853 m 386 1067 q 404 1041 400 1057 q 401 1008 408 1025 q 374 988 390 992 q 342 993 357 985 l 144 1108 q 126 1136 129 1119 q 131 1168 122 1153 q 156 1188 139 1183 q 189 1182 174 1193 l 386 1067 z "},"É":{"ha":717,"x_min":44,"x_max":622,"o":"m 44 853 q 57 883 44 871 q 88 896 69 896 l 579 896 q 610 883 597 896 q 622 853 622 871 q 610 822 622 835 q 579 810 597 810 l 131 810 l 131 500 l 453 500 q 483 488 471 500 q 496 457 496 475 q 483 426 496 439 q 453 414 471 414 l 131 414 l 131 86 l 579 86 q 610 74 597 86 q 622 43 622 61 q 610 13 622 25 q 579 0 597 0 l 88 0 q 57 13 69 0 q 44 43 44 25 l 44 853 m 479 1179 q 512 1185 494 1190 q 538 1165 529 1181 q 542 1133 546 1150 q 524 1106 539 1117 l 326 990 q 294 985 311 982 q 267 1006 278 989 q 264 1038 260 1022 q 282 1064 268 1054 l 479 1179 z "},"Ê":{"ha":717,"x_min":44,"x_max":622,"o":"m 44 853 q 57 883 44 871 q 88 896 69 896 l 579 896 q 610 883 597 896 q 622 853 622 871 q 610 822 622 835 q 579 810 597 810 l 131 810 l 131 500 l 453 500 q 483 488 471 500 q 496 457 496 475 q 483 426 496 439 q 453 414 471 414 l 131 414 l 131 86 l 579 86 q 610 74 597 86 q 622 43 622 61 q 610 13 622 25 q 579 0 597 0 l 88 0 q 57 13 69 0 q 44 43 44 25 l 44 853 m 326 1138 l 150 957 q 119 944 138 944 q 89 957 101 944 q 76 988 76 969 q 89 1018 76 1006 l 296 1231 q 326 1243 308 1243 q 357 1231 344 1243 l 358 1229 l 565 1021 q 578 990 578 1008 q 565 960 578 972 q 535 947 553 947 q 504 960 517 947 l 326 1138 z "},"Ë":{"ha":717,"x_min":44,"x_max":622,"o":"m 44 853 q 57 883 44 871 q 88 896 69 896 l 579 896 q 610 883 597 896 q 622 853 622 871 q 610 822 622 835 q 579 810 597 810 l 131 810 l 131 500 l 453 500 q 483 488 471 500 q 496 457 496 475 q 483 426 496 439 q 453 414 471 414 l 131 414 l 131 86 l 579 86 q 610 74 597 86 q 622 43 622 61 q 610 13 622 25 q 579 0 597 0 l 88 0 q 57 13 69 0 q 44 43 44 25 l 44 853 m 121 1081 q 138 1121 121 1104 q 178 1138 154 1138 q 218 1121 201 1138 q 235 1081 235 1104 q 218 1040 235 1057 q 178 1024 201 1024 q 138 1040 154 1024 q 121 1081 121 1057 m 438 1081 q 454 1121 438 1104 q 494 1138 471 1138 q 535 1121 518 1138 q 551 1081 551 1104 q 535 1040 551 1057 q 494 1024 518 1024 q 454 1040 471 1024 q 438 1081 438 1057 z "},"Ì":{"ha":603,"x_min":54,"x_max":349,"o":"m 318 1068 q 336 1042 332 1058 q 333 1010 340 1026 q 306 990 322 993 q 274 994 289 986 l 76 1110 q 58 1138 61 1121 q 63 1169 54 1154 q 88 1190 71 1185 q 121 1183 106 1194 l 318 1068 m 263 854 q 275 885 263 872 q 306 897 288 897 q 336 885 324 897 q 349 854 349 872 l 349 43 q 336 13 349 25 q 306 0 324 0 q 275 13 288 0 q 263 43 263 25 l 263 854 z "},"Í":{"ha":583,"x_min":99,"x_max":385,"o":"m 160 854 q 172 885 160 872 q 203 897 185 897 q 233 885 221 897 q 246 854 246 872 l 246 43 q 233 13 246 25 q 203 0 221 0 q 172 13 185 0 q 160 43 160 25 l 160 854 m 318 1176 q 351 1183 333 1188 q 376 1163 368 1178 q 381 1131 385 1147 q 363 1103 378 1114 l 165 988 q 133 983 150 979 q 106 1003 117 986 q 103 1035 99 1019 q 121 1061 107 1051 l 318 1176 z "},"Ù":{"ha":783,"x_min":40,"x_max":685,"o":"m 363 0 q 235 26 293 0 q 134 95 176 51 q 67 198 92 139 q 40 324 42 257 l 40 858 q 53 885 40 874 q 85 896 67 896 q 115 885 103 896 q 128 857 128 875 l 128 324 q 147 232 128 275 q 198 157 165 189 q 273 106 231 125 q 361 86 315 86 q 456 105 413 86 q 532 156 500 124 q 582 231 564 188 q 600 322 600 274 l 600 858 q 613 885 600 874 q 643 896 625 896 q 674 884 663 897 q 685 856 685 871 l 685 324 q 658 199 685 257 q 588 96 632 140 q 485 26 543 51 q 363 0 426 0 m 376 1067 q 394 1041 390 1057 q 392 1008 399 1025 q 364 988 381 992 q 332 993 347 985 l 135 1108 q 116 1136 119 1119 q 121 1168 113 1153 q 147 1188 129 1183 q 179 1182 164 1193 l 376 1067 z "},"Ú":{"ha":783,"x_min":40,"x_max":685,"o":"m 363 0 q 235 26 293 0 q 134 95 176 51 q 67 198 92 139 q 40 324 42 257 l 40 858 q 53 885 40 874 q 85 896 67 896 q 115 885 103 896 q 128 857 128 875 l 128 324 q 147 232 128 275 q 198 157 165 189 q 273 106 231 125 q 361 86 315 86 q 456 105 413 86 q 532 156 500 124 q 582 231 564 188 q 600 322 600 274 l 600 858 q 613 885 600 874 q 643 896 625 896 q 674 884 663 897 q 685 856 685 871 l 685 324 q 658 199 685 257 q 588 96 632 140 q 485 26 543 51 q 363 0 426 0 m 492 1179 q 524 1185 507 1190 q 550 1165 542 1181 q 555 1133 558 1150 q 536 1106 551 1117 l 339 990 q 307 985 324 982 q 279 1006 290 989 q 276 1038 272 1022 q 294 1064 281 1054 l 492 1179 z "},"ä":{"ha":810,"x_min":31,"x_max":701,"o":"m 368 672 q 495 645 435 672 q 601 572 556 618 q 674 465 647 526 q 701 335 701 404 l 701 42 q 689 11 701 24 q 658 -1 676 -1 q 628 11 640 -1 q 615 42 615 24 l 615 126 q 505 38 569 75 q 365 1 440 1 q 235 26 296 1 q 129 96 175 51 q 57 201 83 140 q 31 335 31 263 q 56 465 31 404 q 127 570 82 525 q 234 642 172 615 q 368 672 296 669 m 117 335 q 136 238 117 283 q 190 159 156 193 q 269 106 224 125 q 365 86 314 86 q 460 105 415 86 q 538 157 504 124 q 592 235 572 190 q 615 335 613 281 q 596 432 615 386 q 542 512 576 478 q 463 565 508 546 q 365 585 417 585 q 269 565 314 585 q 190 512 224 546 q 136 432 156 478 q 117 335 117 386 m 150 853 q 167 893 150 876 q 207 910 183 910 q 247 893 231 910 q 264 853 264 876 q 247 813 264 829 q 207 796 231 796 q 167 813 183 796 q 150 853 150 829 m 467 853 q 483 893 467 876 q 524 910 500 910 q 564 893 547 910 q 581 853 581 876 q 564 813 581 829 q 524 796 547 796 q 483 813 500 796 q 467 853 467 829 z "},"ñ":{"ha":833,"x_min":38,"x_max":707,"o":"m 38 340 q 64 471 38 410 q 135 577 90 532 q 242 649 181 622 q 372 675 303 675 q 503 649 442 675 q 609 577 564 622 q 681 471 654 532 q 707 340 707 410 l 707 43 q 694 13 707 25 q 664 0 682 0 q 633 13 646 0 q 621 43 621 25 l 621 340 q 601 437 621 392 q 548 516 582 482 q 469 569 514 550 q 372 589 424 589 q 276 569 321 589 q 197 516 231 550 q 143 437 163 482 q 124 340 124 392 l 124 43 q 111 13 124 25 q 81 0 99 0 q 50 13 63 0 q 38 43 38 25 l 38 340 m 113 775 q 97 804 97 786 q 110 835 97 822 q 142 872 124 853 q 182 908 161 892 q 226 934 203 924 q 275 944 250 944 q 333 928 304 944 q 388 891 361 911 q 439 854 415 871 q 482 838 463 838 q 513 847 497 838 q 540 868 528 856 q 563 894 553 881 q 578 917 572 907 q 603 935 588 931 q 632 931 618 939 q 651 905 647 921 q 646 875 654 889 q 618 831 635 853 q 580 793 601 810 q 533 767 558 776 q 482 757 508 757 q 426 774 453 757 q 374 810 400 790 q 324 846 349 829 q 275 863 300 863 q 243 854 258 863 q 214 833 228 846 q 189 807 200 821 q 168 782 178 793 q 142 766 158 768 q 113 775 126 764 z "},"Ý":{"ha":779,"x_min":-12,"x_max":628,"o":"m -12 853 q 0 883 -12 871 q 31 896 13 896 q 61 883 49 896 q 74 853 74 871 l 74 669 q 92 578 74 621 q 143 505 111 536 q 217 456 175 474 q 308 438 260 438 q 399 456 357 438 q 474 505 442 474 q 524 578 506 536 q 542 669 542 621 l 542 854 q 554 885 542 872 q 585 897 567 897 q 615 885 603 897 q 628 854 628 872 l 628 669 q 607 554 628 608 q 549 458 586 500 q 460 388 511 415 q 351 353 410 361 l 351 43 q 339 13 351 25 q 308 0 326 0 q 278 13 290 0 q 265 43 265 25 l 265 351 q 155 387 206 360 q 67 456 104 414 q 8 553 29 499 q -12 669 -12 608 l -12 853 z "},"~":{"ha":681,"x_min":33,"x_max":646,"o":"m 449 335 q 446 336 447 335 q 443 338 444 338 l 449 335 m 49 353 q 33 382 33 364 q 46 413 33 400 q 78 450 60 431 q 118 485 97 469 q 163 512 139 501 q 211 522 186 522 q 239 521 226 522 q 264 515 251 519 q 291 504 276 511 q 325 488 306 497 q 367 462 349 475 q 403 438 386 449 q 438 422 421 428 q 474 415 454 415 q 504 424 489 415 q 532 446 519 433 q 554 472 544 458 q 569 494 564 485 q 594 513 579 508 q 624 508 610 517 q 642 483 639 499 q 638 453 646 467 q 610 409 626 431 q 572 371 593 388 q 525 344 550 354 q 474 335 500 335 q 442 336 456 335 q 415 342 429 338 q 387 356 401 347 q 351 378 372 364 q 283 421 315 401 q 211 440 251 440 q 179 432 194 440 q 150 411 164 424 q 125 385 136 399 q 104 360 114 371 q 78 344 94 346 q 49 353 63 342 z "},"¥":{"ha":676,"x_min":18,"x_max":660,"o":"m 90 433 q 103 464 90 451 q 133 476 115 476 l 278 476 q 163 632 222 549 q 28 826 104 715 q 19 860 18 844 q 36 890 19 876 q 69 897 51 900 q 99 875 86 893 q 229 686 169 771 q 338 531 289 601 q 445 685 389 603 q 578 875 501 767 q 608 897 590 893 q 640 890 625 900 q 658 860 656 878 q 647 826 660 842 q 512 633 572 719 q 396 476 451 547 l 543 476 q 574 464 561 476 q 586 433 586 451 q 574 403 586 415 q 543 390 561 390 l 381 390 l 381 297 l 543 297 q 574 285 561 297 q 586 254 586 272 q 574 224 586 236 q 543 211 561 211 l 381 211 l 381 42 q 368 11 381 24 q 338 -1 356 -1 q 307 11 319 -1 q 294 42 294 24 l 294 211 l 133 211 q 103 224 115 211 q 90 254 90 236 q 103 285 90 272 q 133 297 115 297 l 294 297 l 294 390 l 133 390 q 103 403 115 390 q 90 433 90 415 z "},"#":{"ha":828,"x_min":17,"x_max":813,"o":"m 464 281 l 256 281 l 175 29 q 153 4 168 13 q 121 1 138 -4 q 94 23 103 7 q 93 56 86 39 l 165 281 l 60 281 q 29 293 42 281 q 17 324 17 306 q 29 354 17 342 q 60 367 42 367 l 193 367 l 257 567 l 154 567 q 124 579 136 567 q 111 610 111 592 q 124 640 111 628 q 154 653 136 653 l 285 653 l 356 867 q 377 892 361 883 q 410 894 393 900 q 435 872 426 888 q 438 840 443 857 l 375 653 l 583 653 l 654 867 q 676 892 660 883 q 708 894 692 900 q 733 872 725 888 q 736 840 742 857 l 674 653 l 769 653 q 800 640 788 653 q 813 610 813 628 q 800 579 813 592 q 769 567 788 567 l 646 567 l 582 367 l 682 367 q 713 354 700 367 q 725 324 725 342 q 713 293 725 306 q 682 281 700 281 l 554 281 l 474 29 q 451 4 467 13 q 419 1 436 -4 q 393 23 401 7 q 392 56 385 39 l 464 281 m 283 367 l 492 367 l 556 567 l 347 567 l 283 367 z "},"£":{"ha":711,"x_min":24,"x_max":707,"o":"m 24 358 q 36 389 24 376 q 67 401 49 401 l 129 401 l 129 671 q 141 740 129 701 q 180 814 153 779 q 250 872 207 849 q 357 897 293 896 q 388 885 375 897 q 400 854 400 872 q 388 824 400 836 q 357 811 375 811 q 283 792 311 810 q 240 750 256 774 q 220 703 225 726 q 215 671 215 681 l 215 401 l 285 401 q 315 389 303 401 q 328 358 328 376 q 315 328 328 340 q 285 315 303 315 l 215 315 l 215 86 l 664 86 q 694 74 682 86 q 707 43 707 61 q 694 13 707 25 q 664 0 682 0 l 172 0 q 153 4 161 0 q 142 13 146 8 l 140 14 q 134 24 139 15 q 129 43 129 32 l 129 315 l 67 315 q 36 328 49 315 q 24 358 24 340 z "},"Ÿ":{"ha":665,"x_min":-22,"x_max":618,"o":"m -22 853 q -10 883 -22 871 q 21 896 3 896 q 51 883 39 896 q 64 853 64 871 l 64 669 q 83 578 64 621 q 133 505 101 536 q 208 456 165 474 q 299 438 250 438 q 390 456 347 438 q 464 505 432 474 q 514 578 496 536 q 532 669 532 621 l 532 854 q 544 885 532 872 q 575 897 557 897 q 606 885 593 897 q 618 854 618 872 l 618 669 q 597 554 618 608 q 539 458 576 500 q 451 388 501 415 q 342 353 400 361 l 342 43 q 329 13 342 25 q 299 0 317 0 q 268 13 281 0 q 256 43 256 25 l 256 351 q 145 387 196 360 q 57 456 94 414 q -1 553 19 499 q -22 669 -22 608 l -22 853 m 113 1007 q 129 1047 113 1031 q 169 1064 146 1064 q 210 1047 193 1064 q 226 1007 226 1031 q 210 967 226 983 q 169 950 193 950 q 129 967 146 950 q 113 1007 113 983 m 429 1007 q 446 1047 429 1031 q 486 1064 463 1064 q 526 1047 510 1064 q 543 1007 543 1031 q 526 967 543 983 q 486 950 510 950 q 446 967 463 950 q 429 1007 429 983 z "},"@":{"ha":1058,"x_min":31,"x_max":1035,"o":"m 765 336 q 790 274 765 299 q 851 249 815 249 q 903 265 883 249 q 933 308 922 282 q 946 364 943 333 q 949 422 949 394 q 916 585 949 508 q 827 717 883 661 q 694 806 771 774 q 532 839 618 839 q 370 806 446 839 q 238 717 294 774 q 149 585 182 661 q 117 422 117 508 q 149 260 117 336 q 238 128 182 185 q 370 40 294 72 q 532 7 446 7 q 596 11 564 7 q 656 24 628 15 q 695 25 676 31 q 719 0 714 19 q 710 -36 726 -24 q 678 -56 694 -49 q 606 -72 643 -67 q 532 -78 569 -78 q 336 -38 428 -78 q 177 69 244 1 q 70 228 110 136 q 31 424 31 319 q 70 619 31 528 q 177 779 110 711 q 336 887 244 847 q 532 926 428 926 q 728 887 636 926 q 888 779 819 847 q 995 619 956 711 q 1035 424 1035 528 q 1027 335 1035 382 q 999 251 1019 289 q 942 188 978 213 q 850 163 906 163 q 763 194 799 163 q 707 269 728 226 q 628 215 675 238 q 532 192 581 192 q 441 210 483 192 q 367 260 399 228 q 317 334 335 292 q 299 425 299 376 q 317 516 299 474 q 367 590 335 558 q 441 640 399 622 q 532 658 483 658 q 623 640 581 658 q 697 590 665 622 q 747 516 729 558 q 765 425 765 474 l 765 336 m 385 425 q 427 320 385 363 q 532 278 469 278 q 634 319 592 278 q 679 425 676 360 q 637 530 679 488 q 532 572 594 572 q 427 530 469 572 q 385 425 385 488 z "},"–":{"ha":599,"x_min":43,"x_max":557,"o":"m 43 432 q 56 463 43 450 q 86 475 68 475 l 514 475 q 544 463 532 475 q 557 432 557 450 q 544 401 557 414 q 514 389 532 389 l 86 389 q 56 401 68 389 q 43 432 43 414 z "},"—":{"ha":732,"x_min":43,"x_max":689,"o":"m 43 432 q 56 463 43 450 q 86 475 68 475 l 646 475 q 676 463 664 475 q 689 432 689 450 q 676 401 689 414 q 646 389 664 389 l 86 389 q 56 401 68 389 q 43 432 43 414 z "},"_":{"ha":733,"x_min":43,"x_max":690,"o":"m 43 51 q 56 82 43 69 q 86 94 68 94 l 647 94 q 678 82 665 94 q 690 51 690 69 q 678 21 690 33 q 647 8 665 8 l 86 8 q 56 21 68 8 q 43 51 43 33 z "},"¢":{"ha":611,"x_min":14,"x_max":600,"o":"m 336 844 q 369 831 356 844 q 382 797 382 817 l 382 667 q 447 651 417 663 q 503 627 478 640 q 547 599 528 614 q 579 574 567 585 q 594 548 588 567 q 585 514 600 529 q 554 501 572 501 q 524 514 536 501 q 458 556 494 539 q 382 579 422 572 l 382 85 q 458 108 422 90 q 524 154 494 126 q 554 167 536 167 q 585 154 572 167 q 597 123 597 142 q 581 89 596 104 q 551 63 569 76 q 506 35 532 49 q 449 13 481 22 q 382 0 418 3 l 382 -132 q 369 -165 382 -151 q 336 -179 356 -179 q 301 -165 315 -179 q 288 -132 288 -151 l 288 4 q 179 42 229 14 q 92 114 129 71 q 35 213 56 157 q 14 332 14 268 q 34 448 14 393 q 91 546 54 503 q 178 619 128 589 q 288 661 228 649 l 288 797 q 301 831 288 817 q 336 844 315 844 m 100 332 q 114 249 100 288 q 153 178 128 210 q 213 123 178 146 q 288 90 247 100 l 288 574 q 213 540 247 563 q 153 486 178 518 q 114 415 128 454 q 100 332 100 375 z "},"¦":{"ha":181,"x_min":44,"x_max":131,"o":"m 44 856 q 57 886 44 874 q 88 899 69 899 q 118 886 106 899 q 131 856 131 874 l 131 -211 q 118 -242 131 -229 q 88 -254 106 -254 q 57 -242 69 -254 q 44 -211 44 -229 l 44 856 z "},"œ":{"ha":1463,"x_min":190,"x_max":1449,"o":"m 528 672 q 655 645 594 672 q 761 572 715 618 q 834 465 807 526 q 861 335 861 404 q 835 206 861 267 q 763 100 808 146 q 657 28 718 54 q 525 1 596 1 q 395 26 456 1 q 289 96 335 51 q 217 201 243 140 q 190 335 190 263 q 216 465 190 404 q 287 570 242 525 q 394 642 332 615 q 528 672 456 669 m 276 335 q 296 238 276 283 q 349 159 315 193 q 428 106 383 125 q 525 86 474 86 q 622 106 576 86 q 702 159 668 125 q 756 238 736 193 q 775 335 775 283 q 756 432 775 386 q 702 512 736 478 q 622 565 668 546 q 525 585 576 585 q 428 565 474 585 q 349 512 383 546 q 296 432 315 478 q 276 335 276 386 m 864 294 q 893 212 871 250 q 948 146 915 174 q 1022 102 981 118 q 1110 86 1064 86 q 1206 105 1161 86 q 1285 157 1250 124 q 1315 169 1297 169 q 1346 157 1333 169 q 1358 126 1358 144 q 1346 96 1358 108 q 1242 23 1300 44 q 1110 1 1185 1 q 980 26 1040 1 q 874 96 919 51 q 801 201 828 140 q 775 335 775 263 q 801 465 775 404 q 872 570 826 525 q 978 642 917 615 q 1113 672 1040 669 q 1238 646 1179 672 q 1343 575 1297 619 q 1416 471 1389 531 q 1446 343 1443 411 q 1434 307 1449 319 q 1403 294 1419 294 l 864 294 m 1110 585 q 1023 569 1064 585 q 949 526 982 553 q 895 461 917 499 q 865 381 874 424 l 1356 381 q 1325 461 1347 424 q 1270 526 1303 499 q 1197 569 1238 553 q 1110 585 1156 585 z "},"æ":{"ha":1463,"x_min":97,"x_max":1356,"o":"m 435 672 q 562 645 501 672 q 668 572 622 618 q 741 465 714 526 q 768 335 768 404 l 768 42 q 756 11 768 24 q 725 -1 743 -1 q 694 11 707 -1 q 682 42 682 24 l 682 126 q 572 38 636 75 q 432 1 507 1 q 302 26 363 1 q 196 96 242 51 q 124 201 150 140 q 97 335 97 263 q 123 465 97 404 q 194 570 149 525 q 301 642 239 615 q 435 672 363 669 m 183 335 q 203 238 183 283 q 256 159 222 193 q 335 106 290 125 q 432 86 381 86 q 526 105 482 86 q 605 157 571 124 q 659 235 639 190 q 682 335 679 281 q 663 432 682 386 q 609 512 643 478 q 529 565 575 546 q 432 585 483 585 q 335 565 381 585 q 256 512 290 546 q 203 432 222 478 q 183 335 183 386 m 771 294 q 800 212 778 250 q 855 146 822 174 q 929 102 888 118 q 1017 86 971 86 q 1113 105 1068 86 q 1192 157 1157 124 q 1222 169 1204 169 q 1253 157 1240 169 q 1265 126 1265 144 q 1253 96 1265 108 q 1149 23 1207 44 q 1017 1 1092 1 q 887 26 947 1 q 781 96 826 51 q 708 201 735 140 q 682 335 682 263 q 708 465 682 404 q 778 570 733 525 q 885 642 824 615 q 1019 672 947 669 q 1145 646 1086 672 q 1250 575 1204 619 q 1323 471 1296 531 q 1353 343 1350 411 q 1341 307 1356 319 q 1310 294 1326 294 l 771 294 m 1017 585 q 930 569 971 585 q 856 526 889 553 q 802 461 824 499 q 772 381 781 424 l 1263 381 q 1232 461 1254 424 q 1177 526 1210 499 q 1103 569 1144 553 q 1017 585 1063 585 z "},"Ð":{"ha":890,"x_min":28,"x_max":861,"o":"m 28 415 q 40 446 28 433 q 71 458 53 458 l 136 458 l 136 842 q 149 872 136 860 q 179 885 161 885 l 418 885 q 590 850 510 885 q 731 755 671 815 q 826 614 792 694 q 861 442 861 533 q 826 269 861 350 q 731 129 792 189 q 590 35 671 69 q 418 0 510 0 l 179 0 q 149 13 161 0 q 136 43 136 25 l 136 372 l 71 372 q 40 385 53 372 q 28 415 28 397 m 775 442 q 747 581 775 515 q 671 694 719 646 q 557 771 622 743 q 418 799 492 799 l 222 799 l 222 458 l 294 458 q 325 446 313 458 q 338 415 338 433 q 325 385 338 397 q 294 372 313 372 l 222 372 l 222 86 l 418 86 q 557 114 492 86 q 671 190 622 142 q 747 303 719 238 q 775 442 775 368 z "},"Œ":{"ha":1407,"x_min":35,"x_max":1376,"o":"m 1331 93 q 1363 80 1350 93 q 1376 47 1376 67 q 1363 14 1376 28 q 1331 0 1350 0 l 879 0 q 848 14 861 0 q 835 47 835 28 l 835 840 q 847 873 835 858 q 879 888 860 888 l 1331 888 q 1363 874 1350 888 q 1376 840 1376 860 q 1363 807 1376 819 q 1331 794 1350 794 l 924 794 l 924 494 l 1225 494 q 1258 481 1244 494 q 1271 447 1271 467 q 1258 415 1271 428 q 1225 401 1244 401 l 924 401 l 924 93 l 1331 93 m 35 442 q 69 614 35 533 q 164 755 104 694 q 304 850 224 815 q 476 885 385 885 q 649 850 568 885 q 790 755 729 815 q 885 614 850 694 q 919 442 919 533 q 885 269 919 350 q 790 129 850 189 q 649 35 729 69 q 476 0 568 0 q 304 35 385 0 q 164 129 224 69 q 69 269 104 189 q 35 442 35 350 m 121 442 q 149 303 121 368 q 224 190 176 238 q 338 114 272 142 q 476 86 403 86 q 615 114 550 86 q 729 190 681 142 q 806 303 778 238 q 833 442 833 368 q 806 581 833 515 q 729 694 778 646 q 615 771 681 743 q 476 799 550 799 q 338 771 403 799 q 224 694 272 743 q 149 581 176 646 q 121 442 121 515 z "},"Æ":{"ha":1276,"x_min":144,"x_max":1282,"o":"m 704 286 l 231 286 l 231 43 q 218 13 231 25 q 188 0 206 0 q 157 13 169 0 q 144 43 144 25 l 144 574 q 169 699 144 640 q 238 802 194 758 q 341 872 282 846 q 467 897 400 897 q 592 872 533 897 q 695 802 651 846 q 765 699 739 758 q 790 574 790 640 l 790 43 q 778 13 790 25 q 747 0 765 0 q 717 13 729 0 q 704 43 704 25 l 704 286 m 231 372 l 704 372 l 704 574 q 685 665 704 622 q 634 741 667 708 q 558 792 601 774 q 467 811 515 811 q 375 792 418 811 q 300 741 332 774 q 249 665 268 708 q 231 574 231 622 l 231 372 m 704 854 q 717 885 704 872 q 747 897 729 897 l 1239 897 q 1269 885 1257 897 q 1282 854 1282 872 q 1269 824 1282 836 q 1239 811 1257 811 l 790 811 l 790 501 l 1113 501 q 1143 489 1131 501 q 1156 458 1156 476 q 1143 428 1156 440 q 1113 415 1131 415 l 790 415 l 790 88 l 1239 88 q 1269 75 1257 88 q 1282 44 1282 63 q 1269 14 1282 26 q 1239 1 1257 1 l 747 1 q 717 14 729 1 q 704 44 704 26 l 704 854 z "},"÷":{"ha":551,"x_min":7,"x_max":547,"o":"m 318 192 q 304 158 318 172 q 268 143 290 143 q 234 158 249 143 q 219 192 219 172 q 234 226 219 211 q 268 242 249 242 q 304 226 290 242 q 318 192 318 211 m 318 674 q 304 640 318 654 q 268 625 290 625 q 234 640 249 625 q 219 674 219 654 q 234 708 219 693 q 268 724 249 724 q 304 708 290 724 q 318 674 318 693 m 7 432 q 19 401 7 414 q 50 389 32 389 l 504 389 q 535 401 522 389 q 547 432 547 414 q 535 463 547 450 q 504 475 522 475 l 50 475 q 19 463 32 475 q 7 432 7 450 z "},"µ":{"ha":732,"x_min":44,"x_max":718,"o":"m 674 672 q 706 660 693 672 q 718 629 718 647 l 718 349 q 691 210 718 274 q 618 101 664 147 q 510 28 572 54 q 381 1 449 1 q 278 24 339 1 q 135 96 217 46 l 135 -206 q 122 -237 135 -225 q 90 -250 108 -250 q 58 -239 71 -250 q 44 -210 44 -228 l 44 635 q 58 661 44 650 q 90 672 71 672 q 122 660 110 672 q 135 629 135 647 l 135 329 q 156 234 135 278 q 210 159 176 190 q 289 110 244 128 q 381 92 333 92 q 478 111 433 92 q 557 165 524 131 q 609 243 590 199 q 628 338 628 288 l 628 635 q 642 662 628 651 q 674 672 656 672 z "},"×":{"ha":686,"x_min":42,"x_max":646,"o":"m 633 46 q 602 33 619 33 q 572 47 585 33 l 344 275 l 115 44 q 85 31 103 31 q 54 43 68 31 q 42 73 42 56 q 54 104 42 90 l 283 336 l 57 564 q 44 595 44 578 q 56 625 43 613 q 87 638 69 638 q 117 626 104 639 l 344 397 l 571 625 q 601 637 583 638 q 632 624 618 636 q 644 594 644 611 q 631 563 643 576 l 404 336 l 633 107 q 646 76 646 93 q 633 46 646 58 z "},"•":{"ha":279,"x_min":32,"x_max":249,"o":"m 139 228 q 63 259 94 228 q 32 335 32 290 q 65 412 32 381 q 139 443 97 443 q 184 433 164 443 q 219 408 204 424 q 241 372 233 392 q 249 335 249 353 q 216 259 249 290 q 139 228 183 228 z "},"·":{"ha":164,"x_min":33,"x_max":132,"o":"m 132 338 q 118 303 132 318 q 81 288 104 288 q 47 303 61 288 q 33 338 33 318 q 47 372 33 357 q 81 386 61 386 q 118 372 104 386 q 132 338 132 357 z "}," ":{"ha":360,"x_min":0,"x_max":0,"o":""},"»":{"ha":897,"x_min":43,"x_max":876,"o":"m 321 329 l 56 578 q 43 608 43 590 q 56 639 43 626 q 86 651 68 651 q 117 639 104 651 l 414 360 q 426 329 426 347 q 414 299 426 311 l 413 297 l 117 15 q 86 3 104 3 q 56 15 68 3 q 43 46 43 28 q 56 76 43 64 l 321 329 m 771 329 l 506 578 q 493 608 493 590 q 506 639 493 626 q 536 651 518 651 q 567 639 554 651 l 864 360 q 876 329 876 347 q 864 299 876 311 l 863 297 l 567 15 q 536 3 554 3 q 506 15 518 3 q 493 46 493 28 q 506 76 493 64 l 771 329 z "},"¹":{"ha":300,"x_min":0,"x_max":254,"o":"m 8 721 q 4 753 0 736 q 24 779 8 769 l 179 878 q 230 885 206 896 q 254 846 254 874 l 254 411 q 242 381 254 393 q 211 368 229 368 q 181 381 193 368 q 168 411 168 393 l 168 767 l 68 706 q 35 701 53 696 q 8 721 18 706 z "},"¸":{"ha":285,"x_min":19,"x_max":261,"o":"m 101 82 l 179 82 l 179 -10 q 238 -53 215 -22 q 261 -125 261 -85 q 226 -210 261 -175 q 140 -246 190 -246 q 55 -210 90 -246 q 19 -125 19 -175 q 31 -98 19 -110 q 58 -86 43 -86 q 85 -98 74 -86 q 97 -125 97 -110 q 112 -156 100 -144 q 140 -168 124 -168 q 171 -156 158 -168 q 183 -125 183 -143 q 172 -96 183 -108 q 140 -82 160 -83 q 113 -69 125 -82 q 101 -37 101 -57 l 101 82 z "},"Þ":{"ha":692,"x_min":44,"x_max":689,"o":"m 92 886 q 119 874 107 888 q 132 842 132 860 l 132 563 q 367 643 289 643 q 488 619 429 643 q 596 550 547 594 q 667 448 644 503 q 689 321 689 393 q 663 196 689 254 q 593 94 638 138 q 490 25 549 50 q 368 0 432 0 q 246 26 304 0 q 142 96 188 51 q 71 198 97 140 q 44 321 44 256 l 44 850 q 56 876 44 864 q 81 886 68 888 l 92 886 m 132 321 q 151 229 132 272 q 203 154 171 186 q 278 103 235 122 q 368 85 321 85 q 458 103 415 85 q 533 154 500 122 q 585 229 565 186 q 604 321 604 272 q 585 413 604 369 q 533 488 565 456 q 458 540 500 521 q 368 558 415 558 q 278 538 321 558 q 203 485 235 518 q 151 409 171 451 q 132 321 132 367 m 46 844 q 58 875 46 863 q 89 888 71 888 q 119 875 107 888 q 132 844 132 863 l 132 -168 q 119 -199 132 -186 q 89 -211 107 -211 q 58 -199 71 -211 q 46 -168 46 -186 l 46 844 z "},"ß":{"ha":588,"x_min":42,"x_max":554,"o":"m 254 33 q 267 64 254 51 q 297 76 279 76 q 424 132 378 83 q 469 246 469 181 q 457 310 469 281 q 422 363 444 340 q 367 400 399 386 q 297 417 335 414 q 267 429 279 417 q 254 460 254 442 q 267 490 254 478 q 297 503 279 503 q 365 516 333 503 q 419 553 396 529 q 456 607 443 576 q 469 674 469 638 q 456 740 469 708 q 419 794 443 771 q 365 831 396 818 q 297 844 333 844 q 231 831 261 844 q 176 794 200 818 q 140 740 153 771 q 126 674 126 708 l 126 33 q 114 3 126 15 q 83 -10 101 -10 q 53 3 65 -10 q 42 33 42 15 l 42 674 q 62 774 42 726 q 117 856 82 821 q 198 910 151 890 q 297 931 244 931 q 397 910 350 931 q 479 856 444 890 q 534 774 514 821 q 554 674 554 726 q 523 551 554 607 q 439 460 492 494 q 522 368 490 424 q 553 246 553 313 q 533 147 553 193 q 478 65 513 100 q 397 10 443 31 q 297 -10 350 -10 q 267 3 279 -10 q 254 33 254 15 z "},"ø":{"ha":810,"x_min":31,"x_max":701,"o":"m 368 672 q 495 645 435 672 q 601 572 556 618 q 674 465 647 526 q 701 335 701 404 q 675 206 701 267 q 603 100 649 146 q 497 28 558 54 q 365 1 436 1 q 235 26 296 1 q 129 96 175 51 q 57 201 83 140 q 31 335 31 263 q 56 465 31 404 q 127 570 82 525 q 234 642 172 615 q 368 672 296 669 m 117 335 q 136 238 117 283 q 190 159 156 193 q 269 106 224 125 q 365 86 314 86 q 463 106 417 86 q 542 159 508 125 q 596 238 576 193 q 615 335 615 283 q 596 432 615 386 q 542 512 576 478 q 463 565 508 546 q 365 585 417 585 q 269 565 314 585 q 190 512 224 546 q 136 432 156 478 q 117 335 117 386 m 458 758 q 480 783 464 775 q 513 786 496 792 q 538 764 529 779 q 540 732 546 749 l 272 -79 q 250 -104 265 -96 q 218 -107 235 -112 q 192 -85 200 -101 q 190 -53 183 -69 l 458 758 z "},"ð":{"ha":569,"x_min":13,"x_max":531,"o":"m 260 853 q 272 883 260 871 q 303 896 285 896 q 410 872 367 894 q 479 815 453 849 q 517 742 506 781 q 529 674 529 704 l 531 263 q 510 162 531 208 q 455 80 490 115 q 372 24 419 44 q 271 4 325 4 q 170 24 217 4 q 88 80 124 44 q 33 162 53 115 q 13 263 13 208 q 33 364 13 317 q 88 447 53 411 q 170 502 124 482 q 271 522 217 522 q 365 505 321 522 q 444 456 410 488 l 444 674 q 440 706 444 683 q 419 751 435 728 q 376 791 404 774 q 303 810 349 808 q 272 822 285 810 q 260 853 260 835 m 99 263 q 112 195 99 226 q 149 140 125 164 q 203 103 172 117 q 271 90 235 90 q 338 103 307 90 q 393 140 369 117 q 431 195 417 164 q 444 263 444 226 q 431 330 444 299 q 393 385 417 361 q 338 422 369 408 q 271 436 307 436 q 203 422 235 436 q 149 385 172 408 q 112 330 125 361 q 99 263 99 299 z "},"ç":{"ha":722,"x_min":26,"x_max":613,"o":"m 536 517 q 457 566 501 547 q 361 585 413 585 q 265 565 310 585 q 185 512 219 546 q 132 432 151 478 q 113 335 113 386 q 132 238 113 283 q 185 159 151 193 q 265 106 219 125 q 361 86 310 86 q 457 105 413 86 q 536 157 501 124 q 567 169 549 169 q 597 157 585 169 q 609 126 610 144 q 593 92 608 107 q 559 63 581 79 q 508 33 538 47 q 441 10 478 19 q 361 1 404 1 q 231 26 292 1 q 125 96 171 51 q 53 201 79 140 q 26 335 26 263 q 52 465 26 404 q 123 570 78 525 q 230 642 168 615 q 364 672 292 669 q 441 662 406 672 q 505 637 476 651 q 556 606 533 622 q 592 576 578 589 q 606 551 600 569 q 597 517 613 532 q 567 504 585 504 q 536 517 549 504 m 292 71 l 369 71 l 369 -21 q 428 -65 406 -33 q 451 -136 451 -96 q 416 -222 451 -186 q 331 -257 381 -257 q 245 -222 281 -257 q 210 -136 210 -186 q 222 -109 210 -121 q 249 -97 233 -97 q 276 -109 264 -97 q 288 -136 288 -121 q 302 -167 290 -156 q 331 -179 314 -179 q 361 -167 349 -179 q 374 -136 374 -154 q 362 -107 374 -119 q 331 -93 350 -94 q 303 -81 315 -93 q 292 -49 292 -68 l 292 71 z "},"Ç":{"ha":747,"x_min":35,"x_max":646,"o":"m 121 322 q 140 231 121 274 q 190 156 158 188 q 265 105 222 124 q 357 86 308 86 q 478 119 424 86 q 563 204 532 151 q 590 224 572 219 q 622 219 607 228 q 642 192 638 210 q 636 157 646 174 q 520 43 594 86 q 357 0 446 0 q 231 25 290 0 q 128 94 172 50 q 60 197 85 138 q 35 322 35 256 l 35 574 q 60 699 35 640 q 128 802 85 758 q 231 872 172 846 q 357 897 290 897 q 520 853 446 897 q 636 736 594 808 q 641 703 644 721 q 622 675 638 685 q 590 671 607 667 q 561 692 572 675 q 476 778 531 744 q 357 811 422 811 q 265 792 308 811 q 190 741 222 774 q 140 665 158 708 q 121 574 121 622 l 121 322 m 311 38 l 389 38 l 389 -54 q 448 -98 425 -67 q 471 -169 471 -129 q 435 -255 471 -219 q 350 -290 400 -290 q 265 -255 300 -290 q 229 -169 229 -219 q 241 -142 229 -154 q 268 -131 253 -131 q 295 -142 283 -131 q 307 -169 307 -154 q 322 -201 310 -189 q 350 -212 333 -212 q 381 -200 368 -212 q 393 -169 393 -187 q 381 -140 393 -153 q 350 -126 369 -128 q 323 -114 335 -126 q 311 -82 311 -101 l 311 38 z "},"å":{"ha":810,"x_min":31,"x_max":701,"o":"m 368 672 q 495 645 435 672 q 601 572 556 618 q 674 465 647 526 q 701 335 701 404 l 701 42 q 689 11 701 24 q 658 -1 676 -1 q 628 11 640 -1 q 615 42 615 24 l 615 126 q 505 38 569 75 q 365 1 440 1 q 235 26 296 1 q 129 96 175 51 q 57 201 83 140 q 31 335 31 263 q 56 465 31 404 q 127 570 82 525 q 234 642 172 615 q 368 672 296 669 m 117 335 q 136 238 117 283 q 190 159 156 193 q 269 106 224 125 q 365 86 314 86 q 460 105 415 86 q 538 157 504 124 q 592 235 572 190 q 615 335 613 281 q 596 432 615 386 q 542 512 576 478 q 463 565 508 546 q 365 585 417 585 q 269 565 314 585 q 190 512 224 546 q 136 432 156 478 q 117 335 117 386 z "},"Å":{"ha":785,"x_min":40,"x_max":686,"o":"m 600 286 l 126 286 l 126 43 q 114 13 126 25 q 83 0 101 0 q 53 13 65 0 q 40 43 40 25 l 40 574 q 65 699 40 640 q 134 802 90 758 q 237 872 178 846 q 363 897 296 897 q 488 872 429 897 q 591 802 547 846 q 660 699 635 758 q 686 574 686 640 l 686 43 q 674 13 686 25 q 643 0 661 0 q 613 13 625 0 q 600 43 600 25 l 600 286 m 126 372 l 600 372 l 600 574 q 581 665 600 622 q 530 741 563 708 q 454 792 497 774 q 363 811 411 811 q 271 792 314 811 q 196 741 228 774 q 145 665 164 708 q 126 574 126 622 l 126 372 z "},"§":{"ha":628,"x_min":32,"x_max":594,"o":"m 64 -39 q 76 -4 64 -17 q 106 8 88 8 q 136 -3 124 8 q 149 -33 149 -15 q 163 -81 149 -57 q 201 -125 176 -106 q 258 -156 225 -144 q 329 -168 290 -168 q 399 -157 367 -168 q 457 -128 432 -146 q 496 -85 482 -110 q 510 -33 510 -61 q 496 18 510 -6 q 458 58 482 42 q 453 63 457 60 q 436 75 446 67 q 310 46 379 46 q 201 67 251 46 q 113 126 150 89 q 53 215 75 164 q 32 324 32 265 q 58 442 32 388 q 129 536 85 497 q 65 606 89 565 q 42 696 42 647 q 63 782 42 742 q 119 851 83 822 q 204 898 156 881 q 307 915 253 915 q 409 899 361 915 q 493 853 457 882 q 550 785 529 824 q 572 701 571 746 q 560 667 572 679 q 531 654 549 654 q 500 666 513 654 q 488 696 488 678 q 474 744 488 719 q 435 788 460 768 q 378 819 411 807 q 307 831 346 831 q 237 819 269 831 q 179 790 204 808 q 140 747 154 772 q 126 696 126 722 q 140 644 126 668 q 178 604 154 621 q 185 599 181 603 q 207 582 192 592 q 256 597 231 592 q 310 603 282 603 q 419 581 368 603 q 507 521 469 558 q 567 433 544 483 q 589 324 589 382 q 567 215 589 265 q 507 126 544 164 q 571 56 547 97 q 594 -33 594 15 q 574 -119 594 -79 q 517 -189 553 -160 q 432 -235 481 -218 q 329 -253 383 -253 q 227 -236 275 -253 q 143 -190 179 -219 q 86 -122 107 -161 q 64 -39 65 -83 m 118 324 q 133 249 118 283 q 175 188 149 214 q 236 146 201 161 q 311 131 271 131 q 385 146 350 131 q 447 188 421 161 q 488 249 472 214 q 503 324 503 283 q 488 398 503 363 q 447 459 472 433 q 385 500 421 485 q 311 515 350 515 q 236 500 271 515 q 175 459 201 485 q 133 398 149 433 q 118 324 118 363 z "},"‡":{"ha":507,"x_min":6,"x_max":501,"o":"m 6 658 q 18 689 6 676 q 49 701 31 701 l 208 701 l 208 883 q 221 914 208 901 q 251 926 233 926 q 282 914 269 926 q 294 883 294 901 l 294 701 l 458 701 q 489 689 476 701 q 501 658 501 676 q 489 628 501 640 q 458 615 476 615 l 294 615 l 294 351 l 458 351 q 489 339 476 351 q 501 308 501 326 q 489 278 501 290 q 458 265 476 265 l 294 265 l 294 -179 q 282 -210 294 -197 q 251 -222 269 -222 q 221 -210 233 -222 q 208 -179 208 -197 l 208 265 l 49 265 q 18 278 31 265 q 6 308 6 290 q 18 339 6 326 q 49 351 31 351 l 208 351 l 208 615 l 49 615 q 18 628 31 615 q 6 658 6 640 z "},"†":{"ha":522,"x_min":4,"x_max":518,"o":"m 4 547 q 17 578 4 565 q 47 590 29 590 l 218 590 l 218 885 q 231 915 218 903 q 261 928 243 928 q 292 915 279 928 q 304 885 304 903 l 304 590 l 475 590 q 506 578 493 590 q 518 547 518 565 q 506 517 518 529 q 475 504 493 504 l 304 504 l 304 -178 q 292 -208 304 -196 q 261 -221 279 -221 q 231 -208 243 -221 q 218 -178 218 -196 l 218 504 l 47 504 q 17 517 29 504 q 4 547 4 529 z "},"«":{"ha":897,"x_min":21,"x_max":854,"o":"m 842 76 q 854 46 854 64 q 842 15 854 28 q 811 3 829 3 q 781 15 793 3 l 485 297 l 483 299 q 471 329 471 311 q 483 360 471 347 l 781 639 q 811 651 793 651 q 842 639 829 651 q 854 608 854 626 q 842 578 854 590 l 576 329 l 842 76 m 392 76 q 404 46 404 64 q 392 15 404 28 q 361 3 379 3 q 331 15 343 3 l 35 297 l 33 299 q 21 329 21 311 q 33 360 21 347 l 331 639 q 361 651 343 651 q 392 639 379 651 q 404 608 404 626 q 392 578 404 590 l 126 329 l 392 76 z "},"°":{"ha":579,"x_min":31,"x_max":549,"o":"m 31 667 q 51 768 31 721 q 106 851 71 815 q 188 906 142 886 q 289 926 235 926 q 390 906 343 926 q 473 851 438 886 q 528 768 508 815 q 549 667 549 721 q 528 566 549 613 q 473 484 508 519 q 390 428 438 449 q 289 408 343 408 q 188 428 235 408 q 106 484 142 449 q 51 566 71 519 q 31 667 31 613 m 117 667 q 130 599 117 631 q 167 544 143 568 q 222 508 190 521 q 289 494 253 494 q 356 508 325 494 q 411 544 388 521 q 449 599 435 568 q 463 667 463 631 q 449 734 463 703 q 411 789 435 765 q 356 826 388 813 q 289 840 325 840 q 222 826 253 840 q 167 789 190 813 q 130 734 143 765 q 117 667 117 703 z "},"²":{"ha":513,"x_min":32,"x_max":481,"o":"m 57 729 q 74 792 58 763 q 117 844 90 822 q 179 878 143 865 q 256 890 215 890 q 333 877 297 890 q 397 842 369 864 q 440 790 424 819 q 456 725 456 760 q 436 660 456 689 q 389 606 417 632 q 353 575 378 596 q 294 526 332 557 q 194 449 256 496 l 440 449 q 469 435 457 447 q 481 406 481 422 q 469 376 481 388 q 440 363 457 364 l 76 363 q 49 372 64 363 q 33 406 33 382 q 41 431 32 421 q 57 447 50 442 q 200 561 149 519 q 278 624 251 603 q 317 654 308 649 q 351 686 333 668 q 369 725 369 704 q 359 760 369 746 q 332 785 349 775 q 295 799 315 794 q 254 804 275 804 q 219 799 238 804 q 183 786 200 794 q 156 765 167 778 q 143 735 144 751 q 129 699 142 711 q 100 686 117 686 q 71 698 85 686 q 57 729 57 710 z "},"³":{"ha":424,"x_min":31,"x_max":390,"o":"m 168 567 q 180 597 168 585 q 210 608 192 608 q 277 636 250 608 q 304 703 304 664 q 277 769 304 742 q 210 796 250 796 q 143 769 169 796 q 117 703 117 742 q 104 672 117 685 q 74 660 92 660 q 43 672 56 660 q 31 703 31 685 q 44 773 31 740 q 83 831 58 806 q 140 869 107 856 q 210 883 172 883 q 280 869 247 883 q 338 831 313 856 q 376 773 363 806 q 390 703 390 740 q 373 626 390 663 q 326 567 356 590 q 373 506 356 542 q 390 429 390 471 q 378 365 390 397 q 342 307 365 333 q 285 265 318 281 q 210 249 251 249 q 140 263 172 249 q 83 301 107 276 q 44 359 58 326 q 31 429 31 392 q 43 460 31 447 q 74 472 56 472 q 104 460 92 472 q 117 429 117 447 q 143 363 117 390 q 210 336 169 336 q 277 363 250 336 q 304 429 304 390 q 278 494 304 467 q 210 524 251 521 q 180 536 192 524 q 168 567 168 549 z "},"ƒ":{"ha":471,"x_min":8,"x_max":464,"o":"m 97 472 q 110 503 97 490 q 140 515 122 515 l 193 515 l 193 699 q 205 768 193 729 q 244 842 217 807 q 314 900 271 876 q 421 925 357 924 q 451 913 439 925 q 464 882 464 900 q 451 851 464 864 q 421 839 439 839 q 347 819 375 838 q 304 778 319 801 q 284 731 289 754 q 279 699 279 708 l 279 515 l 338 515 q 368 503 356 515 q 381 472 381 490 q 368 442 381 454 q 338 429 356 429 l 279 429 l 279 -7 q 267 -76 279 -37 q 228 -150 256 -115 q 158 -208 201 -185 q 51 -233 115 -232 q 21 -221 33 -233 q 8 -190 8 -208 q 21 -160 8 -172 q 51 -147 33 -147 q 125 -128 97 -146 q 168 -86 153 -110 q 188 -40 183 -62 q 193 -7 193 -18 l 193 429 l 140 429 q 110 442 122 429 q 97 472 97 454 z "},"…":{"ha":733,"x_min":42,"x_max":692,"o":"m 42 57 q 58 97 42 81 q 99 114 75 114 q 139 97 122 114 q 156 57 156 81 q 139 17 156 33 q 99 0 122 0 q 58 17 75 0 q 42 57 42 33 m 310 57 q 326 97 310 81 q 367 114 343 114 q 407 97 390 114 q 424 57 424 81 q 407 17 424 33 q 367 0 390 0 q 326 17 343 0 q 310 57 310 33 m 578 57 q 594 97 578 81 q 635 114 611 114 q 675 97 658 114 q 692 57 692 81 q 675 17 692 33 q 635 0 658 0 q 594 17 611 0 q 578 57 578 33 z "},"^":{"ha":814,"x_min":18,"x_max":797,"o":"m 25 393 q 27 398 25 394 q 39 416 29 401 q 69 461 49 431 q 126 547 89 492 q 219 688 163 603 q 357 896 275 772 q 375 919 364 907 q 406 931 386 931 q 435 920 425 931 q 453 896 444 910 q 591 688 535 772 q 684 547 647 603 q 742 461 721 492 q 773 416 763 431 q 785 398 783 401 q 789 393 788 394 q 793 363 797 378 q 774 338 789 347 q 744 333 758 328 q 721 350 729 339 l 404 797 l 103 357 q 75 334 93 344 q 38 336 57 324 q 20 361 22 346 q 25 393 18 376 z "},"±":{"ha":544,"x_min":15,"x_max":531,"o":"m 272 317 q 242 329 254 317 q 229 360 229 342 l 229 532 l 58 532 q 28 544 40 532 q 15 575 15 557 q 28 606 15 593 q 58 618 40 618 l 229 618 l 229 790 q 242 821 229 808 q 272 833 254 833 q 303 821 290 833 q 315 790 315 808 l 315 618 l 488 618 q 518 606 506 618 q 531 575 531 593 q 518 544 531 557 q 488 532 506 532 l 315 532 l 315 360 q 303 329 315 342 q 272 317 290 317 m 15 224 q 28 254 15 242 q 58 267 40 267 l 486 267 q 517 254 504 267 q 529 224 529 242 q 517 193 529 206 q 486 181 504 181 l 58 181 q 28 193 40 181 q 15 224 15 206 z "},"þ":{"ha":692,"x_min":44,"x_max":689,"o":"m 92 886 q 119 874 107 888 q 132 842 132 860 l 132 563 q 367 643 289 643 q 488 619 429 643 q 596 550 547 594 q 667 448 644 503 q 689 321 689 393 q 663 196 689 254 q 593 94 638 138 q 490 25 549 50 q 368 0 432 0 q 246 26 304 0 q 142 96 188 51 q 71 198 97 140 q 44 321 44 256 l 44 850 q 56 876 44 864 q 81 886 68 888 l 92 886 m 132 321 q 151 229 132 272 q 203 154 171 186 q 278 103 235 122 q 368 85 321 85 q 458 103 415 85 q 533 154 500 122 q 585 229 565 186 q 604 321 604 272 q 585 413 604 369 q 533 488 565 456 q 458 540 500 521 q 368 558 415 558 q 278 538 321 558 q 203 485 235 518 q 151 409 171 451 q 132 321 132 367 m 46 844 q 58 875 46 863 q 89 888 71 888 q 119 875 107 888 q 132 844 132 863 l 132 -168 q 119 -199 132 -186 q 89 -211 107 -211 q 58 -199 71 -211 q 46 -168 46 -186 l 46 844 z "},"¶":{"ha":181,"x_min":44,"x_max":131,"o":"m 44 854 q 57 885 44 872 q 88 897 69 897 q 118 885 106 897 q 131 854 131 872 l 131 43 q 118 13 131 25 q 88 0 106 0 q 57 13 69 0 q 44 43 44 25 l 44 854 z "},"›":{"ha":428,"x_min":40,"x_max":424,"o":"m 318 329 l 53 578 q 40 608 40 590 q 53 639 40 626 q 83 651 65 651 q 114 639 101 651 l 411 360 q 424 329 424 347 q 411 299 424 311 l 410 297 l 114 15 q 83 3 101 3 q 53 15 65 3 q 40 46 40 28 q 53 76 40 64 l 318 329 z "},"‹":{"ha":428,"x_min":4,"x_max":388,"o":"m 375 76 q 388 46 388 64 q 375 15 388 28 q 344 3 363 3 q 314 15 326 3 l 18 297 l 17 299 q 4 329 4 311 q 17 360 4 347 l 314 639 q 344 651 326 651 q 375 639 363 651 q 388 608 388 626 q 375 578 388 590 l 110 329 l 375 76 z "},"¬":{"ha":688,"x_min":3,"x_max":643,"o":"m 600 475 q 631 463 618 475 q 643 432 643 450 l 643 235 q 631 204 643 217 q 600 192 618 192 q 569 204 582 192 q 557 235 557 217 l 557 389 l 46 389 q 15 401 28 389 q 3 432 3 414 q 15 463 3 450 q 46 475 28 475 l 600 475 z "},"©":{"ha":1065,"x_min":31,"x_max":1035,"o":"m 31 424 q 70 619 31 528 q 177 779 110 711 q 336 887 244 847 q 532 926 428 926 q 728 887 636 926 q 888 779 819 847 q 995 619 956 711 q 1035 424 1035 528 q 995 228 1035 319 q 888 69 956 136 q 728 -38 819 1 q 532 -78 636 -78 q 336 -38 428 -78 q 177 69 244 1 q 70 228 110 136 q 31 424 31 319 m 382 422 q 424 317 382 360 q 529 275 467 275 q 586 285 560 275 q 632 315 613 296 q 662 329 644 329 q 692 318 679 329 q 706 288 706 306 q 694 258 706 271 q 528 189 625 189 q 437 208 479 189 q 363 258 394 226 q 312 333 331 290 q 293 424 293 375 q 312 515 293 472 q 363 589 331 557 q 437 640 394 621 q 528 658 479 658 q 592 649 563 658 q 642 628 621 640 q 678 603 664 615 q 697 582 692 590 q 711 552 711 569 q 700 522 711 535 q 666 512 688 508 q 633 526 644 515 q 587 558 614 546 q 529 571 560 571 q 472 559 499 571 q 425 527 444 547 q 394 480 406 507 q 382 422 382 453 m 117 422 q 149 260 117 336 q 238 128 182 185 q 370 40 294 72 q 532 7 446 7 q 694 40 618 7 q 827 128 771 72 q 916 260 883 185 q 949 422 949 336 q 916 585 949 508 q 827 717 883 661 q 694 806 771 774 q 532 839 618 839 q 370 806 446 839 q 238 717 294 774 q 149 585 182 661 q 117 422 117 508 z "},"®":{"ha":1065,"x_min":31,"x_max":1035,"o":"m 31 424 q 70 619 31 528 q 177 779 110 711 q 336 887 244 847 q 532 926 428 926 q 728 887 636 926 q 888 779 819 847 q 995 619 956 711 q 1035 424 1035 528 q 995 228 1035 319 q 888 69 956 136 q 728 -38 819 1 q 532 -78 636 -78 q 336 -38 428 -78 q 177 69 244 1 q 70 228 110 136 q 31 424 31 319 m 117 422 q 149 260 117 336 q 238 128 182 185 q 370 40 294 72 q 532 7 446 7 q 694 40 618 7 q 827 128 771 72 q 916 260 883 185 q 949 422 949 336 q 916 585 949 508 q 827 717 883 661 q 694 806 771 774 q 532 839 618 839 q 370 806 446 839 q 238 717 294 774 q 149 585 182 661 q 117 422 117 508 m 432 417 q 453 513 433 467 q 507 594 474 558 q 585 650 540 629 q 683 671 631 671 q 715 658 703 671 q 728 626 728 646 q 715 594 728 607 q 683 582 703 582 q 617 567 647 581 q 566 531 588 553 q 532 479 544 508 q 518 417 519 450 l 518 217 q 506 186 518 199 q 475 174 493 174 q 444 186 457 174 q 432 217 432 199 l 432 417 z "},"­":{"ha":599,"x_min":43,"x_max":557,"o":"m 43 432 q 56 463 43 450 q 86 475 68 475 l 514 475 q 544 463 532 475 q 557 432 557 450 q 544 401 557 414 q 514 389 532 389 l 86 389 q 56 401 68 389 q 43 432 43 414 z "},"™":{"ha":1131,"x_min":35,"x_max":1088,"o":"m 35 847 q 47 878 35 865 q 78 890 60 890 l 350 890 q 381 878 368 890 q 393 847 393 865 q 381 817 393 829 q 350 804 368 804 l 257 804 l 257 528 q 244 497 257 510 q 214 485 232 485 q 183 497 196 485 q 171 528 171 510 l 171 804 l 78 804 q 47 817 60 804 q 35 847 35 829 m 486 483 q 456 496 468 483 q 443 526 443 508 l 443 708 q 457 779 443 746 q 496 838 471 813 q 554 877 521 863 q 625 892 588 892 q 703 874 667 892 q 765 826 740 857 q 826 874 790 856 q 906 892 863 892 q 976 877 943 892 q 1035 838 1010 863 q 1074 779 1060 813 q 1088 708 1088 746 l 1088 526 q 1075 496 1088 508 q 1044 483 1063 483 q 1014 496 1026 483 q 1001 526 1001 508 l 1001 713 q 970 780 997 754 q 906 806 943 806 q 838 777 865 806 q 808 708 810 749 l 808 526 q 796 496 808 508 q 765 483 783 483 q 735 496 747 483 q 722 526 722 508 l 722 713 q 692 779 719 753 q 625 806 664 806 q 558 778 585 806 q 529 713 531 751 l 529 526 q 517 496 529 508 q 486 483 504 483 z "},"ª":{"ha":578,"x_min":29,"x_max":540,"o":"m 286 925 q 384 904 338 925 q 465 849 431 883 q 520 767 500 814 q 540 668 540 721 l 540 444 q 530 416 540 431 q 497 401 519 401 q 465 416 475 401 q 454 444 454 431 l 454 496 q 381 435 418 457 q 285 414 343 414 q 185 433 232 414 q 104 487 139 453 q 49 567 69 521 q 29 668 29 614 q 49 767 29 721 q 103 847 68 813 q 185 902 138 882 q 286 925 232 922 m 117 669 q 130 603 117 635 q 166 549 143 572 q 220 513 189 526 q 286 500 251 500 q 352 513 321 500 q 406 549 383 526 q 442 603 429 572 q 456 669 456 635 q 442 735 456 704 q 406 790 429 767 q 352 826 383 813 q 286 839 321 839 q 220 826 251 839 q 166 790 189 813 q 130 735 143 767 q 117 669 117 704 z "},"º":{"ha":578,"x_min":31,"x_max":547,"o":"m 31 667 q 51 767 31 721 q 106 849 71 814 q 188 905 142 885 q 289 925 235 925 q 390 905 343 925 q 472 849 436 885 q 527 767 507 814 q 547 667 547 721 q 527 566 547 613 q 472 484 507 519 q 390 428 436 449 q 289 408 343 408 q 188 428 235 408 q 106 484 142 449 q 51 566 71 519 q 31 667 31 613 m 117 667 q 131 599 117 631 q 167 545 144 568 q 222 508 190 522 q 289 494 253 494 q 356 508 324 494 q 410 545 388 522 q 447 599 433 568 q 461 667 461 631 q 447 733 461 701 q 410 788 433 765 q 356 825 388 811 q 289 839 324 839 q 222 825 253 839 q 167 788 190 811 q 131 733 144 765 q 117 667 117 701 z "},"¤":{"ha":747,"x_min":39,"x_max":710,"o":"m 122 903 q 170 832 147 867 q 215 764 193 797 q 376 807 289 803 q 522 771 454 804 q 567 834 544 801 q 615 903 590 867 q 646 924 628 921 q 679 918 664 928 q 698 888 696 906 q 686 853 700 869 q 638 786 661 818 q 593 722 615 754 q 678 610 646 675 q 710 469 710 544 q 678 328 710 393 q 592 215 646 263 q 644 138 625 167 q 674 93 664 108 q 687 73 683 78 q 690 68 690 68 q 698 35 701 53 q 679 7 694 17 q 647 -1 664 -4 q 619 18 629 3 q 616 24 619 18 q 602 45 613 29 q 572 91 592 61 q 519 169 553 121 q 450 145 486 154 q 374 136 414 136 q 214 175 288 136 q 160 92 179 122 q 133 45 142 61 q 123 24 125 29 q 121 18 121 18 q 94 -1 111 3 q 61 7 76 -4 q 42 35 46 17 q 50 68 39 53 q 52 74 50 68 q 64 95 54 79 q 92 142 74 111 q 144 224 111 172 q 67 331 96 268 q 39 469 39 394 q 67 606 39 543 q 144 714 96 668 q 99 781 122 746 q 50 853 76 815 q 41 888 40 872 q 58 918 42 904 q 92 924 74 928 q 122 903 110 921 m 126 469 q 146 373 126 418 q 199 294 165 328 q 278 240 233 260 q 375 221 324 221 q 472 240 426 221 q 552 294 518 260 q 606 373 586 328 q 625 469 625 418 q 606 567 625 521 q 552 647 586 613 q 472 700 518 681 q 375 719 426 719 q 278 700 324 719 q 199 647 233 681 q 146 567 165 613 q 126 469 126 521 z "},"O":{"ha":715,"x_min":35,"x_max":681,"o":"m 35 574 q 60 699 35 640 q 128 802 85 758 q 231 872 172 846 q 357 897 290 897 q 483 872 424 897 q 585 802 542 846 q 655 699 629 758 q 681 574 681 640 l 681 322 q 655 197 681 256 q 585 94 629 138 q 483 25 542 50 q 357 0 424 0 q 231 25 290 0 q 128 94 172 50 q 60 197 85 138 q 35 322 35 256 l 35 574 m 121 322 q 140 231 121 274 q 190 156 158 188 q 265 105 222 124 q 357 86 308 86 q 449 105 406 86 q 524 156 492 124 q 576 231 557 188 q 594 322 594 274 l 594 574 q 576 665 594 622 q 524 741 557 708 q 449 792 492 774 q 357 811 406 811 q 265 792 308 811 q 190 741 222 774 q 140 665 158 708 q 121 574 121 622 l 121 322 z "},"P":{"ha":658,"x_min":44,"x_max":649,"o":"m 44 851 q 57 882 44 869 q 88 894 69 894 l 324 894 q 451 869 392 894 q 553 799 510 843 q 623 697 597 756 q 649 571 649 638 q 623 445 649 504 q 553 342 597 386 q 451 274 510 299 q 324 249 392 249 l 131 249 l 131 44 q 118 14 131 26 q 88 1 106 1 q 57 14 69 1 q 44 44 44 26 l 44 851 m 131 808 l 131 335 l 324 335 q 417 353 374 335 q 492 404 460 372 q 544 479 525 436 q 563 571 563 522 q 544 663 563 619 q 492 738 525 706 q 417 790 460 771 q 324 808 374 808 l 131 808 z "},"G":{"ha":708,"x_min":35,"x_max":681,"o":"m 450 415 q 463 446 450 433 q 493 458 475 458 l 638 458 q 668 446 656 458 q 681 415 681 433 l 681 322 q 655 197 681 256 q 585 94 629 138 q 483 25 542 50 q 357 0 424 0 q 231 25 290 0 q 128 94 172 50 q 60 197 85 138 q 35 322 35 256 l 35 574 q 60 699 35 640 q 128 802 85 758 q 231 872 172 846 q 357 897 290 897 q 526 850 450 897 q 642 725 601 803 q 642 697 647 711 q 622 674 636 682 q 592 669 608 665 q 565 686 576 674 q 477 775 531 739 q 357 811 424 811 q 265 792 308 811 q 190 741 222 774 q 140 665 158 708 q 121 574 121 622 l 121 322 q 140 231 121 274 q 190 156 158 188 q 265 105 222 124 q 357 86 308 86 q 449 105 406 86 q 524 156 492 124 q 576 231 557 188 q 594 322 594 274 l 594 372 l 493 372 q 463 385 475 372 q 450 415 450 397 z "},"‰":{"ha":1329,"x_min":29,"x_max":1315,"o":"m 533 888 q 553 913 538 904 q 586 918 569 922 q 611 896 603 911 q 615 864 619 881 l 338 29 q 315 4 331 13 q 283 0 300 -4 q 257 22 265 6 q 256 54 249 38 l 533 888 m 29 722 q 45 800 29 764 q 88 863 61 836 q 151 906 115 890 q 229 922 188 922 q 307 906 271 922 q 370 863 343 890 q 413 800 397 836 q 429 722 429 764 q 413 644 429 681 q 370 581 397 608 q 307 538 343 554 q 229 522 271 522 q 151 538 188 522 q 88 581 115 554 q 45 644 61 608 q 29 722 29 681 m 115 722 q 149 642 115 675 q 229 608 182 608 q 310 642 276 608 q 343 722 343 675 q 310 803 343 769 q 229 836 276 836 q 149 803 182 836 q 115 722 115 769 m 451 199 q 467 276 451 240 q 510 340 483 313 q 574 383 538 367 q 651 399 610 399 q 729 383 693 399 q 792 340 765 367 q 835 276 819 313 q 851 199 851 240 q 835 121 851 157 q 792 58 819 85 q 729 15 765 31 q 651 -1 693 -1 q 574 15 610 -1 q 510 58 538 31 q 467 121 483 85 q 451 199 451 157 m 538 199 q 571 118 538 151 q 651 85 604 85 q 732 118 699 85 q 765 199 765 151 q 732 279 765 246 q 651 313 699 313 q 571 279 604 313 q 538 199 538 246 m 915 199 q 931 276 915 240 q 974 340 947 313 q 1038 383 1001 367 q 1115 399 1074 399 q 1193 383 1157 399 q 1256 340 1229 367 q 1299 276 1283 313 q 1315 199 1315 240 q 1299 121 1315 157 q 1256 58 1283 85 q 1193 15 1229 31 q 1115 -1 1157 -1 q 1038 15 1074 -1 q 974 58 1001 31 q 931 121 947 85 q 915 199 915 157 m 1001 199 q 1035 118 1001 151 q 1115 85 1068 85 q 1196 118 1163 85 q 1229 199 1229 151 q 1196 279 1229 246 q 1115 313 1163 313 q 1035 279 1068 313 q 1001 199 1001 246 z "},"b":{"ha":721,"x_min":39,"x_max":710,"o":"m 376 672 q 503 645 443 672 q 610 572 564 618 q 683 465 656 526 q 710 335 710 404 q 683 206 710 267 q 612 100 657 146 q 506 28 567 54 q 374 1 444 1 q 244 26 304 1 q 138 96 183 51 q 65 201 92 140 q 39 335 39 263 l 39 854 q 51 885 39 872 q 82 897 64 897 q 113 885 100 897 q 125 854 125 872 l 125 546 q 235 633 171 596 q 376 672 299 669 m 125 335 q 144 238 125 283 q 198 159 164 193 q 277 106 232 125 q 374 86 322 86 q 471 106 425 86 q 551 159 517 125 q 604 238 585 193 q 624 335 624 283 q 604 432 624 386 q 551 512 585 478 q 471 565 517 546 q 374 585 425 585 q 279 566 324 585 q 201 514 235 547 q 147 435 168 481 q 125 335 126 389 z "},"Q":{"ha":788,"x_min":32,"x_max":763,"o":"m 32 574 q 57 699 32 640 q 126 802 82 758 q 228 872 169 846 q 354 897 288 897 q 480 872 421 897 q 583 802 539 846 q 652 699 626 758 q 678 574 678 640 l 678 322 q 655 201 678 257 q 592 103 632 146 q 643 47 610 68 q 719 25 676 25 q 750 13 738 25 q 763 -18 763 0 q 749 -49 763 -36 q 714 -61 736 -61 q 602 -30 651 -58 q 524 47 553 -1 q 354 0 446 0 q 228 25 288 0 q 126 94 169 50 q 57 197 82 138 q 32 322 32 256 l 32 574 m 118 322 q 149 204 118 258 q 231 298 176 263 q 354 333 285 333 q 477 298 422 333 q 560 204 532 263 q 583 260 575 231 q 592 322 592 290 l 592 574 q 573 665 592 622 q 522 741 554 708 q 446 792 489 774 q 354 811 403 811 q 263 792 306 811 q 188 741 219 774 q 137 665 156 708 q 118 574 118 622 l 118 322 m 354 86 q 430 99 393 86 q 496 132 467 111 q 482 176 496 156 q 447 213 468 197 q 401 238 426 229 q 354 247 376 247 q 263 214 301 247 q 215 131 225 181 q 279 98 244 110 q 354 86 314 86 z "},"Ü":{"ha":783,"x_min":40,"x_max":685,"o":"m 363 0 q 235 26 293 0 q 134 95 176 51 q 67 198 92 139 q 40 324 42 257 l 40 858 q 53 885 40 874 q 85 896 67 896 q 115 885 103 896 q 128 857 128 875 l 128 324 q 147 232 128 275 q 198 157 165 189 q 273 106 231 125 q 361 86 315 86 q 456 105 413 86 q 532 156 500 124 q 582 231 564 188 q 600 322 600 274 l 600 858 q 613 885 600 874 q 643 896 625 896 q 674 884 663 897 q 685 856 685 871 l 685 324 q 658 199 685 257 q 588 96 632 140 q 485 26 543 51 q 363 0 426 0 m 150 1081 q 167 1121 150 1104 q 207 1138 183 1138 q 247 1121 231 1138 q 264 1081 264 1104 q 247 1040 264 1057 q 207 1024 231 1024 q 167 1040 183 1024 q 150 1081 150 1057 m 467 1081 q 483 1121 467 1104 q 524 1138 500 1138 q 564 1121 547 1138 q 581 1081 581 1104 q 564 1040 581 1057 q 524 1024 547 1024 q 483 1040 500 1024 q 467 1081 467 1057 z "},"Û":{"ha":783,"x_min":40,"x_max":685,"o":"m 363 0 q 235 26 293 0 q 134 95 176 51 q 67 198 92 139 q 40 324 42 257 l 40 858 q 53 885 40 874 q 85 896 67 896 q 115 885 103 896 q 128 857 128 875 l 128 324 q 147 232 128 275 q 198 157 165 189 q 273 106 231 125 q 361 86 315 86 q 456 105 413 86 q 532 156 500 124 q 582 231 564 188 q 600 322 600 274 l 600 858 q 613 885 600 874 q 643 896 625 896 q 674 884 663 897 q 685 856 685 871 l 685 324 q 658 199 685 257 q 588 96 632 140 q 485 26 543 51 q 363 0 426 0 m 363 1142 l 186 961 q 156 949 174 949 q 125 961 138 949 q 113 992 113 974 q 125 1022 113 1010 l 332 1235 q 363 1247 344 1247 q 393 1235 381 1247 l 394 1233 l 601 1025 q 614 994 614 1013 q 601 964 614 976 q 571 951 589 951 q 540 964 553 951 l 363 1142 z "},"Ø":{"ha":785,"x_min":47,"x_max":693,"o":"m 47 574 q 72 699 47 640 q 141 802 97 758 q 244 872 185 846 q 369 897 303 897 q 495 872 436 897 q 598 802 554 846 q 667 699 642 758 q 693 574 693 640 l 693 322 q 667 197 693 256 q 598 94 642 138 q 495 25 554 50 q 369 0 436 0 q 244 25 303 0 q 141 94 185 50 q 72 197 97 138 q 47 322 47 256 l 47 574 m 133 322 q 152 231 133 274 q 203 156 171 188 q 278 105 235 124 q 369 86 321 86 q 461 105 418 86 q 537 156 504 124 q 588 231 569 188 q 607 322 607 274 l 607 574 q 588 665 607 622 q 537 741 569 708 q 461 792 504 774 q 369 811 418 811 q 278 792 321 811 q 203 741 235 774 q 152 665 171 708 q 133 574 133 622 l 133 322 m 474 865 q 495 890 479 882 q 528 893 511 899 q 553 871 544 886 q 556 839 561 856 l 288 28 q 265 3 281 11 q 233 0 250 -6 q 207 22 215 6 q 206 54 199 38 l 474 865 z "},"e":{"ha":729,"x_min":31,"x_max":704,"o":"m 119 294 q 149 212 126 250 q 203 146 171 174 q 278 102 236 118 q 365 86 319 86 q 461 105 417 86 q 540 157 506 124 q 571 169 553 169 q 601 157 589 169 q 614 126 614 144 q 601 96 614 108 q 498 23 556 44 q 365 1 440 1 q 235 26 296 1 q 129 96 175 51 q 57 201 83 140 q 31 335 31 263 q 56 465 31 404 q 127 570 82 525 q 234 642 172 615 q 368 672 296 669 q 494 646 435 672 q 599 575 553 619 q 672 471 644 531 q 701 343 699 411 q 690 307 704 319 q 658 294 675 294 l 119 294 m 365 585 q 278 569 319 585 q 205 526 238 553 q 151 461 172 499 q 121 381 129 424 l 611 381 q 581 461 603 424 q 526 526 558 499 q 452 569 493 553 q 365 585 411 585 z "},"Ñ":{"ha":735,"x_min":40,"x_max":686,"o":"m 600 574 q 581 665 600 622 q 530 741 563 708 q 454 792 497 774 q 363 811 411 811 q 271 792 314 811 q 196 741 228 774 q 145 665 164 708 q 126 574 126 622 l 126 43 q 114 13 126 25 q 83 0 101 0 q 53 13 65 0 q 40 43 40 25 l 40 574 q 65 699 40 640 q 134 802 90 758 q 237 872 178 846 q 363 897 296 897 q 488 872 429 897 q 591 802 547 846 q 660 699 635 758 q 686 574 686 640 l 686 43 q 674 13 686 25 q 643 0 661 0 q 613 13 625 0 q 600 43 600 25 l 600 574 m 101 1004 q 86 1033 86 1015 q 99 1064 86 1051 q 131 1101 113 1082 q 171 1137 150 1121 q 215 1163 192 1153 q 264 1174 239 1174 q 322 1157 293 1174 q 377 1120 350 1140 q 428 1083 404 1100 q 471 1067 451 1067 q 501 1076 486 1067 q 529 1097 517 1085 q 551 1123 542 1110 q 567 1146 561 1136 q 592 1164 576 1160 q 621 1160 607 1168 q 640 1134 636 1150 q 635 1104 643 1118 q 607 1060 624 1082 q 569 1022 590 1039 q 522 996 547 1006 q 471 986 497 986 q 415 1003 442 986 q 363 1039 389 1019 q 313 1075 338 1058 q 264 1092 289 1092 q 232 1083 247 1092 q 203 1063 217 1075 q 178 1036 189 1050 q 157 1011 167 1022 q 131 995 147 997 q 101 1004 115 993 z "},"Î":{"ha":192,"x_min":-160,"x_max":342,"o":"m 44 854 q 57 885 44 872 q 88 897 69 897 q 118 885 106 897 q 131 854 131 872 l 131 43 q 118 13 131 25 q 88 0 106 0 q 57 13 69 0 q 44 43 44 25 l 44 854 m 90 1138 l -86 957 q -117 944 -99 944 q -147 957 -135 944 q -160 988 -160 969 q -147 1018 -160 1006 l 60 1231 q 90 1243 72 1243 q 121 1231 108 1243 l 122 1229 l 329 1021 q 342 990 342 1008 q 329 960 342 972 q 299 947 317 947 q 268 960 281 947 l 90 1138 z "},"Ï":{"ha":192,"x_min":-129,"x_max":301,"o":"m 44 854 q 57 885 44 872 q 88 897 69 897 q 118 885 106 897 q 131 854 131 872 l 131 43 q 118 13 131 25 q 88 0 106 0 q 57 13 69 0 q 44 43 44 25 l 44 854 m -129 1083 q -112 1124 -129 1107 q -72 1140 -96 1140 q -32 1124 -49 1140 q -15 1083 -15 1107 q -32 1043 -15 1060 q -72 1026 -49 1026 q -112 1043 -96 1026 q -129 1083 -129 1060 m 188 1083 q 204 1124 188 1107 q 244 1140 221 1140 q 285 1124 268 1140 q 301 1083 301 1107 q 285 1043 301 1060 q 244 1026 268 1026 q 204 1043 221 1026 q 188 1083 188 1060 z "},"Ô":{"ha":724,"x_min":35,"x_max":681,"o":"m 35 574 q 60 699 35 640 q 128 802 85 758 q 231 872 172 846 q 357 897 290 897 q 483 872 424 897 q 585 802 542 846 q 655 699 629 758 q 681 574 681 640 l 681 322 q 655 197 681 256 q 585 94 629 138 q 483 25 542 50 q 357 0 424 0 q 231 25 290 0 q 128 94 172 50 q 60 197 85 138 q 35 322 35 256 l 35 574 m 121 322 q 140 231 121 274 q 190 156 158 188 q 265 105 222 124 q 357 86 308 86 q 449 105 406 86 q 524 156 492 124 q 576 231 557 188 q 594 322 594 274 l 594 574 q 576 665 594 622 q 524 741 557 708 q 449 792 492 774 q 357 811 406 811 q 265 792 308 811 q 190 741 222 774 q 140 665 158 708 q 121 574 121 622 l 121 322 m 353 1138 l 176 957 q 146 944 164 944 q 115 957 128 944 q 103 988 103 969 q 115 1018 103 1006 l 322 1231 q 353 1243 335 1243 q 383 1231 371 1243 l 385 1229 l 592 1021 q 604 990 604 1008 q 592 960 604 972 q 561 947 579 947 q 531 960 543 947 l 353 1138 z "},"Õ":{"ha":724,"x_min":35,"x_max":681,"o":"m 35 574 q 60 699 35 640 q 128 802 85 758 q 231 872 172 846 q 357 897 290 897 q 483 872 424 897 q 585 802 542 846 q 655 699 629 758 q 681 574 681 640 l 681 322 q 655 197 681 256 q 585 94 629 138 q 483 25 542 50 q 357 0 424 0 q 231 25 290 0 q 128 94 172 50 q 60 197 85 138 q 35 322 35 256 l 35 574 m 121 322 q 140 231 121 274 q 190 156 158 188 q 265 105 222 124 q 357 86 308 86 q 449 105 406 86 q 524 156 492 124 q 576 231 557 188 q 594 322 594 274 l 594 574 q 576 665 594 622 q 524 741 557 708 q 449 792 492 774 q 357 811 406 811 q 265 792 308 811 q 190 741 222 774 q 140 665 158 708 q 121 574 121 622 l 121 322 m 92 1004 q 76 1033 76 1015 q 89 1064 76 1051 q 122 1101 103 1082 q 161 1137 140 1121 q 206 1163 182 1153 q 254 1174 229 1174 q 312 1157 283 1174 q 367 1120 340 1140 q 418 1083 394 1100 q 461 1067 442 1067 q 492 1076 476 1067 q 519 1097 507 1085 q 542 1123 532 1110 q 557 1146 551 1136 q 582 1164 567 1160 q 611 1160 597 1168 q 630 1134 626 1150 q 625 1104 633 1118 q 597 1060 614 1082 q 559 1022 581 1039 q 513 996 538 1006 q 461 986 488 986 q 406 1003 432 986 q 353 1039 379 1019 q 303 1075 328 1058 q 254 1092 279 1092 q 222 1083 238 1092 q 193 1063 207 1075 q 168 1036 179 1050 q 147 1011 157 1022 q 122 995 138 997 q 92 1004 106 993 z "},"Ò":{"ha":724,"x_min":35,"x_max":681,"o":"m 35 574 q 60 699 35 640 q 128 802 85 758 q 231 872 172 846 q 357 897 290 897 q 483 872 424 897 q 585 802 542 846 q 655 699 629 758 q 681 574 681 640 l 681 322 q 655 197 681 256 q 585 94 629 138 q 483 25 542 50 q 357 0 424 0 q 231 25 290 0 q 128 94 172 50 q 60 197 85 138 q 35 322 35 256 l 35 574 m 121 322 q 140 231 121 274 q 190 156 158 188 q 265 105 222 124 q 357 86 308 86 q 449 105 406 86 q 524 156 492 124 q 576 231 557 188 q 594 322 594 274 l 594 574 q 576 665 594 622 q 524 741 557 708 q 449 792 492 774 q 357 811 406 811 q 265 792 308 811 q 190 741 222 774 q 140 665 158 708 q 121 574 121 622 l 121 322 m 375 1064 q 393 1038 389 1054 q 390 1006 397 1022 q 363 985 379 989 q 331 990 346 982 l 133 1106 q 115 1133 118 1117 q 119 1165 111 1150 q 145 1185 128 1181 q 178 1179 163 1190 l 375 1064 z "},"è":{"ha":736,"x_min":31,"x_max":704,"o":"m 119 294 q 149 212 126 250 q 203 146 171 174 q 278 102 236 118 q 365 86 319 86 q 461 105 417 86 q 540 157 506 124 q 571 169 553 169 q 601 157 589 169 q 614 126 614 144 q 601 96 614 108 q 498 23 556 44 q 365 1 440 1 q 235 26 296 1 q 129 96 175 51 q 57 201 83 140 q 31 335 31 263 q 56 465 31 404 q 127 570 82 525 q 234 642 172 615 q 368 672 296 669 q 494 646 435 672 q 599 575 553 619 q 672 471 644 531 q 701 343 699 411 q 690 307 704 319 q 658 294 675 294 l 119 294 m 365 585 q 278 569 319 585 q 205 526 238 553 q 151 461 172 499 q 121 381 129 424 l 611 381 q 581 461 603 424 q 526 526 558 499 q 452 569 493 553 q 365 585 411 585 m 365 839 q 383 813 379 829 q 381 781 388 797 q 353 760 369 764 q 321 765 336 757 l 124 881 q 105 908 108 892 q 110 940 101 925 q 135 960 118 956 q 168 954 153 965 l 365 839 z "},"é":{"ha":736,"x_min":31,"x_max":704,"o":"m 119 294 q 149 212 126 250 q 203 146 171 174 q 278 102 236 118 q 365 86 319 86 q 461 105 417 86 q 540 157 506 124 q 571 169 553 169 q 601 157 589 169 q 614 126 614 144 q 601 96 614 108 q 498 23 556 44 q 365 1 440 1 q 235 26 296 1 q 129 96 175 51 q 57 201 83 140 q 31 335 31 263 q 56 465 31 404 q 127 570 82 525 q 234 642 172 615 q 368 672 296 669 q 494 646 435 672 q 599 575 553 619 q 672 471 644 531 q 701 343 699 411 q 690 307 704 319 q 658 294 675 294 l 119 294 m 365 585 q 278 569 319 585 q 205 526 238 553 q 151 461 172 499 q 121 381 129 424 l 611 381 q 581 461 603 424 q 526 526 558 499 q 452 569 493 553 q 365 585 411 585 m 497 954 q 530 960 513 965 q 556 940 547 956 q 560 908 564 925 q 542 881 557 892 l 344 765 q 313 760 329 757 q 285 781 296 764 q 282 813 278 797 q 300 839 286 829 l 497 954 z "},"ê":{"ha":736,"x_min":31,"x_max":704,"o":"m 119 294 q 149 212 126 250 q 203 146 171 174 q 278 102 236 118 q 365 86 319 86 q 461 105 417 86 q 540 157 506 124 q 571 169 553 169 q 601 157 589 169 q 614 126 614 144 q 601 96 614 108 q 498 23 556 44 q 365 1 440 1 q 235 26 296 1 q 129 96 175 51 q 57 201 83 140 q 31 335 31 263 q 56 465 31 404 q 127 570 82 525 q 234 642 172 615 q 368 672 296 669 q 494 646 435 672 q 599 575 553 619 q 672 471 644 531 q 701 343 699 411 q 690 307 704 319 q 658 294 675 294 l 119 294 m 365 585 q 278 569 319 585 q 205 526 238 553 q 151 461 172 499 q 121 381 129 424 l 611 381 q 581 461 603 424 q 526 526 558 499 q 452 569 493 553 q 365 585 411 585 m 371 918 l 194 738 q 164 725 182 725 q 133 738 146 725 q 121 768 121 750 q 133 799 121 786 l 340 1011 q 371 1024 353 1024 q 401 1011 389 1024 l 403 1010 l 610 801 q 622 771 622 789 q 610 740 622 753 q 579 728 597 728 q 549 740 561 728 l 371 918 z "},"Ó":{"ha":724,"x_min":35,"x_max":681,"o":"m 35 574 q 60 699 35 640 q 128 802 85 758 q 231 872 172 846 q 357 897 290 897 q 483 872 424 897 q 585 802 542 846 q 655 699 629 758 q 681 574 681 640 l 681 322 q 655 197 681 256 q 585 94 629 138 q 483 25 542 50 q 357 0 424 0 q 231 25 290 0 q 128 94 172 50 q 60 197 85 138 q 35 322 35 256 l 35 574 m 121 322 q 140 231 121 274 q 190 156 158 188 q 265 105 222 124 q 357 86 308 86 q 449 105 406 86 q 524 156 492 124 q 576 231 557 188 q 594 322 594 274 l 594 574 q 576 665 594 622 q 524 741 557 708 q 449 792 492 774 q 357 811 406 811 q 265 792 308 811 q 190 741 222 774 q 140 665 158 708 q 121 574 121 622 l 121 322 m 478 1182 q 510 1188 493 1193 q 536 1168 528 1183 q 541 1136 544 1153 q 522 1108 538 1119 l 325 993 q 293 988 310 985 q 265 1008 276 992 q 263 1041 258 1025 q 281 1067 267 1057 l 478 1182 z "},"ˇ":{"ha":540,"x_min":19,"x_max":521,"o":"m 447 1183 q 478 1196 460 1196 q 508 1183 496 1196 q 521 1153 521 1171 q 508 1122 521 1135 l 301 914 l 300 913 q 269 900 288 900 q 239 913 251 900 l 32 1125 q 19 1156 19 1138 q 32 1186 19 1174 q 63 1199 44 1199 q 93 1186 81 1199 l 269 1006 l 447 1183 z "},"Ž":{"ha":701,"x_min":25,"x_max":671,"o":"m 25 853 q 38 883 25 871 q 68 896 50 896 l 628 896 q 658 883 646 896 q 671 853 671 871 q 665 832 671 842 q 660 824 658 822 l 144 86 l 628 86 q 658 74 646 86 q 671 43 671 61 q 658 13 671 25 q 628 0 646 0 l 68 0 q 38 13 50 0 q 25 43 25 25 q 33 69 25 54 l 547 810 l 68 810 q 38 822 50 810 q 25 853 25 835 m 526 1236 q 557 1249 539 1249 q 588 1236 575 1249 q 600 1206 600 1224 q 588 1175 600 1188 l 381 967 l 379 965 q 349 953 367 953 q 318 965 331 953 l 111 1178 q 99 1208 99 1190 q 111 1239 99 1226 q 142 1251 124 1251 q 172 1239 160 1251 l 349 1058 l 526 1236 z "},"Š":{"ha":644,"x_min":25,"x_max":615,"o":"m 56 43 q 68 74 56 61 q 99 86 81 86 l 371 86 q 433 99 404 86 q 483 132 463 111 q 517 181 504 153 q 529 242 529 210 q 517 302 529 274 q 483 351 504 331 q 433 385 463 372 q 371 397 404 397 l 269 397 q 174 417 218 397 q 96 472 129 438 q 44 551 63 506 q 25 649 25 597 q 44 744 25 700 q 96 822 63 789 q 174 875 129 856 q 269 894 218 894 l 556 894 q 586 882 574 894 q 599 851 599 869 q 586 822 599 833 q 556 810 574 810 l 269 810 q 208 797 236 810 q 158 763 179 785 q 124 712 136 740 q 111 650 111 683 q 124 587 111 617 q 158 534 136 557 q 208 498 179 511 q 269 485 236 485 l 371 485 q 467 466 422 485 q 544 414 511 447 q 597 336 578 381 q 615 242 615 292 q 597 147 615 192 q 544 70 578 103 q 467 19 511 38 q 371 0 422 0 l 99 0 q 68 13 81 0 q 56 43 56 25 m 499 1282 q 529 1294 511 1294 q 560 1282 547 1294 q 572 1251 572 1269 q 560 1221 572 1233 l 353 1013 l 351 1011 q 321 999 339 999 q 290 1011 303 999 l 83 1224 q 71 1254 71 1236 q 83 1285 71 1272 q 114 1297 96 1297 q 144 1285 132 1297 l 321 1104 l 499 1282 z "},"š":{"ha":601,"x_min":32,"x_max":574,"o":"m 46 43 q 58 74 46 61 q 89 86 71 86 l 389 86 q 458 115 429 86 q 488 185 488 144 q 458 254 488 225 q 389 283 429 283 l 226 283 q 151 299 186 283 q 89 340 115 314 q 47 402 63 367 q 32 478 32 438 q 47 554 32 518 q 89 617 63 590 q 151 658 115 643 q 226 674 186 674 l 510 674 q 540 661 528 674 q 553 631 553 649 q 540 600 553 613 q 510 588 528 588 l 226 588 q 150 554 182 586 q 118 478 118 522 q 150 401 118 433 q 226 369 182 369 l 389 369 q 460 355 426 369 q 519 315 494 340 q 559 256 544 290 q 574 185 574 222 q 559 113 574 147 q 519 54 544 79 q 460 15 494 29 q 389 0 426 0 l 89 0 q 58 13 71 0 q 46 43 46 25 m 476 1019 q 507 1032 489 1032 q 538 1019 525 1032 q 550 989 550 1007 q 538 958 550 971 l 331 750 l 329 749 q 299 736 317 736 q 268 749 281 736 l 61 961 q 49 992 49 974 q 61 1022 49 1010 q 92 1035 74 1035 q 122 1022 110 1035 l 299 842 l 476 1019 z "},"î":{"ha":342,"x_min":-168,"x_max":333,"o":"m 82 918 l -94 738 q -125 725 -107 725 q -156 738 -143 725 q -168 768 -168 750 q -156 799 -168 786 l 51 1011 q 82 1024 64 1024 q 113 1011 100 1024 l 114 1010 l 321 801 q 333 771 333 789 q 321 740 333 753 q 290 728 308 728 q 260 740 272 728 l 82 918 m 47 622 q 60 653 47 640 q 90 665 72 665 q 121 653 108 665 q 133 622 133 640 l 133 43 q 121 13 133 25 q 90 0 108 0 q 60 13 72 0 q 47 43 47 25 l 47 622 z "},"ï":{"ha":319,"x_min":-125,"x_max":306,"o":"m -125 851 q -108 892 -125 875 q -68 908 -92 908 q -28 892 -44 908 q -11 851 -11 875 q -28 811 -11 828 q -68 794 -44 794 q -108 811 -92 794 q -125 851 -125 828 m 192 851 q 208 892 192 875 q 249 908 225 908 q 289 892 272 908 q 306 851 306 875 q 289 811 306 828 q 249 794 272 794 q 208 811 225 794 q 192 851 192 828 m 44 622 q 57 653 44 640 q 88 665 69 665 q 118 653 106 665 q 131 622 131 640 l 131 43 q 118 13 131 25 q 88 0 106 0 q 57 13 69 0 q 44 43 44 25 l 44 622 z "},"ı":{"ha":179,"x_min":44,"x_max":131,"o":"m 44 622 q 57 653 44 640 q 88 665 69 665 q 118 653 106 665 q 131 622 131 640 l 131 43 q 118 13 131 25 q 88 0 106 0 q 57 13 69 0 q 44 43 44 25 l 44 622 z "},"ì":{"ha":346,"x_min":3,"x_max":314,"o":"m 210 43 q 222 13 210 25 q 253 0 235 0 q 283 13 271 0 q 296 43 296 25 l 296 622 q 283 653 296 640 q 253 665 271 665 q 222 653 235 665 q 210 622 210 640 l 210 43 m 281 840 q 306 820 297 835 q 311 788 314 806 q 290 761 306 769 q 258 757 275 753 l 36 814 q 11 835 19 819 q 7 867 3 850 q 26 894 11 885 q 60 897 42 903 l 281 840 m 208 43 q 221 13 208 25 q 251 0 233 0 q 282 13 269 0 q 294 43 294 25 l 294 622 q 282 653 294 640 q 251 665 269 665 q 221 653 233 665 q 208 622 208 640 l 208 43 z "},"¼":{"ha":751,"x_min":18,"x_max":731,"o":"m 26 749 q 22 781 18 764 q 42 807 26 797 l 197 906 q 248 913 224 924 q 272 874 272 901 l 272 439 q 260 408 272 421 q 229 396 247 396 q 199 408 211 396 q 186 439 186 421 l 186 794 l 86 733 q 53 728 71 724 q 26 749 36 733 m 471 864 q 491 890 475 881 q 524 894 507 899 q 549 872 540 888 q 553 840 557 857 l 281 29 q 258 4 274 13 q 226 0 243 -4 q 200 22 208 6 q 199 54 192 38 l 471 864 m 504 511 q 524 538 508 529 q 557 540 540 546 q 583 519 574 535 q 586 486 592 503 l 515 247 l 601 247 l 601 322 q 614 353 601 340 q 644 365 626 365 q 675 353 663 365 q 688 322 688 340 l 688 247 q 718 235 706 247 q 731 204 731 222 q 718 174 731 186 q 688 161 706 161 l 688 44 q 675 14 688 26 q 644 1 663 1 q 614 14 626 1 q 601 44 601 26 l 601 161 l 460 161 q 424 178 439 161 q 415 218 408 194 l 504 511 z "},"½":{"ha":904,"x_min":22,"x_max":888,"o":"m 31 749 q 26 781 22 764 q 46 807 31 797 l 201 906 q 252 913 228 924 q 276 874 276 901 l 276 439 q 264 408 276 421 q 233 396 251 396 q 203 408 215 396 q 190 439 190 421 l 190 794 l 90 733 q 58 728 75 724 q 31 749 40 733 m 464 368 q 481 431 465 401 q 524 483 497 461 q 586 517 550 504 q 663 529 622 529 q 740 516 704 529 q 803 481 776 503 q 847 428 831 458 q 863 364 863 399 q 843 299 863 328 q 796 244 824 271 q 760 214 785 235 q 701 165 739 196 q 601 88 663 135 l 847 88 q 876 74 864 86 q 888 44 888 61 q 876 15 888 26 q 847 1 864 3 l 483 1 q 456 11 471 1 q 440 44 440 21 q 448 70 439 60 q 464 86 457 81 q 607 200 556 158 q 685 263 658 242 q 724 293 715 288 q 758 325 740 307 q 776 364 776 343 q 766 399 776 385 q 739 424 756 414 q 702 438 722 433 q 661 443 682 443 q 626 438 644 443 q 590 425 607 433 q 563 403 574 417 q 550 374 551 390 q 536 338 549 350 q 507 325 524 325 q 478 337 492 325 q 464 368 464 349 m 474 865 q 494 891 478 882 q 526 896 510 900 q 551 874 543 889 q 556 842 560 858 l 285 29 q 263 4 278 13 q 231 0 247 -4 q 204 22 213 6 q 203 54 196 38 l 474 865 z "},"¾":{"ha":840,"x_min":24,"x_max":818,"o":"m 161 608 q 173 638 161 626 q 203 650 185 650 q 270 678 243 650 q 297 744 297 706 q 270 810 297 783 q 203 838 243 838 q 136 810 163 838 q 110 744 110 783 q 97 714 110 726 q 67 701 85 701 q 36 714 49 701 q 24 744 24 726 q 38 815 24 782 q 76 872 51 847 q 133 911 100 897 q 203 925 165 925 q 273 911 240 925 q 331 872 306 897 q 369 815 356 847 q 383 744 383 782 q 366 668 383 704 q 319 608 349 632 q 366 548 349 583 q 383 471 383 513 q 371 407 383 439 q 335 349 358 375 q 278 306 311 322 q 203 290 244 290 q 133 304 165 290 q 76 343 100 318 q 38 401 51 368 q 24 471 24 433 q 36 501 24 489 q 67 514 49 514 q 97 501 85 514 q 110 471 110 489 q 136 405 110 432 q 203 378 163 378 q 270 405 243 378 q 297 471 297 432 q 271 535 297 508 q 203 565 244 563 q 173 578 185 565 q 161 608 161 590 m 563 865 q 583 891 567 882 q 615 896 599 900 q 640 874 632 889 q 644 842 649 858 l 372 29 q 350 4 365 13 q 318 0 335 -4 q 292 22 300 6 q 290 54 283 38 l 563 865 m 592 511 q 612 538 596 529 q 644 540 628 546 q 670 519 661 535 q 674 486 679 503 l 603 247 l 689 247 l 689 322 q 701 353 689 340 q 732 365 714 365 q 763 353 750 365 q 775 322 775 340 l 775 247 q 806 235 793 247 q 818 204 818 222 q 806 174 818 186 q 775 161 793 161 l 775 44 q 763 14 775 26 q 732 1 750 1 q 701 14 714 1 q 689 44 689 26 l 689 161 l 547 161 q 511 178 526 161 q 503 218 496 194 l 592 511 z "},"€":{"ha":735,"x_min":25,"x_max":706,"o":"m 25 553 q 38 583 25 571 q 68 596 50 596 l 94 596 q 125 714 99 658 q 195 810 151 769 q 295 874 239 850 q 417 897 351 897 q 580 853 506 897 q 696 736 654 808 q 701 703 704 721 q 682 675 697 685 q 649 671 667 667 q 621 692 632 675 q 536 778 590 744 q 417 811 482 811 q 329 794 371 811 q 256 749 288 778 q 205 680 225 719 q 181 596 185 640 l 325 596 q 356 583 343 596 q 368 553 368 571 q 356 522 368 535 q 325 510 343 510 l 181 510 l 181 381 l 325 381 q 356 368 343 381 q 368 338 368 356 q 356 307 368 319 q 325 294 343 294 l 181 294 q 204 209 185 249 q 256 140 224 169 q 328 93 288 110 q 417 76 369 76 q 538 109 483 76 q 622 194 592 142 q 649 214 632 210 q 682 210 667 218 q 701 182 697 200 q 696 147 706 164 q 580 33 654 76 q 417 -10 506 -10 q 294 14 351 -10 q 194 78 238 38 q 125 175 151 119 q 94 294 99 231 l 68 294 q 38 307 50 294 q 25 338 25 319 q 38 368 25 356 q 68 381 50 381 l 94 381 l 94 510 l 68 510 q 38 522 50 510 q 25 553 25 535 z "},"f":{"ha":472,"x_min":8,"x_max":464,"o":"m 65 431 q 78 461 65 449 q 108 474 90 474 l 193 474 l 193 669 q 205 739 193 700 q 244 813 217 778 q 314 871 271 847 q 421 896 357 894 q 451 883 439 896 q 464 853 464 871 q 451 822 464 835 q 421 810 439 810 q 347 790 375 808 q 304 749 319 772 q 284 702 289 725 q 279 669 279 679 l 279 474 l 374 474 q 404 461 392 474 q 417 431 417 449 q 404 400 417 413 q 374 388 392 388 l 279 388 l 279 -25 q 267 -94 279 -56 q 228 -168 256 -133 q 158 -226 201 -203 q 51 -251 115 -250 q 21 -239 33 -251 q 8 -208 8 -226 q 21 -178 8 -190 q 51 -165 33 -165 q 125 -146 97 -164 q 168 -104 153 -128 q 188 -58 183 -81 q 193 -25 193 -36 l 193 388 l 108 388 q 78 400 90 388 q 65 431 65 413 z "},"’":{"ha":226,"x_min":11,"x_max":215,"o":"m 132 861 q 158 883 140 878 q 190 878 175 888 q 210 852 206 869 q 208 819 215 835 l 94 621 q 69 601 86 606 q 36 604 51 596 q 16 631 21 615 q 19 663 11 647 l 132 861 z "},"‘":{"ha":226,"x_min":11,"x_max":215,"o":"m 207 663 q 210 631 215 647 q 190 604 206 615 q 158 601 175 596 q 132 621 140 606 l 18 819 q 16 852 11 835 q 36 878 21 869 q 69 883 51 888 q 94 861 86 878 l 207 663 z "},"Ö":{"ha":710,"x_min":35,"x_max":681,"o":"m 35 574 q 60 699 35 640 q 128 802 85 758 q 231 872 172 846 q 357 897 290 897 q 483 872 424 897 q 585 802 542 846 q 655 699 629 758 q 681 574 681 640 l 681 322 q 655 197 681 256 q 585 94 629 138 q 483 25 542 50 q 357 0 424 0 q 231 25 290 0 q 128 94 172 50 q 60 197 85 138 q 35 322 35 256 l 35 574 m 121 322 q 140 231 121 274 q 190 156 158 188 q 265 105 222 124 q 357 86 308 86 q 449 105 406 86 q 524 156 492 124 q 576 231 557 188 q 594 322 594 274 l 594 574 q 576 665 594 622 q 524 741 557 708 q 449 792 492 774 q 357 811 406 811 q 265 792 308 811 q 190 741 222 774 q 140 665 158 708 q 121 574 121 622 l 121 322 m 143 1085 q 160 1125 143 1108 q 200 1142 176 1142 q 240 1125 224 1142 q 257 1085 257 1108 q 240 1044 257 1061 q 200 1028 224 1028 q 160 1044 176 1028 q 143 1085 143 1061 m 460 1085 q 476 1125 460 1108 q 517 1142 493 1142 q 557 1125 540 1142 q 574 1085 574 1108 q 557 1044 574 1061 q 517 1028 540 1028 q 476 1044 493 1028 q 460 1085 460 1061 z "},"ń":{"ha":744,"x_min":38,"x_max":707,"o":"m 38 340 q 64 471 38 410 q 135 577 90 532 q 242 649 181 622 q 372 675 303 675 q 503 649 442 675 q 609 577 564 622 q 681 471 654 532 q 707 340 707 410 l 707 43 q 694 13 707 25 q 664 0 682 0 q 633 13 646 0 q 621 43 621 25 l 621 340 q 601 437 621 392 q 548 516 582 482 q 469 569 514 550 q 372 589 424 589 q 276 569 321 589 q 197 516 231 550 q 143 437 163 482 q 124 340 124 392 l 124 43 q 111 13 124 25 q 81 0 99 0 q 50 13 63 0 q 38 43 38 25 l 38 340 m 519 951 q 552 958 535 963 q 578 938 569 953 q 583 906 586 922 q 564 878 579 889 l 367 763 q 335 758 351 754 q 307 778 318 761 q 304 810 300 794 q 322 836 308 826 l 519 951 z "},"ň":{"ha":744,"x_min":38,"x_max":707,"o":"m 38 340 q 64 471 38 410 q 135 577 90 532 q 242 649 181 622 q 372 675 303 675 q 503 649 442 675 q 609 577 564 622 q 681 471 654 532 q 707 340 707 410 l 707 43 q 694 13 707 25 q 664 0 682 0 q 633 13 646 0 q 621 43 621 25 l 621 340 q 601 437 621 392 q 548 516 582 482 q 469 569 514 550 q 372 589 424 589 q 276 569 321 589 q 197 516 231 550 q 143 437 163 482 q 124 340 124 392 l 124 43 q 111 13 124 25 q 81 0 99 0 q 50 13 63 0 q 38 43 38 25 l 38 340 m 549 1008 q 579 1021 561 1021 q 610 1008 597 1021 q 622 978 622 996 q 610 947 622 960 l 403 739 l 401 738 q 371 725 389 725 q 340 738 353 725 l 133 950 q 121 981 121 963 q 133 1011 121 999 q 164 1024 146 1024 q 194 1011 182 1024 l 371 831 l 549 1008 z "},"Ń":{"ha":726,"x_min":40,"x_max":686,"o":"m 600 574 q 581 665 600 622 q 530 741 563 708 q 454 792 497 774 q 363 811 411 811 q 271 792 314 811 q 196 741 228 774 q 145 665 164 708 q 126 574 126 622 l 126 43 q 114 13 126 25 q 83 0 101 0 q 53 13 65 0 q 40 43 40 25 l 40 574 q 65 699 40 640 q 134 802 90 758 q 237 872 178 846 q 363 897 296 897 q 488 872 429 897 q 591 802 547 846 q 660 699 635 758 q 686 574 686 640 l 686 43 q 674 13 686 25 q 643 0 661 0 q 613 13 625 0 q 600 43 600 25 l 600 574 m 439 1167 q 472 1173 454 1178 q 497 1153 489 1168 q 502 1121 506 1138 q 483 1093 499 1104 l 286 978 q 254 973 271 969 q 226 993 238 976 q 224 1026 219 1010 q 242 1051 228 1042 l 439 1167 z "},"Ň":{"ha":726,"x_min":40,"x_max":686,"o":"m 600 574 q 581 665 600 622 q 530 741 563 708 q 454 792 497 774 q 363 811 411 811 q 271 792 314 811 q 196 741 228 774 q 145 665 164 708 q 126 574 126 622 l 126 43 q 114 13 126 25 q 83 0 101 0 q 53 13 65 0 q 40 43 40 25 l 40 574 q 65 699 40 640 q 134 802 90 758 q 237 872 178 846 q 363 897 296 897 q 488 872 429 897 q 591 802 547 846 q 660 699 635 758 q 686 574 686 640 l 686 43 q 674 13 686 25 q 643 0 661 0 q 613 13 625 0 q 600 43 600 25 l 600 574 m 540 1229 q 571 1242 553 1242 q 601 1229 589 1242 q 614 1199 614 1217 q 601 1168 614 1181 l 394 960 l 393 958 q 363 946 381 946 q 332 958 344 946 l 125 1171 q 113 1201 113 1183 q 125 1232 113 1219 q 156 1244 138 1244 q 186 1232 174 1244 l 363 1051 l 540 1229 z "},"Ď":{"ha":717,"x_min":44,"x_max":679,"o":"m 88 0 q 57 13 69 0 q 44 43 44 25 l 44 853 q 57 883 44 871 q 88 896 69 896 l 379 897 q 502 876 447 897 q 597 815 557 854 q 658 722 636 776 q 679 600 679 667 l 679 297 q 658 176 679 231 q 597 82 636 121 q 503 22 558 43 q 381 0 449 0 l 88 0 m 131 86 l 381 86 q 537 142 481 86 q 593 297 593 199 l 593 600 q 538 755 593 699 q 379 811 482 811 l 131 811 l 131 86 m 535 1407 q 565 1419 547 1419 q 596 1407 583 1419 q 608 1376 608 1394 q 596 1346 608 1358 l 389 1138 l 388 1136 q 357 1124 375 1124 q 326 1136 339 1124 l 119 1349 q 107 1379 107 1361 q 119 1410 107 1397 q 150 1422 132 1422 q 181 1410 168 1422 l 357 1229 l 535 1407 z "},"Ě":{"ha":633,"x_min":44,"x_max":622,"o":"m 44 853 q 57 883 44 871 q 88 896 69 896 l 579 896 q 610 883 597 896 q 622 853 622 871 q 610 822 622 835 q 579 810 597 810 l 131 810 l 131 500 l 453 500 q 483 488 471 500 q 496 457 496 475 q 483 426 496 439 q 453 414 471 414 l 131 414 l 131 86 l 579 86 q 610 74 597 86 q 622 43 622 61 q 610 13 622 25 q 579 0 597 0 l 88 0 q 57 13 69 0 q 44 43 44 25 l 44 853 m 493 1229 q 524 1242 506 1242 q 554 1229 542 1242 q 567 1199 567 1217 q 554 1168 567 1181 l 347 960 l 346 958 q 315 946 333 946 q 285 958 297 946 l 78 1171 q 65 1201 65 1183 q 78 1232 65 1219 q 108 1244 90 1244 q 139 1232 126 1244 l 315 1051 l 493 1229 z "},"ě":{"ha":729,"x_min":31,"x_max":704,"o":"m 119 294 q 149 212 126 250 q 203 146 171 174 q 278 102 236 118 q 365 86 319 86 q 461 105 417 86 q 540 157 506 124 q 571 169 553 169 q 601 157 589 169 q 614 126 614 144 q 601 96 614 108 q 498 23 556 44 q 365 1 440 1 q 235 26 296 1 q 129 96 175 51 q 57 201 83 140 q 31 335 31 263 q 56 465 31 404 q 127 570 82 525 q 234 642 172 615 q 368 672 296 669 q 494 646 435 672 q 599 575 553 619 q 672 471 644 531 q 701 343 699 411 q 690 307 704 319 q 658 294 675 294 l 119 294 m 365 585 q 278 569 319 585 q 205 526 238 553 q 151 461 172 499 q 121 381 129 424 l 611 381 q 581 461 603 424 q 526 526 558 499 q 452 569 493 553 q 365 585 411 585 m 542 1010 q 572 1022 554 1022 q 603 1010 590 1022 q 615 979 615 997 q 603 949 615 961 l 396 740 l 394 739 q 364 726 382 726 q 333 739 346 726 l 126 951 q 114 982 114 964 q 126 1013 114 1000 q 157 1025 139 1025 q 188 1013 175 1025 l 364 832 l 542 1010 z "},"č":{"ha":644,"x_min":26,"x_max":613,"o":"m 536 517 q 457 566 501 547 q 361 585 413 585 q 265 565 310 585 q 185 512 219 546 q 132 432 151 478 q 113 335 113 386 q 132 238 113 283 q 185 159 151 193 q 265 106 219 125 q 361 86 310 86 q 457 105 413 86 q 536 157 501 124 q 567 169 549 169 q 597 157 585 169 q 609 126 610 144 q 593 92 608 107 q 559 63 581 79 q 508 33 538 47 q 441 10 478 19 q 361 1 404 1 q 231 26 292 1 q 125 96 171 51 q 53 201 79 140 q 26 335 26 263 q 52 465 26 404 q 123 570 78 525 q 230 642 168 615 q 364 672 292 669 q 441 662 406 672 q 505 637 476 651 q 556 606 533 622 q 592 576 578 589 q 606 551 600 569 q 597 517 613 532 q 567 504 585 504 q 536 517 549 504 m 499 1007 q 529 1019 511 1019 q 560 1007 547 1019 q 572 976 572 994 q 560 946 572 958 l 353 738 l 351 736 q 321 724 339 724 q 290 736 303 724 l 83 949 q 71 979 71 961 q 83 1010 71 997 q 114 1022 96 1022 q 144 1010 132 1022 l 321 829 l 499 1007 z "},"Č":{"ha":674,"x_min":35,"x_max":646,"o":"m 121 322 q 140 231 121 274 q 190 156 158 188 q 265 105 222 124 q 357 86 308 86 q 478 119 424 86 q 563 204 532 151 q 590 224 572 219 q 622 219 607 228 q 642 192 638 210 q 636 157 646 174 q 520 43 594 86 q 357 0 446 0 q 231 25 290 0 q 128 94 172 50 q 60 197 85 138 q 35 322 35 256 l 35 574 q 60 699 35 640 q 128 802 85 758 q 231 872 172 846 q 357 897 290 897 q 520 853 446 897 q 636 736 594 808 q 641 703 644 721 q 622 675 638 685 q 590 671 607 667 q 561 692 572 675 q 476 778 531 744 q 357 811 422 811 q 265 792 308 811 q 190 741 222 774 q 140 665 158 708 q 121 574 121 622 l 121 322 m 514 1229 q 544 1242 526 1242 q 575 1229 563 1242 q 588 1199 588 1217 q 575 1168 588 1181 l 368 960 l 367 958 q 336 946 354 946 q 306 958 318 946 l 99 1171 q 86 1201 86 1183 q 99 1232 86 1219 q 129 1244 111 1244 q 160 1232 147 1244 l 336 1051 l 514 1229 z "},"Ć":{"ha":674,"x_min":35,"x_max":646,"o":"m 121 322 q 140 231 121 274 q 190 156 158 188 q 265 105 222 124 q 357 86 308 86 q 478 119 424 86 q 563 204 532 151 q 590 224 572 219 q 622 219 607 228 q 642 192 638 210 q 636 157 646 174 q 520 43 594 86 q 357 0 446 0 q 231 25 290 0 q 128 94 172 50 q 60 197 85 138 q 35 322 35 256 l 35 574 q 60 699 35 640 q 128 802 85 758 q 231 872 172 846 q 357 897 290 897 q 520 853 446 897 q 636 736 594 808 q 641 703 644 721 q 622 675 638 685 q 590 671 607 667 q 561 692 572 675 q 476 778 531 744 q 357 811 422 811 q 265 792 308 811 q 190 741 222 774 q 140 665 158 708 q 121 574 121 622 l 121 322 m 524 1181 q 556 1187 539 1192 q 582 1167 574 1182 q 587 1135 590 1151 q 568 1107 583 1118 l 371 992 q 339 987 356 983 q 311 1007 322 990 q 308 1040 304 1024 q 326 1065 313 1056 l 524 1181 z "},"ş":{"ha":604,"x_min":32,"x_max":574,"o":"m 46 43 q 58 74 46 61 q 89 86 71 86 l 389 86 q 458 115 429 86 q 488 185 488 144 q 458 254 488 225 q 389 283 429 283 l 226 283 q 151 299 186 283 q 89 340 115 314 q 47 402 63 367 q 32 478 32 438 q 47 554 32 518 q 89 617 63 590 q 151 658 115 643 q 226 674 186 674 l 510 674 q 540 661 528 674 q 553 631 553 649 q 540 600 553 613 q 510 588 528 588 l 226 588 q 150 554 182 586 q 118 478 118 522 q 150 401 118 433 q 226 369 182 369 l 389 369 q 460 355 426 369 q 519 315 494 340 q 559 256 544 290 q 574 185 574 222 q 559 113 574 147 q 519 54 544 79 q 460 15 494 29 q 389 0 426 0 l 89 0 q 58 13 71 0 q 46 43 46 25 m 263 69 l 340 69 l 340 -22 q 399 -66 376 -35 q 422 -137 422 -97 q 387 -223 422 -187 q 301 -258 351 -258 q 216 -223 251 -258 q 181 -137 181 -187 q 192 -110 181 -122 q 219 -99 204 -99 q 247 -110 235 -99 q 258 -137 258 -122 q 273 -169 261 -157 q 301 -181 285 -181 q 332 -168 319 -181 q 344 -137 344 -156 q 333 -108 344 -121 q 301 -94 321 -96 q 274 -82 286 -94 q 263 -50 263 -69 l 263 69 z "},"ř":{"ha":413,"x_min":-43,"x_max":458,"o":"m 32 340 q 58 469 32 408 q 128 575 83 529 q 233 647 174 621 q 361 675 293 674 q 397 663 383 675 q 410 632 410 650 q 397 601 410 614 q 361 589 383 589 q 267 567 311 588 q 189 514 222 547 q 137 435 156 481 q 118 340 118 390 l 118 43 q 106 13 118 25 q 75 0 93 0 q 44 13 57 0 q 32 43 32 25 l 32 340 m 385 1007 q 415 1019 397 1019 q 446 1007 433 1019 q 458 976 458 994 q 446 946 458 958 l 239 738 l 238 736 q 207 724 225 724 q 176 736 189 724 l -31 949 q -43 979 -43 961 q -31 1010 -43 997 q 0 1022 -18 1022 q 31 1010 18 1022 l 207 829 l 385 1007 z "},"ŕ":{"ha":413,"x_min":32,"x_max":446,"o":"m 32 340 q 58 469 32 408 q 128 575 83 529 q 233 647 174 621 q 361 675 293 674 q 397 663 383 675 q 410 632 410 650 q 397 601 410 614 q 361 589 383 589 q 267 567 311 588 q 189 514 222 547 q 137 435 156 481 q 118 340 118 390 l 118 43 q 106 13 118 25 q 75 0 93 0 q 44 13 57 0 q 32 43 32 25 l 32 340 m 379 953 q 412 959 394 964 q 438 939 429 954 q 442 907 446 924 q 424 879 439 890 l 226 764 q 194 759 211 756 q 167 779 178 763 q 164 812 160 796 q 182 838 168 828 l 379 953 z "},"Ť":{"ha":678,"x_min":10,"x_max":668,"o":"m 10 854 q 22 885 10 872 q 53 897 35 897 l 625 897 q 656 885 643 897 q 668 854 668 872 q 656 824 668 836 q 625 811 643 811 l 382 811 l 382 43 q 369 13 382 25 q 339 0 357 0 q 308 13 321 0 q 296 43 296 25 l 296 811 l 53 811 q 22 824 35 811 q 10 854 10 836 m 515 1233 q 546 1246 528 1246 q 576 1233 564 1246 q 589 1203 589 1221 q 576 1172 589 1185 l 369 964 l 368 963 q 338 950 356 950 q 307 963 319 950 l 100 1175 q 88 1206 88 1188 q 100 1236 88 1224 q 131 1249 113 1249 q 161 1236 149 1249 l 338 1056 l 515 1233 z "},"ž":{"ha":742,"x_min":35,"x_max":708,"o":"m 47 13 q 35 42 35 25 q 47 74 35 60 l 557 588 l 79 588 q 49 600 61 588 q 36 631 36 613 q 49 661 36 649 q 79 674 61 674 l 663 674 q 693 660 679 674 q 704 630 706 647 q 690 599 703 613 l 181 86 l 665 86 q 696 74 683 86 q 708 43 708 61 q 696 13 708 25 q 665 0 683 0 l 78 0 q 47 13 60 0 m 561 1008 q 592 1021 574 1021 q 622 1008 610 1021 q 635 978 635 996 q 622 947 635 960 l 415 739 l 414 738 q 383 725 401 725 q 353 738 365 725 l 146 950 q 133 981 133 963 q 146 1011 133 999 q 176 1024 158 1024 q 207 1011 194 1024 l 383 831 l 561 1008 z "},"ź":{"ha":742,"x_min":35,"x_max":708,"o":"m 47 13 q 35 42 35 25 q 47 74 35 60 l 557 588 l 79 588 q 49 600 61 588 q 36 631 36 613 q 49 661 36 649 q 79 674 61 674 l 663 674 q 693 660 679 674 q 704 630 706 647 q 690 599 703 613 l 181 86 l 665 86 q 696 74 683 86 q 708 43 708 61 q 696 13 708 25 q 665 0 683 0 l 78 0 q 47 13 60 0 m 558 946 q 591 952 574 957 q 617 932 608 947 q 622 900 625 917 q 603 872 618 883 l 406 757 q 374 752 390 749 q 346 772 357 756 q 343 805 339 789 q 361 831 347 821 l 558 946 z "},"Ś":{"ha":640,"x_min":25,"x_max":615,"o":"m 56 43 q 68 74 56 61 q 99 86 81 86 l 371 86 q 433 99 404 86 q 483 132 463 111 q 517 181 504 153 q 529 242 529 210 q 517 302 529 274 q 483 351 504 331 q 433 385 463 372 q 371 397 404 397 l 269 397 q 174 417 218 397 q 96 472 129 438 q 44 551 63 506 q 25 649 25 597 q 44 744 25 700 q 96 822 63 789 q 174 875 129 856 q 269 894 218 894 l 556 894 q 586 882 574 894 q 599 851 599 869 q 586 822 599 833 q 556 810 574 810 l 269 810 q 208 797 236 810 q 158 763 179 785 q 124 712 136 740 q 111 650 111 683 q 124 587 111 617 q 158 534 136 557 q 208 498 179 511 q 269 485 236 485 l 371 485 q 467 466 422 485 q 544 414 511 447 q 597 336 578 381 q 615 242 615 292 q 597 147 615 192 q 544 70 578 103 q 467 19 511 38 q 371 0 422 0 l 99 0 q 68 13 81 0 q 56 43 56 25 m 493 1178 q 526 1184 508 1189 q 551 1164 543 1179 q 556 1132 560 1149 q 538 1104 553 1115 l 340 989 q 308 984 325 981 q 281 1004 292 988 q 278 1037 274 1021 q 296 1063 282 1053 l 493 1178 z "},"ć":{"ha":644,"x_min":26,"x_max":613,"o":"m 536 517 q 457 566 501 547 q 361 585 413 585 q 265 565 310 585 q 185 512 219 546 q 132 432 151 478 q 113 335 113 386 q 132 238 113 283 q 185 159 151 193 q 265 106 219 125 q 361 86 310 86 q 457 105 413 86 q 536 157 501 124 q 567 169 549 169 q 597 157 585 169 q 609 126 610 144 q 593 92 608 107 q 559 63 581 79 q 508 33 538 47 q 441 10 478 19 q 361 1 404 1 q 231 26 292 1 q 125 96 171 51 q 53 201 79 140 q 26 335 26 263 q 52 465 26 404 q 123 570 78 525 q 230 642 168 615 q 364 672 292 669 q 441 662 406 672 q 505 637 476 651 q 556 606 533 622 q 592 576 578 589 q 606 551 600 569 q 597 517 613 532 q 567 504 585 504 q 536 517 549 504 m 510 943 q 542 949 525 954 q 568 929 560 944 q 573 897 576 914 q 554 869 569 881 l 357 754 q 325 749 342 746 q 297 769 308 753 q 294 802 290 786 q 313 828 299 818 l 510 943 z "},"ś":{"ha":604,"x_min":32,"x_max":574,"o":"m 46 43 q 58 74 46 61 q 89 86 71 86 l 389 86 q 458 115 429 86 q 488 185 488 144 q 458 254 488 225 q 389 283 429 283 l 226 283 q 151 299 186 283 q 89 340 115 314 q 47 402 63 367 q 32 478 32 438 q 47 554 32 518 q 89 617 63 590 q 151 658 115 643 q 226 674 186 674 l 510 674 q 540 661 528 674 q 553 631 553 649 q 540 600 553 613 q 510 588 528 588 l 226 588 q 150 554 182 586 q 118 478 118 522 q 150 401 118 433 q 226 369 182 369 l 389 369 q 460 355 426 369 q 519 315 494 340 q 559 256 544 290 q 574 185 574 222 q 559 113 574 147 q 519 54 544 79 q 460 15 494 29 q 389 0 426 0 l 89 0 q 58 13 71 0 q 46 43 46 25 m 461 950 q 494 956 476 961 q 519 936 511 951 q 524 904 528 921 q 506 876 521 888 l 308 761 q 276 756 293 753 q 249 776 260 760 q 246 809 242 793 q 264 835 250 825 l 461 950 z "},"Ź":{"ha":696,"x_min":25,"x_max":671,"o":"m 25 853 q 38 883 25 871 q 68 896 50 896 l 628 896 q 658 883 646 896 q 671 853 671 871 q 665 832 671 842 q 660 824 658 822 l 144 86 l 628 86 q 658 74 646 86 q 671 43 671 61 q 658 13 671 25 q 628 0 646 0 l 68 0 q 38 13 50 0 q 25 43 25 25 q 33 69 25 54 l 547 810 l 68 810 q 38 822 50 810 q 25 853 25 835 m 521 1179 q 553 1185 536 1190 q 579 1165 571 1181 q 584 1133 588 1150 q 565 1106 581 1117 l 368 990 q 336 985 353 982 q 308 1006 319 989 q 306 1038 301 1022 q 324 1064 310 1054 l 521 1179 z "},"Ĺ":{"ha":622,"x_min":44,"x_max":622,"o":"m 44 854 q 57 885 44 872 q 88 897 69 897 q 118 885 106 897 q 131 854 131 872 l 131 86 l 579 86 q 610 74 597 86 q 622 43 622 61 q 610 13 622 25 q 579 0 597 0 l 88 0 q 57 13 69 0 q 44 43 44 25 l 44 854 m 388 1178 q 420 1184 403 1189 q 446 1164 438 1179 q 451 1132 454 1149 q 432 1104 447 1115 l 235 989 q 203 984 219 981 q 175 1004 186 988 q 172 1037 168 1021 q 190 1063 176 1053 l 388 1178 z "},"˛":{"ha":286,"x_min":25,"x_max":267,"o":"m 185 -37 q 173 -69 185 -57 q 146 -82 161 -82 q 115 -96 126 -83 q 103 -125 103 -108 q 115 -156 103 -143 q 146 -168 128 -168 q 174 -156 163 -168 q 189 -125 186 -144 q 201 -98 189 -110 q 228 -86 213 -86 q 255 -98 243 -86 q 267 -125 267 -110 q 231 -210 267 -175 q 146 -246 196 -246 q 60 -210 96 -246 q 25 -125 25 -175 q 48 -53 25 -85 q 107 -10 71 -22 l 107 82 l 185 82 l 185 -37 z "},"ę":{"ha":729,"x_min":31,"x_max":704,"o":"m 119 294 q 149 212 126 250 q 203 146 171 174 q 278 102 236 118 q 365 86 319 86 q 461 105 417 86 q 540 157 506 124 q 571 169 553 169 q 601 157 589 169 q 614 126 614 144 q 601 96 614 108 q 498 23 556 44 q 365 1 440 1 q 235 26 296 1 q 129 96 175 51 q 57 201 83 140 q 31 335 31 263 q 56 465 31 404 q 127 570 82 525 q 234 642 172 615 q 368 672 296 669 q 494 646 435 672 q 599 575 553 619 q 672 471 644 531 q 701 343 699 411 q 690 307 704 319 q 658 294 675 294 l 119 294 m 365 585 q 278 569 319 585 q 205 526 238 553 q 151 461 172 499 q 121 381 129 424 l 611 381 q 581 461 603 424 q 526 526 558 499 q 452 569 493 553 q 365 585 411 585 m 400 -78 q 388 -110 400 -97 q 361 -122 376 -122 q 330 -136 342 -124 q 318 -165 318 -149 q 331 -196 318 -183 q 361 -208 343 -208 q 390 -197 378 -208 q 404 -165 401 -185 q 416 -138 404 -150 q 443 -126 428 -126 q 470 -138 458 -126 q 482 -165 482 -150 q 447 -251 482 -215 q 361 -286 411 -286 q 276 -251 311 -286 q 240 -165 240 -215 q 263 -94 240 -125 q 322 -50 286 -62 l 322 42 l 400 42 l 400 -78 z "},"Ę":{"ha":633,"x_min":44,"x_max":622,"o":"m 44 853 q 57 883 44 871 q 88 896 69 896 l 579 896 q 610 883 597 896 q 622 853 622 871 q 610 822 622 835 q 579 810 597 810 l 131 810 l 131 500 l 453 500 q 483 488 471 500 q 496 457 496 475 q 483 426 496 439 q 453 414 471 414 l 131 414 l 131 86 l 579 86 q 610 74 597 86 q 622 43 622 61 q 610 13 622 25 q 579 0 597 0 l 88 0 q 57 13 69 0 q 44 43 44 25 l 44 853 m 374 -64 q 362 -96 374 -83 q 335 -108 350 -108 q 303 -122 315 -110 q 292 -151 292 -135 q 304 -182 292 -169 q 335 -194 317 -194 q 363 -183 351 -194 q 378 -151 375 -171 q 390 -124 378 -136 q 417 -112 401 -112 q 444 -124 432 -112 q 456 -151 456 -136 q 420 -237 456 -201 q 335 -272 385 -272 q 249 -237 285 -272 q 214 -151 214 -201 q 237 -80 214 -111 q 296 -36 260 -49 l 296 56 l 374 56 l 374 -64 z "},"ą":{"ha":739,"x_min":31,"x_max":701,"o":"m 368 672 q 495 645 435 672 q 601 572 556 618 q 674 465 647 526 q 701 335 701 404 l 701 42 q 689 11 701 24 q 658 -1 676 -1 q 628 11 640 -1 q 615 42 615 24 l 615 126 q 505 38 569 75 q 365 1 440 1 q 235 26 296 1 q 129 96 175 51 q 57 201 83 140 q 31 335 31 263 q 56 465 31 404 q 127 570 82 525 q 234 642 172 615 q 368 672 296 669 m 117 335 q 136 238 117 283 q 190 159 156 193 q 269 106 224 125 q 365 86 314 86 q 460 105 415 86 q 538 157 504 124 q 592 235 572 190 q 615 335 613 281 q 596 432 615 386 q 542 512 576 478 q 463 565 508 546 q 365 585 417 585 q 269 565 314 585 q 190 512 224 546 q 136 432 156 478 q 117 335 117 386 m 397 -64 q 385 -96 397 -83 q 358 -108 374 -108 q 327 -122 339 -110 q 315 -151 315 -135 q 328 -182 315 -169 q 358 -194 340 -194 q 387 -183 375 -194 q 401 -151 399 -171 q 413 -124 401 -136 q 440 -112 425 -112 q 467 -124 456 -112 q 479 -151 479 -136 q 444 -237 479 -201 q 358 -272 408 -272 q 273 -237 308 -272 q 238 -151 238 -201 q 260 -80 238 -111 q 319 -36 283 -49 l 319 56 l 397 56 l 397 -64 z "}}}
